<?xml version="1.0" standalone="no"?>
<!DOCTYPE svg PUBLIC "-//W3C//DTD SVG 20010904//EN"
 "http://www.w3.org/TR/2001/REC-SVG-20010904/DTD/svg10.dtd">
<svg version="1.0" xmlns="http://www.w3.org/2000/svg"
 width="720.000000pt" height="384.000000pt" viewBox="0 0 720.000000 384.000000"
 preserveAspectRatio="xMidYMid meet">

<g transform="translate(0.000000,384.000000) scale(0.100000,-0.100000)"
fill="#000000" stroke="none">
<path d="M798 3822 c-32 -9 -58 -19 -58 -22 0 -4 16 -11 35 -17 28 -9 35 -8
35 2 0 35 138 20 148 -17 2 -10 7 -18 11 -18 13 0 317 72 336 80 16 7 12 9
-18 9 -20 1 -46 -4 -56 -11 -15 -9 -31 -9 -71 0 -28 7 -64 12 -78 11 -27 0
-27 0 -4 -11 58 -28 -28 -51 -92 -24 -20 8 -36 20 -36 25 0 16 -85 11 -152 -7z"/>
<path d="M2815 3799 c-110 -22 -339 -67 -510 -100 -170 -33 -398 -77 -505 -99
-336 -67 -711 -139 -808 -154 -79 -13 -151 -35 -116 -36 6 0 11 -17 12 -37 2
-44 5 -47 64 -62 69 -16 104 -13 54 5 -52 19 -54 22 -22 33 14 6 26 17 26 24
0 8 8 20 18 29 34 29 254 77 447 98 44 5 114 16 155 25 41 8 105 15 142 15 37
0 70 4 73 10 4 6 13 5 24 -2 15 -9 29 -8 67 7 27 10 67 20 89 22 144 10 187
16 176 22 -7 5 36 11 96 15 145 9 193 17 168 27 -11 4 3 5 31 2 36 -4 60 -1
83 12 20 10 43 14 58 10 23 -5 24 -5 9 10 -9 9 -16 17 -16 18 0 1 24 2 53 2
82 0 159 12 167 25 4 6 50 17 103 24 82 11 94 10 89 -2 -3 -10 0 -13 9 -10 8
3 13 11 12 17 -2 7 12 11 36 11 22 0 41 4 43 10 2 5 22 12 44 14 23 3 52 10
66 15 13 5 54 12 91 16 132 14 76 25 -125 24 -194 -1 -212 -3 -403 -40z m-255
-139 c0 -5 -8 -10 -17 -10 -15 0 -16 2 -3 10 19 12 20 12 20 0z"/>
<path d="M6406 3831 c-3 -5 -23 -42 -44 -82 -21 -41 -55 -105 -76 -142 -21
-37 -35 -73 -33 -80 2 -7 13 6 23 28 11 22 25 46 32 53 6 7 12 19 12 26 0 7 8
21 18 32 9 11 26 36 36 55 11 19 30 53 43 77 20 34 22 42 9 42 -8 0 -17 -4
-20 -9z"/>
<path d="M903 3743 c9 -2 23 -2 30 0 6 3 -1 5 -18 5 -16 0 -22 -2 -12 -5z"/>
<path d="M5136 3641 c-18 -7 -18 -8 -2 -14 9 -4 15 -11 11 -16 -9 -15 11 -22
40 -15 19 5 25 12 23 28 -3 23 -38 31 -72 17z"/>
<path d="M4968 3623 c-37 -4 -55 -23 -22 -23 11 0 14 -5 10 -16 -5 -12 2 -15
36 -12 39 3 43 6 45 31 1 20 -2 27 -15 25 -9 -1 -34 -3 -54 -5z"/>
<path d="M4820 3575 c0 -16 6 -25 15 -25 9 0 15 9 15 25 0 16 -6 25 -15 25 -9
0 -15 -9 -15 -25z"/>
<path d="M6207 3464 c-32 -63 -31 -84 2 -29 19 33 38 85 30 85 -2 0 -17 -26
-32 -56z"/>
<path d="M3720 3443 c8 -3 19 -12 23 -19 9 -16 57 -19 57 -4 0 14 -35 30 -67
29 -16 0 -22 -3 -13 -6z"/>
<path d="M3590 3430 c-17 -5 -19 -8 -7 -9 9 -1 17 -8 17 -16 0 -10 10 -15 28
-15 37 0 44 8 29 31 -13 20 -26 22 -67 9z"/>
<path d="M3442 3413 l-23 -4 25 -20 c25 -20 43 -23 70 -13 12 5 13 9 3 25 -11
18 -27 21 -75 12z"/>
<path d="M3326 3391 c-6 -9 44 -35 52 -26 3 3 0 5 -6 5 -7 0 -12 7 -12 15 0
16 -25 21 -34 6z"/>
<path d="M6156 3374 c-4 -9 -4 -19 -1 -22 2 -3 7 3 11 12 4 9 4 19 1 22 -2 3
-7 -3 -11 -12z"/>
<path d="M6137 3333 c-4 -3 -7 -11 -7 -17 0 -6 5 -5 12 2 6 6 9 14 7 17 -3 3
-9 2 -12 -2z"/>
<path d="M2656 3285 c10 -8 28 -14 39 -14 20 0 20 0 1 14 -11 8 -29 15 -40 15
-20 0 -20 0 0 -15z"/>
<path d="M2547 3269 c14 -15 27 -19 43 -14 20 6 21 7 3 21 -10 7 -29 14 -43
14 l-24 0 21 -21z"/>
<path d="M1075 3270 c3 -5 16 -10 28 -10 18 0 19 2 7 10 -20 13 -43 13 -35 0z"/>
<path d="M2415 3270 c-23 -6 -25 -8 -8 -9 12 0 25 -5 28 -11 3 -5 21 -10 38
-10 l32 0 -25 20 c-14 11 -27 19 -30 19 -3 -1 -18 -5 -35 -9z"/>
<path d="M3235 3275 c-5 -2 -36 -6 -68 -10 -44 -5 -56 -10 -48 -19 7 -9 31 -9
95 -2 70 7 84 12 75 23 -11 12 -32 16 -54 8z"/>
<path d="M6096 3253 c-6 -14 -5 -15 5 -6 7 7 10 15 7 18 -3 3 -9 -2 -12 -12z"/>
<path d="M2328 3248 c9 -9 15 -9 24 0 9 9 7 12 -12 12 -19 0 -21 -3 -12 -12z"/>
<path d="M5240 3250 c-11 -6 -12 -12 -4 -20 13 -13 46 -2 41 13 -5 15 -20 18
-37 7z"/>
<path d="M5090 3224 c0 -11 8 -14 27 -12 39 4 42 28 4 28 -21 0 -31 -5 -31
-16z"/>
<path d="M4947 3224 c-15 -16 -5 -24 29 -24 24 0 34 4 32 13 -5 13 -50 22 -61
11z"/>
<path d="M4836 3213 c-11 -11 -6 -23 9 -23 8 0 15 4 15 9 0 13 -16 22 -24 14z"/>
<path d="M6052 3178 c-13 -22 -21 -42 -18 -45 2 -3 14 14 26 37 28 54 22 61
-8 8z"/>
<path d="M6433 3170 c-12 -5 -41 -30 -65 -56 -24 -26 -82 -87 -130 -135 -49
-48 -88 -91 -88 -95 0 -4 16 7 35 26 l35 34 0 -585 0 -585 103 -51 c56 -28
116 -54 133 -57 l31 -5 6 436 c9 545 9 1046 1 1067 -7 18 -27 19 -61 6z m-13
-755 c0 -393 -3 -715 -7 -715 -5 0 -43 16 -85 37 l-78 38 0 597 0 597 77 81
c43 44 81 80 85 80 4 0 8 -322 8 -715z"/>
<path d="M4150 3135 c0 -8 9 -15 20 -15 24 0 27 15 4 24 -22 9 -24 8 -24 -9z"/>
<path d="M4042 3133 c-18 -7 -4 -23 19 -23 12 0 19 5 17 12 -5 14 -18 18 -36
11z"/>
<path d="M3915 3110 c3 -5 17 -10 31 -10 13 0 24 5 24 10 0 6 -14 10 -31 10
-17 0 -28 -4 -24 -10z"/>
<path d="M5616 3113 c-11 -11 -6 -23 9 -23 8 0 15 4 15 9 0 13 -16 22 -24 14z"/>
<path d="M3825 3100 c3 -5 11 -10 16 -10 6 0 7 5 4 10 -3 6 -11 10 -16 10 -6
0 -7 -4 -4 -10z"/>
<path d="M6002 3088 c-5 -7 -22 -35 -37 -63 -15 -27 -43 -71 -61 -96 l-33 -46
-112 -7 c-71 -4 -116 -3 -122 3 -7 7 -14 6 -21 -3 -15 -19 -513 -51 -533 -34
-8 6 -13 7 -13 0 0 -5 -12 -12 -27 -15 -21 -4 -35 1 -54 20 -23 21 -35 24 -85
22 -33 -1 -65 -7 -72 -12 -10 -8 -12 -105 -12 -451 1 -243 5 -448 10 -456 7
-12 44 -15 186 -17 111 -1 187 -6 206 -14 20 -8 67 -10 161 -5 181 8 397 7
416 -3 9 -5 59 -12 112 -16 l95 -7 2 -66 c3 -90 12 -93 12 -3 0 54 4 73 15 77
8 4 15 18 15 33 0 21 -7 28 -37 38 -26 8 -43 8 -56 1 -11 -5 -23 -6 -27 -1 -4
4 -9 190 -11 413 -4 365 -2 414 15 495 10 50 24 99 31 110 15 25 55 115 51
115 -2 0 -8 -6 -14 -12z m-784 -445 c-10 -2 -28 -2 -40 0 -13 2 -5 4 17 4 22
1 32 -1 23 -4z m55 0 c-7 -2 -19 -2 -25 0 -7 3 -2 5 12 5 14 0 19 -2 13 -5z
m-136 -9 c-3 -3 -12 -4 -19 -1 -8 3 -5 6 6 6 11 1 17 -2 13 -5z m301 -192 c3
-10 7 -10 18 -1 11 9 17 9 28 0 10 -9 15 -8 20 4 3 8 14 15 25 15 14 0 19 -5
15 -14 -7 -17 -3 -18 125 -16 52 1 115 -5 138 -12 l44 -13 -3 -53 -3 -53 -56
-23 -57 -23 -4 54 c-3 29 -7 55 -9 57 -2 3 -42 6 -89 7 l-85 2 -3 -196 c-1
-110 -6 -197 -12 -197 -5 0 -10 10 -12 23 -3 22 -4 22 -194 25 l-192 2 5 83
c4 81 -4 116 -26 103 -7 -5 -11 -42 -11 -97 l0 -89 -45 0 -45 0 2 207 c3 175
5 208 18 211 8 1 20 -8 25 -20 13 -29 39 -30 43 -1 4 27 29 31 206 29 96 -1
130 -4 134 -14z m235 -187 c15 3 17 -9 17 -141 l0 -145 -40 3 c-23 1 -45 7
-51 14 -5 7 -8 66 -7 140 3 116 5 129 21 126 9 -2 17 2 17 9 0 8 4 8 13 2 6
-6 20 -9 30 -8z m194 -247 c-3 -8 -6 -5 -6 6 -1 11 2 17 5 13 3 -3 4 -12 1
-19z"/>
<path d="M5065 3060 c-3 -5 1 -10 9 -10 9 0 16 5 16 10 0 6 -4 10 -9 10 -6 0
-13 -4 -16 -10z"/>
<path d="M3266 3052 c-3 -6 -1 -14 5 -17 15 -10 25 3 12 16 -7 7 -13 7 -17 1z"/>
<path d="M3172 3039 c2 -6 8 -10 13 -10 5 0 11 4 13 10 2 6 -4 11 -13 11 -9 0
-15 -5 -13 -11z"/>
<path d="M3073 3028 c2 -7 10 -13 17 -13 7 0 15 6 18 13 2 7 -5 12 -18 12 -13
0 -20 -5 -17 -12z"/>
<path d="M3134 2610 c0 -140 2 -198 3 -127 2 70 2 184 0 255 -1 70 -3 12 -3
-128z"/>
<path d="M3271 2583 l-1 -233 -77 0 c-43 -1 -95 -3 -117 -6 -21 -3 -58 -3 -82
1 l-44 6 1 72 c1 78 16 60 18 -20 2 -78 21 -46 21 35 l0 79 -107 15 c-123 17
-126 16 -120 -50 4 -32 1 -45 -12 -52 -9 -6 -11 -10 -3 -10 9 0 11 -39 10
-167 l-2 -168 -3 159 c-3 129 -6 156 -17 147 -10 -9 -13 -1 -15 36 -1 26 -6
52 -11 57 -7 7 -10 -109 -10 -336 l0 -345 43 -5 c23 -3 78 -2 122 1 95 7 85
-25 85 269 l0 212 236 0 c209 0 235 -2 224 -15 -7 -8 -9 -15 -4 -15 5 0 8 -68
6 -152 -2 -129 -5 -155 -20 -168 -10 -9 -23 -15 -30 -12 -8 2 -12 -12 -11 -50
1 -83 1 -83 107 -85 89 -2 129 -13 116 -34 -3 -5 -45 -9 -92 -9 -109 0 -132
-2 -126 -12 3 -4 -23 -8 -58 -8 -44 0 -59 -3 -48 -10 12 -8 11 -10 -7 -10 -13
0 -23 5 -23 10 0 6 -7 10 -15 10 -8 0 -15 -4 -15 -10 0 -11 -33 -14 -42 -4 -4
3 -147 7 -320 9 -172 2 -382 6 -465 10 -117 6 -153 5 -153 -4 0 -9 15 -11 53
-6 42 5 57 3 70 -9 8 -9 20 -16 25 -16 6 0 23 -20 39 -45 15 -25 33 -45 39
-45 6 0 9 -12 6 -29 -3 -23 -11 -30 -35 -36 -18 -4 -38 -7 -45 -6 -8 1 -19 -2
-25 -7 -7 -5 -38 -12 -69 -15 -57 -5 -58 -5 -58 21 0 20 -3 23 -12 14 -18 -18
-28 -15 -28 9 0 17 5 20 37 17 30 -2 39 -8 44 -28 7 -25 7 -25 8 -2 1 23 3 24
78 21 57 -3 78 0 81 10 3 10 -12 12 -69 11 -124 -3 -136 -2 -166 26 -22 21
-25 27 -13 34 8 6 24 10 35 11 11 1 4 5 -15 9 l-35 7 43 2 c23 0 42 -3 42 -9
0 -5 9 -10 19 -10 11 0 23 5 26 10 4 6 -5 10 -19 10 -16 0 -25 5 -23 13 1 8
-8 11 -28 10 -67 -5 -88 -4 -95 7 -4 6 -20 15 -36 20 -24 7 -17 8 37 9 36 1
70 6 75 11 6 6 37 14 70 18 l59 7 3 79 c2 46 -2 84 -8 90 -6 6 -10 114 -10
309 0 294 0 298 -20 292 -14 -4 -20 -2 -20 8 0 9 -4 17 -9 19 -12 5 -24 78
-12 78 6 0 8 7 5 15 -4 9 0 15 10 15 9 0 16 5 16 10 0 6 -40 10 -100 10 l-100
0 0 -306 c0 -201 -3 -303 -10 -299 -6 4 -10 109 -10 282 l0 275 -87 -7 c-49
-4 -91 -9 -95 -12 -5 -2 -8 -85 -8 -183 0 -99 -4 -181 -9 -185 -17 -10 -20 27
-18 193 2 89 0 167 -4 173 -10 16 -99 0 -99 -18 0 -8 -4 -12 -9 -9 -10 6 -61
-16 -61 -26 0 -5 -4 -8 -10 -8 -5 0 -10 20 -10 43 0 24 -2 46 -5 49 -3 2 -33
1 -67 -3 -78 -9 -144 1 -140 22 9 37 10 47 2 59 -12 20 -64 1 -68 -24 -3 -15
0 -18 21 -12 25 6 26 5 20 -31 -3 -21 -7 -40 -9 -42 -7 -8 -64 -9 -69 -1 -7
12 -45 0 -45 -14 0 -6 -4 -17 -9 -25 -8 -13 -15 -12 -50 4 -23 10 -41 24 -41
31 0 19 -20 28 -33 15 -17 -17 -30 -13 -24 9 7 26 -1 25 -37 -3 -28 -22 -28
-26 -26 -103 1 -43 1 -90 -1 -104 -8 -67 -1 -349 9 -366 10 -17 11 -15 12 13
0 35 16 51 33 34 6 -6 15 -11 20 -11 10 0 5 51 -7 85 -7 18 -6 18 12 -3 15
-16 22 -44 28 -100 l7 -77 15 35 c8 19 18 49 22 65 8 29 8 28 9 -10 1 -23 -3
-45 -9 -51 -5 -5 -10 -32 -11 -59 -1 -28 -5 -54 -9 -60 -12 -17 -20 -75 -10
-75 5 0 12 17 16 37 4 21 13 44 21 51 12 12 13 11 9 -9 -21 -99 -26 -140 -26
-214 l0 -85 45 0 c45 0 60 -12 29 -24 -41 -16 -90 -6 -119 24 -16 16 -26 33
-22 36 4 4 9 -1 13 -10 3 -9 11 -16 16 -16 6 0 7 30 3 78 -3 42 -7 120 -8 172
-1 52 -6 102 -11 110 -6 8 -13 30 -18 50 -6 31 -7 30 -3 -10 3 -25 7 -56 11
-70 4 -20 3 -22 -5 -10 -9 12 -11 11 -11 -8 0 -13 4 -20 10 -17 6 4 10 -5 9
-22 -1 -17 -3 -21 -6 -10 -2 9 -9 17 -14 17 -6 0 -6 -7 1 -19 11 -22 14 -123
2 -104 -4 6 -7 -19 -7 -55 0 -37 -4 -70 -10 -74 -7 -5 -6 -13 1 -25 6 -10 8
-27 3 -38 -5 -14 -8 -15 -8 -4 -1 8 -8 24 -16 35 -13 16 -16 17 -25 4 -5 -8
-10 -27 -10 -41 0 -29 2 -28 -140 -44 l-56 -7 3 -96 3 -97 -20 40 c-11 22 -20
45 -20 51 0 6 -7 17 -15 24 -19 16 -19 30 0 30 8 0 19 10 26 22 11 21 10 21
-46 15 -111 -11 -132 -46 -111 -176 8 -47 20 -128 27 -179 8 -62 17 -96 26
-99 8 -3 17 -3 20 1 4 4 -4 84 -18 179 -13 94 -23 181 -21 192 3 27 33 50 43
33 4 -7 10 -98 14 -201 7 -186 8 -189 29 -183 11 3 24 6 29 6 4 0 6 33 6 73
-1 58 -3 65 -9 37 -6 -31 -8 -28 -9 25 -1 43 -4 56 -11 45 -7 -11 -10 1 -10
40 0 30 -3 65 -6 78 -4 13 -2 22 5 22 6 0 11 -6 11 -14 0 -8 14 -42 31 -75 27
-56 30 -70 27 -141 -3 -91 14 -115 22 -30 6 57 17 52 22 -10 2 -29 7 -34 23
-32 30 5 38 18 26 40 -6 11 -11 45 -10 74 l1 53 13 -35 c7 -19 14 -55 14 -79
1 -35 4 -42 17 -37 21 8 142 36 179 42 62 8 90 21 93 40 2 10 13 43 25 72 17
42 23 49 30 36 6 -11 5 -19 -3 -24 -8 -5 -3 -10 14 -14 14 -3 26 -13 26 -22 0
-8 5 -12 10 -9 6 3 10 2 10 -4 0 -15 -24 -19 -35 -5 -15 19 -65 6 -65 -16 0
-13 11 -20 43 -26 23 -5 49 -9 57 -9 13 0 16 -32 22 -200 4 -110 4 -202 2
-205 -3 -2 -24 -10 -47 -17 -36 -11 -57 -9 -176 17 -74 17 -136 32 -139 35 -3
3 11 5 30 5 20 0 41 7 48 15 11 13 8 15 -13 15 -14 0 -27 -5 -29 -11 -4 -12
-58 -1 -58 12 0 5 -7 9 -16 9 -8 0 -12 -4 -9 -10 10 -16 -12 -12 -47 10 -18
11 -40 20 -49 20 -8 0 -28 14 -44 30 -16 16 -34 30 -41 30 -7 0 -14 5 -16 11
-2 6 -22 12 -43 13 -38 1 -40 0 -40 -29 0 -25 7 -33 40 -50 l40 -20 -2 -125
c-1 -78 1 -118 7 -105 5 11 9 42 9 68 1 30 6 50 14 53 8 3 85 -11 173 -30 298
-64 285 -63 363 -38 66 21 71 22 140 7 40 -8 74 -15 77 -15 2 0 4 16 4 35 0
28 -4 35 -20 35 -11 0 -20 5 -20 10 0 6 9 10 20 10 16 0 20 7 20 30 0 20 -5
30 -15 30 -18 0 -20 39 -2 45 9 4 11 28 7 94 -8 147 -24 130 -44 -47 -6 -58
-16 -107 -21 -109 -10 -3 -10 263 1 325 4 28 7 31 24 22 10 -5 21 -10 24 -10
6 0 -2 216 -9 236 -1 5 5 20 14 33 17 22 18 17 28 -131 6 -84 11 -178 12 -208
1 -30 8 -73 17 -96 13 -34 14 -51 5 -99 -16 -87 -16 -89 22 -81 17 4 68 20
111 37 44 17 88 28 99 25 23 -6 65 11 90 37 15 14 22 15 33 6 11 -9 15 -8 20
5 3 8 16 15 28 14 35 -3 186 55 186 71 0 11 3 12 11 4 8 -8 20 -8 41 -1 28 10
30 13 25 50 -6 46 9 111 25 102 7 -4 8 -29 4 -71 -5 -51 -4 -63 6 -57 7 5 21
7 31 6 9 -2 20 3 23 11 4 11 13 13 42 6 60 -14 84 -11 80 8 -2 13 -13 18 -38
18 -33 0 -35 2 -38 39 -1 22 -7 45 -12 51 -7 8 -6 31 1 66 6 30 14 79 19 109
5 30 16 93 25 139 8 46 13 86 10 89 -2 3 0 11 6 19 7 8 9 30 6 56 -6 41 -5 42
24 44 29 2 30 1 24 -26 -5 -25 -3 -29 22 -34 33 -6 42 -2 53 27 7 19 14 21 50
18 31 -3 44 -9 47 -23 7 -24 -8 -21 161 -34 89 -8 93 -7 90 11 -3 20 2 20 367
10 36 -1 40 -3 38 -26 -2 -24 -2 -24 8 3 7 19 16 26 26 23 8 -3 18 -6 23 -6 5
0 11 -8 13 -17 4 -17 5 -17 6 0 0 10 4 16 9 14 4 -3 72 -8 152 -11 80 -4 195
-9 257 -13 l112 -6 10 -49 c6 -27 11 -52 11 -55 0 -3 -27 -3 -60 0 -54 5 -60
3 -60 -14 0 -10 0 -22 0 -26 0 -5 21 -11 47 -14 l48 -6 -47 -1 c-71 -3 -64
-28 10 -35 91 -10 92 -10 92 -39 0 -6 -3 -8 -7 -5 -17 18 -32 -33 -33 -109 0
-44 -9 -123 -20 -174 -28 -132 -29 -130 25 -130 51 0 58 9 70 94 7 44 9 47 32
41 66 -16 79 -16 92 -1 11 13 11 25 2 60 -6 25 -11 81 -11 125 0 73 -2 81 -19
81 -28 0 -34 45 -17 126 36 172 36 172 59 178 12 3 25 6 30 6 14 0 29 -54 37
-132 10 -91 18 -120 31 -113 5 4 9 -2 9 -13 0 -26 6 -30 35 -24 22 4 23 6 9
16 -14 10 -14 26 -6 125 5 62 13 116 19 119 18 13 23 42 8 42 -10 0 -15 10
-15 31 0 17 4 28 10 24 6 -4 10 26 10 82 0 76 -3 91 -20 106 -11 9 -30 17 -42
17 -29 0 -108 -30 -108 -41 0 -5 -5 -9 -10 -9 -7 0 -8 13 -4 35 4 22 2 41 -6
50 -11 13 -6 15 31 17 72 2 78 3 85 11 4 3 7 108 8 232 l1 225 -65 1 c-266 3
-275 4 -275 19 0 15 46 19 313 29 l32 1 1 68 c0 37 4 92 9 122 4 30 5 58 1 62
-3 3 -145 0 -316 -8 -170 -8 -368 -17 -440 -20 -130 -6 -161 -14 -150 -42 3
-8 1 -20 -4 -26 -6 -7 -13 -27 -16 -46 -3 -19 -8 -36 -10 -39 -2 -2 0 -12 6
-23 7 -14 7 -23 -2 -34 -9 -11 -8 -14 3 -14 10 0 13 -11 10 -40 -3 -32 -1 -40
12 -40 13 0 15 -4 7 -17 -5 -10 -5 -26 -1 -39 8 -20 5 -22 -37 -28 -98 -13
-89 -34 -86 204 1 115 -2 220 -7 232 -6 15 -9 -59 -9 -209z m209 117 c0 -5 -4
-10 -10 -10 -5 0 -10 5 -10 10 0 6 5 10 10 10 6 0 10 -4 10 -10z m-1871 -87
c0 -5 -3 -15 -7 -25 -6 -14 -10 -14 -37 8 l-30 24 38 0 c20 0 37 -3 36 -7z
m2529 1 c12 -4 22 -13 22 -20 0 -8 -1 -14 -2 -14 -2 0 -73 -3 -159 -6 -105 -4
-158 -3 -163 4 -11 18 12 24 142 31 70 5 129 9 132 9 3 1 15 -1 28 -4z m131
-68 c-9 -8 -10 -7 -5 7 3 10 7 24 7 30 1 7 3 4 6 -7 3 -10 -1 -23 -8 -30z
m-2932 15 c12 -20 8 -31 -13 -31 -12 0 -26 35 -16 44 9 10 17 7 29 -13z m2293
9 c0 -5 -7 -10 -15 -10 -8 0 -15 5 -15 10 0 6 7 10 15 10 8 0 15 -4 15 -10z
m-2402 -36 c-10 -10 -28 6 -28 24 0 15 1 15 17 -1 9 -9 14 -19 11 -23z m412
26 c0 -5 -4 -10 -10 -10 -5 0 -10 5 -10 10 0 6 5 10 10 10 6 0 10 -4 10 -10z
m2477 -22 c-3 -8 -6 -5 -6 6 -1 11 2 17 5 13 3 -3 4 -12 1 -19z m-2692 -8 c3
-5 -1 -10 -9 -10 -8 0 -18 5 -21 10 -3 6 1 10 9 10 8 0 18 -4 21 -10z m-115
-29 c0 -26 -24 -33 -38 -11 -9 15 -8 20 6 23 30 8 32 7 32 -12z m2190 -56 c7
4 16 1 21 -6 8 -12 11 -12 19 1 8 13 10 12 10 -2 0 -10 5 -18 10 -18 11 0 14
7 24 53 6 25 8 26 22 12 12 -11 39 -130 30 -130 0 0 -44 1 -97 3 l-97 3 5 60
c4 40 2 59 -6 59 -6 0 -11 6 -11 13 1 6 14 -3 30 -22 17 -20 33 -30 40 -26z
m-2114 -2 c-7 -7 -26 7 -26 19 0 6 6 6 15 -2 9 -7 13 -15 11 -17z m-76 -8 c0
-8 -4 -15 -10 -15 -5 0 -10 7 -10 15 0 8 5 15 10 15 6 0 10 -7 10 -15z m125
-101 c-16 -24 -17 -25 -30 -7 -21 27 -18 34 10 27 21 -5 25 -3 26 17 1 18 2
20 6 6 3 -10 -3 -29 -12 -43z m1305 -10 c0 -8 -4 -12 -10 -9 -5 3 -10 13 -10
21 0 8 5 12 10 9 6 -3 10 -13 10 -21z m-1070 -5 c0 -5 -4 -9 -10 -9 -5 0 -10
7 -10 16 0 8 5 12 10 9 6 -3 10 -10 10 -16z m-390 -19 c0 -5 -4 -10 -10 -10
-5 0 -10 5 -10 10 0 6 5 10 10 10 6 0 10 -4 10 -10z m137 -22 c-3 -8 -6 -5 -6
6 -1 11 2 17 5 13 3 -3 4 -12 1 -19z m2217 -160 c-3 -101 -6 -188 -6 -193 -1
-11 -77 -7 -93 5 -5 4 -19 4 -30 0 -56 -20 -64 11 -64 232 1 134 -8 125 109
127 41 1 76 4 79 6 2 3 6 5 8 5 1 0 0 -82 -3 -182z m-2374 143 c0 -27 -17 -35
-23 -11 -5 19 0 30 15 30 4 0 8 -9 8 -19z m174 -10 c3 -4 -3 -16 -14 -26 -11
-10 -20 -28 -20 -39 0 -12 -4 -27 -9 -35 -5 -8 -7 5 -3 35 6 58 30 92 46 65z
m436 -93 c0 -29 -5 -60 -10 -68 -7 -11 -10 5 -10 53 0 38 4 67 10 67 6 0 10
-24 10 -52z m-513 -43 c-11 -23 -27 -34 -27 -18 0 6 30 43 36 43 1 0 -3 -11
-9 -25z m1574 3 c7 -43 -2 -208 -12 -208 -5 0 -9 51 -9 115 0 63 4 115 9 115
5 0 10 -10 12 -22z m-1605 -86 c-14 -15 -15 -13 -3 17 8 23 13 28 15 16 2 -10
-3 -25 -12 -33z m1431 -19 c-3 -10 -5 -4 -5 12 0 17 2 24 5 18 2 -7 2 -21 0
-30z m1473 -103 c0 -5 -4 -10 -10 -10 -5 0 -10 5 -10 10 0 6 5 10 10 10 6 0
10 -4 10 -10z m-853 -97 c-3 -10 -5 -4 -5 12 0 17 2 24 5 18 2 -7 2 -21 0 -30z
m839 -54 c-28 -41 -33 -44 -55 -30 -12 8 -10 12 12 22 16 7 30 24 34 38 7 31
27 47 31 25 2 -8 -8 -33 -22 -55z m-295 36 c16 -9 27 -20 24 -25 -4 -6 -2 -10
4 -10 5 0 11 4 13 10 2 5 36 -1 78 -15 63 -20 70 -24 40 -24 -19 0 -44 -1 -55
-2 -63 -5 -236 5 -241 13 -10 16 18 28 69 28 26 0 47 5 47 10 0 6 -4 10 -10
10 -5 0 -10 5 -10 10 0 13 6 13 41 -5z m-2144 -96 c167 -8 227 -8 243 1 12 6
29 8 38 4 9 -4 25 -6 35 -5 9 1 17 -3 17 -8 0 -6 9 -11 20 -11 26 0 26 -20 1
-27 -11 -3 -22 -16 -26 -30 -9 -36 -24 -48 -75 -61 -93 -23 -381 -64 -460 -65
-8 0 -18 -5 -22 -11 -6 -8 -8 -8 -8 1 0 7 -14 5 -40 -8 -21 -10 -43 -19 -48
-19 -18 0 -47 -43 -63 -93 -10 -32 -17 -43 -18 -29 -1 12 -5 22 -10 22 -5 0
-7 -10 -3 -22 3 -14 2 -19 -6 -14 -7 4 -12 14 -12 22 0 8 -4 14 -10 14 -15 0
-12 19 5 37 9 9 13 23 10 34 -4 11 2 31 14 48 12 16 21 37 21 46 0 17 7 48 33
140 15 58 14 57 81 51 33 -3 161 -11 283 -17z m-397 -69 c0 -5 -7 -10 -16 -10
-8 0 -12 5 -9 10 3 6 10 10 16 10 5 0 9 -4 9 -10z m775 -81 c-5 -14 -2 -25 6
-30 10 -6 10 -9 2 -9 -6 0 -15 5 -18 10 -7 11 3 50 11 50 3 0 2 -10 -1 -21z
m-905 1 c0 -5 -4 -10 -10 -10 -5 0 -10 5 -10 10 0 6 5 10 10 10 6 0 10 -4 10
-10z m-154 -23 c2 -7 0 -24 -5 -38 l-10 -24 0 28 c-1 15 -4 26 -8 26 -20 -3
-26 2 -13 11 20 13 30 12 36 -3z m-83 -4 c2 -5 1 -30 -2 -58 l-6 -50 -18 49
c-9 27 -14 52 -11 57 6 11 31 12 37 2z m-84 -30 c0 -25 -1 -25 -8 -8 -5 11 -7
23 -4 28 8 14 13 7 12 -20z m1084 -3 c-3 -11 -9 -23 -14 -26 -10 -6 -12 29 -2
39 13 13 21 7 16 -13z m-846 -22 c-3 -7 -5 -2 -5 12 0 14 2 19 5 13 2 -7 2
-19 0 -25z m775 7 c-6 -34 -19 -40 -27 -14 -5 14 -2 25 6 30 22 14 27 11 21
-16z m498 4 c0 -11 -4 -17 -10 -14 -5 3 -10 13 -10 21 0 8 5 14 10 14 6 0 10
-9 10 -21z m-117 -28 c-3 -12 -11 -17 -19 -14 -23 9 -14 33 12 33 7 0 10 -8 7
-19z m1671 4 c3 -9 0 -15 -9 -15 -8 0 -15 7 -15 15 0 8 4 15 9 15 5 0 11 -7
15 -15z m-2931 -129 l-6 -51 -13 30 c-15 34 -17 77 -7 126 l6 33 13 -44 c8
-25 10 -63 7 -94z m66 107 c0 -25 -1 -25 -8 -8 -5 11 -7 23 -4 28 8 14 13 7
12 -20z m91 -7 c0 -15 -7 -26 -20 -29 -23 -6 -24 0 -10 38 12 30 30 25 30 -9z
m72 10 c5 4 8 -1 6 -10 -1 -10 -7 -16 -13 -16 -5 1 -12 -7 -16 -17 -7 -16 -8
-16 -8 4 -1 28 11 61 17 45 2 -7 8 -9 14 -6z m-297 -124 c-10 -24 -33 40 -33
93 l0 40 20 -58 c11 -32 17 -65 13 -75z m1175 113 c0 -8 -7 -15 -15 -15 -26 0
-18 20 13 29 1 1 2 -6 2 -14z m-1250 -88 c0 -43 -4 -66 -10 -62 -5 3 -10 41
-10 83 0 53 3 72 10 62 5 -8 10 -46 10 -83z m1056 -2 c0 -88 -5 -95 -25 -36
-14 42 -14 77 -1 102 20 36 26 19 26 -66z m-498 30 c1 -34 -2 -43 -12 -39 -8
3 -16 -2 -19 -13 -3 -10 -5 -1 -6 21 -1 31 2 37 15 32 9 -3 12 -2 9 5 -6 9 0
39 8 39 1 0 4 -20 5 -45z m549 23 c-3 -8 -6 -5 -6 6 -1 11 2 17 5 13 3 -3 4
-12 1 -19z m-907 -8 c0 -5 -4 -10 -10 -10 -5 0 -10 5 -10 10 0 6 5 10 10 10 6
0 10 -4 10 -10z m751 -120 c-8 -21 -10 -14 -10 36 -1 33 2 64 7 68 11 12 14
-77 3 -104z m296 78 c-3 -7 -5 -2 -5 12 0 14 2 19 5 13 2 -7 2 -19 0 -25z
m186 -33 c-9 -54 -28 -58 -27 -4 1 48 12 75 25 62 6 -6 7 -28 2 -58z m-68 33
c9 -43 9 -53 1 -111 -8 -65 -20 -67 -30 -6 -12 76 14 184 29 117z m-131 -138
c-7 -64 -7 -65 -20 -35 -14 32 -19 141 -7 171 13 36 34 -67 27 -136z m66 45
c0 -66 -13 -93 -24 -50 -8 33 4 126 15 119 5 -3 9 -34 9 -69z m-1179 -11 c5
-15 6 -36 3 -48 -7 -21 -7 -21 -15 -1 -9 23 -12 75 -4 75 3 0 10 -12 16 -26z
m919 -44 c0 -15 5 -31 11 -37 7 -7 5 -28 -9 -73 -24 -79 -32 -62 -32 73 0 91
1 99 15 81 8 -10 15 -30 15 -44z m-863 8 c-3 -8 -6 -5 -6 6 -1 11 2 17 5 13 3
-3 4 -12 1 -19z m994 -35 c-9 -16 -10 -16 -11 4 0 12 3 30 7 40 7 16 8 16 11
-4 2 -12 -1 -30 -7 -40z m282 -41 c-5 -35 -8 -41 -16 -27 -5 10 -6 41 -2 73 7
52 9 54 16 28 4 -16 5 -49 2 -74z m-899 36 c3 -18 0 -103 -8 -188 -12 -136
-14 -145 -15 -74 0 44 -4 129 -8 187 -5 94 -4 107 10 107 10 0 18 -12 21 -32z
m416 -3 c0 -19 -4 -35 -10 -35 -11 0 -14 53 -3 63 11 12 13 8 13 -28z m-115
-12 c-11 -58 -24 -75 -25 -31 0 43 8 68 22 68 6 0 8 -14 3 -37z m480 -81 l-8
-27 -13 30 c-12 28 -10 86 5 110 9 16 24 -83 16 -113z m-438 61 c-3 -10 -5 -2
-5 17 0 19 2 27 5 18 2 -10 2 -26 0 -35z m213 16 c0 -11 -4 -17 -10 -14 -5 3
-10 15 -10 26 0 11 5 17 10 14 6 -3 10 -15 10 -26z m-374 -43 c-4 -20 -11 -36
-15 -36 -15 0 -22 31 -15 67 6 31 8 33 22 20 10 -11 13 -25 8 -51z m539 -45
c-5 -32 -9 -40 -16 -30 -11 17 -12 123 -2 133 13 13 25 -56 18 -103z m-485 59
c0 -16 -4 -30 -10 -30 -5 0 -10 14 -10 30 0 17 5 30 10 30 6 0 10 -13 10 -30z
m425 -55 c5 -47 4 -57 -6 -48 -7 7 -14 38 -17 70 -6 78 14 59 23 -22z m-340
-31 c-4 -31 -10 -43 -17 -36 -6 6 -6 24 2 52 15 54 24 45 15 -16z m292 -1 c-3
-10 -5 -2 -5 17 0 19 2 27 5 18 2 -10 2 -26 0 -35z m-405 -38 c0 -20 -3 -39
-6 -42 -3 -4 -6 15 -6 42 0 27 3 46 6 42 3 -3 6 -22 6 -42z m58 28 c0 -10 -5
-25 -10 -33 -7 -11 -10 -7 -10 18 0 17 5 32 10 32 6 0 10 -8 10 -17z m237 -15
c-3 -8 -6 -5 -6 6 -1 11 2 17 5 13 3 -3 4 -12 1 -19z m-166 -61 c-8 -8 -11 -7
-11 4 0 20 13 34 18 19 3 -7 -1 -17 -7 -23z m-55 -24 c-10 -10 -19 5 -10 18 6
11 8 11 12 0 2 -7 1 -15 -2 -18z m-96 -23 c0 -5 -5 -10 -11 -10 -5 0 -7 5 -4
10 3 6 8 10 11 10 2 0 4 -4 4 -10z"/>
<path d="M1380 1451 c0 -6 4 -13 10 -16 6 -3 7 1 4 9 -7 18 -14 21 -14 7z"/>
<path d="M1179 2743 c-20 -5 -32 -40 -17 -49 13 -8 31 11 33 36 1 11 1 19 1
19 -1 -1 -8 -3 -17 -6z"/>
<path d="M1241 2718 c-10 -17 -11 -23 -2 -26 7 -2 21 -13 31 -24 l19 -20 26
21 27 21 -28 11 c-16 5 -36 17 -44 24 -14 12 -18 11 -29 -7z"/>
<path d="M1670 2604 c0 -8 5 -12 10 -9 6 3 10 10 10 16 0 5 -4 9 -10 9 -5 0
-10 -7 -10 -16z"/>
<path d="M2295 2590 c3 -5 8 -10 11 -10 2 0 4 5 4 10 0 6 -5 10 -11 10 -5 0
-7 -4 -4 -10z"/>
<path d="M4370 1969 c0 -5 5 -7 10 -4 6 3 10 8 10 11 0 2 -4 4 -10 4 -5 0 -10
-5 -10 -11z"/>
<path d="M4400 1971 c0 -5 9 -7 20 -4 11 3 20 7 20 9 0 2 -9 4 -20 4 -11 0
-20 -4 -20 -9z"/>
<path d="M2962 1888 c6 -18 28 -21 28 -4 0 9 -7 16 -16 16 -9 0 -14 -5 -12
-12z"/>
<path d="M2168 1713 c7 -3 16 -2 19 1 4 3 -2 6 -13 5 -11 0 -14 -3 -6 -6z"/>
<path d="M4986 1708 c-12 -38 -42 -188 -50 -248 -1 -14 -6 -45 -10 -70 -5 -32
-4 -41 3 -30 6 8 11 25 11 38 0 12 5 22 10 22 6 0 10 7 10 15 0 8 5 15 11 15
5 0 8 3 6 8 -3 4 4 57 14 117 10 61 18 118 19 128 0 19 -19 23 -24 5z"/>
<path d="M5116 1693 c3 -10 11 -66 18 -125 9 -76 9 -108 2 -108 -6 0 -3 -7 7
-14 9 -7 18 -26 18 -42 1 -16 5 -42 10 -59 6 -22 7 -11 5 38 -3 52 -1 67 10
67 16 0 19 26 4 32 -5 2 -17 53 -28 113 -14 83 -22 111 -34 113 -12 2 -15 -2
-12 -15z"/>
<path d="M4436 1673 c-20 -62 -56 -297 -47 -306 10 -10 14 0 26 75 3 21 11 37
17 35 8 -1 12 32 14 106 3 105 1 125 -10 90z"/>
<path d="M5545 1678 c-2 -7 -11 -58 -20 -113 -9 -55 -19 -103 -22 -108 -2 -4
-6 -31 -8 -60 -2 -29 -6 -64 -10 -79 -4 -17 -3 -28 3 -28 6 0 16 28 24 62 11
53 17 63 38 68 24 6 24 6 4 12 -21 5 -21 7 -8 94 8 49 18 106 23 127 7 30 6
37 -5 37 -8 0 -16 -6 -19 -12z"/>
<path d="M5694 1665 c9 -34 36 -187 36 -202 0 -6 -8 -14 -17 -16 -17 -4 -17
-5 0 -6 9 0 17 -5 17 -10 0 -5 -8 -11 -17 -14 -14 -3 -13 -6 9 -15 20 -8 29
-21 36 -54 l10 -43 1 52 c1 28 6 55 13 59 8 5 6 11 -6 19 -11 9 -21 43 -31
106 -22 139 -25 149 -42 149 -11 0 -14 -6 -9 -25z"/>
<path d="M2355 1636 c0 -15 7 -27 17 -29 16 -5 16 -3 2 24 -18 35 -19 36 -19
5z"/>
<path d="M2268 1622 c-32 -2 -58 -7 -58 -12 0 -16 98 -15 114 1 14 13 7 14
-56 11z"/>
<path d="M3700 1518 c0 -11 47 -10 55 1 3 5 -8 9 -25 9 -16 -1 -30 -5 -30 -10z"/>
<path d="M3321 1482 c-5 -10 -40 -28 -83 -41 -40 -12 -84 -27 -98 -31 -14 -5
-43 -11 -65 -15 -22 -4 -65 -15 -95 -26 -61 -21 -105 -26 -80 -8 13 9 13 10 0
6 -8 -2 -14 -10 -12 -17 1 -6 -9 -21 -23 -32 -15 -11 -31 -32 -36 -45 -5 -13
-12 -22 -17 -20 -4 3 -7 -23 -7 -56 l0 -62 -30 2 c-16 1 -41 2 -55 3 -35 3
-83 -5 -106 -18 -16 -10 -14 -11 19 -12 21 0 47 -5 58 -11 11 -6 38 -12 60
-14 63 -7 80 -27 37 -45 -17 -6 -18 -9 -6 -9 9 -1 19 -9 22 -19 3 -10 6 -108
6 -217 0 -110 1 -211 2 -224 2 -20 -6 -31 -42 -53 l-46 -28 -359 70 c-198 39
-376 75 -396 80 -54 15 -59 13 -58 -22 0 -33 0 -33 16 -11 23 33 33 28 33 -16
0 -22 4 -43 10 -46 10 -6 79 -22 240 -55 52 -11 169 -35 260 -55 90 -19 172
-35 182 -35 9 0 39 14 66 31 l50 31 107 -22 c59 -12 108 -20 111 -18 2 2 1 21
-3 41 -5 32 -10 37 -39 43 -19 3 -34 10 -34 14 0 4 16 20 35 34 33 26 46 62
28 80 -4 4 -6 48 -4 97 2 71 0 90 -10 84 -9 -6 -11 1 -7 31 3 21 3 130 -1 240
-5 160 -3 204 7 214 7 6 15 10 16 9 5 -6 29 -339 31 -424 1 -43 7 -81 12 -82
7 -3 9 -37 5 -92 -2 -49 -1 -91 4 -94 9 -5 101 49 156 92 14 12 32 21 40 21 7
0 21 8 29 18 9 9 30 24 46 33 l30 16 6 194 c4 107 10 209 13 227 6 31 9 33 37
26 43 -9 107 -11 102 -3 -3 3 -32 9 -65 13 -43 5 -60 11 -60 22 0 12 4 13 23
2 15 -9 69 -13 167 -13 l145 0 9 53 c5 29 7 54 5 56 -6 6 -200 29 -236 28 -29
0 -33 3 -33 25 l0 26 80 -7 c188 -17 202 -17 198 -4 -3 9 -35 15 -94 20 -49 3
-110 9 -135 12 -42 6 -47 4 -54 -16 -9 -24 -12 -42 -14 -69 -1 -15 -49 -45
-58 -36 -2 3 -1 23 3 45 5 33 12 43 35 51 16 5 29 12 29 15 0 8 -62 36 -81 36
-10 0 -23 -8 -28 -18z m-40 -109 c-8 -15 -10 -15 -11 -2 0 17 10 32 18 25 2
-3 -1 -13 -7 -23z m-50 -20 c-10 -17 -10 -16 -11 3 0 23 13 41 18 25 2 -6 -1
-18 -7 -28z m-51 3 c0 -3 -4 -8 -10 -11 -5 -3 -10 -1 -10 4 0 6 5 11 10 11 6
0 10 -2 10 -4z m60 -156 l-11 -25 6 25 c2 14 5 34 6 45 2 19 2 19 6 0 2 -12
-1 -32 -7 -45z m-105 -47 c-10 -68 -17 -44 -8 28 4 35 9 53 11 40 2 -13 1 -44
-3 -68z m52 15 c-2 -13 -4 -3 -4 22 0 25 2 35 4 23 2 -13 2 -33 0 -45z m-310
10 c-3 -8 -6 -5 -6 6 -1 11 2 17 5 13 3 -3 4 -12 1 -19z m207 -70 c-9 -59 -14
-60 -14 -5 0 26 5 47 10 47 6 0 8 -16 4 -42z m111 -103 c-3 -26 -9 -44 -12
-41 -3 3 -2 26 2 51 3 26 9 44 12 41 3 -3 2 -26 -2 -51z m-50 -32 c-10 -42
-18 -18 -9 29 6 32 9 37 12 19 2 -12 1 -34 -3 -48z m-55 -40 c-9 -15 -10 -12
-6 16 3 18 7 41 8 50 0 9 3 1 5 -16 2 -18 -1 -41 -7 -50z m220 7 c0 -54 -12
-110 -21 -104 -10 6 -12 147 -2 157 11 12 23 -16 23 -53z m-447 -141 c-8 -8
-9 37 -3 136 4 51 5 46 7 -34 2 -52 0 -98 -4 -102z m58 58 c-7 -61 -16 -145
-18 -184 -3 -40 -8 -73 -12 -73 -3 0 -3 37 1 83 3 45 7 123 7 172 1 104 8 142
24 126 8 -8 7 -44 -2 -124z m126 71 c-3 -8 -6 -5 -6 6 -1 11 2 17 5 13 3 -3 4
-12 1 -19z m206 -118 c-14 -14 -15 -12 -9 19 3 18 6 41 7 50 1 9 5 0 9 -19 7
-27 5 -39 -7 -50z m-142 9 c-9 -22 -10 -22 -10 -3 -1 11 2 24 6 27 12 12 14 0
4 -24z m36 9 c-3 -8 -6 -5 -6 6 -1 11 2 17 5 13 3 -3 4 -12 1 -19z m59 -45
c-10 -26 -18 -8 -9 23 5 21 8 24 11 11 2 -10 1 -25 -2 -34z m-139 5 c-3 -8 -6
-5 -6 6 -1 11 2 17 5 13 3 -3 4 -12 1 -19z m60 -50 c-3 -8 -6 -5 -6 6 -1 11 2
17 5 13 3 -3 4 -12 1 -19z"/>
<path d="M3773 1494 c-27 -11 -11 -24 28 -24 28 0 39 4 37 13 -5 13 -44 19
-65 11z"/>
<path d="M3744 1448 c-11 -17 6 -23 50 -20 25 2 44 8 41 12 -7 11 -85 18 -91
8z"/>
<path d="M5598 1453 c7 -3 16 -2 19 1 4 3 -2 6 -13 5 -11 0 -14 -3 -6 -6z"/>
<path d="M5675 1450 c3 -5 8 -10 11 -10 2 0 4 5 4 10 0 6 -5 10 -11 10 -5 0
-7 -4 -4 -10z"/>
<path d="M4430 1395 c0 -8 5 -15 10 -15 6 0 10 7 10 15 0 8 -4 15 -10 15 -5 0
-10 -7 -10 -15z"/>
<path d="M2755 1370 c-3 -5 1 -10 9 -10 9 0 16 5 16 10 0 6 -4 10 -9 10 -6 0
-13 -4 -16 -10z"/>
<path d="M3737 1373 c-4 -3 -7 -24 -7 -45 l0 -39 53 30 c71 39 74 61 9 61 -27
0 -52 -3 -55 -7z"/>
<path d="M2474 1348 c-3 -11 -3 -22 0 -25 3 -4 6 -1 6 5 0 7 6 12 14 12 23 0
28 17 6 23 -13 3 -21 -1 -26 -15z"/>
<path d="M2848 1353 c7 -3 16 -2 19 1 4 3 -2 6 -13 5 -11 0 -14 -3 -6 -6z"/>
<path d="M2550 1292 c0 -11 37 -32 44 -25 8 9 -14 33 -30 33 -8 0 -14 -3 -14
-8z"/>
<path d="M2437 1251 c-17 -41 -15 -71 2 -42 7 11 9 11 13 0 10 -28 15 -3 9 41
l-6 45 -18 -44z"/>
<path d="M2720 1250 c0 -12 7 -20 18 -20 9 0 27 -3 40 -6 13 -4 22 -2 22 5 0
6 -9 11 -19 11 -10 0 -21 7 -25 15 -8 22 -36 18 -36 -5z"/>
<path d="M2670 1250 c0 -5 7 -10 16 -10 8 0 12 5 9 10 -3 6 -10 10 -16 10 -5
0 -9 -4 -9 -10z"/>
<path d="M3543 1233 c9 -2 25 -2 35 0 9 3 1 5 -18 5 -19 0 -27 -2 -17 -5z"/>
<path d="M2468 1184 c-11 -10 15 -31 34 -27 10 3 22 -4 30 -16 7 -12 23 -21
38 -21 22 1 23 2 8 11 -10 5 -18 19 -18 29 0 15 -7 19 -27 18 -16 -1 -35 2
-44 6 -8 3 -18 4 -21 0z"/>
<path d="M2520 1075 c-15 -18 -5 -35 21 -35 22 0 25 16 5 35 -12 12 -16 12
-26 0z"/>
<path d="M2660 1055 c-10 -12 -9 -15 6 -16 18 0 18 -1 0 -8 -16 -6 -11 -10 24
-19 47 -12 67 -7 51 11 -5 7 -9 16 -9 20 0 5 -3 11 -6 15 -3 3 -6 -1 -6 -8 0
-10 -5 -9 -18 3 -23 21 -26 21 -42 2z"/>
<path d="M411 884 c-118 -29 -216 -56 -219 -59 -16 -16 16 -11 128 20 69 18
169 44 222 57 54 12 98 26 98 31 0 9 14 12 -229 -49z"/>
<path d="M1120 838 c0 -4 11 -8 24 -8 13 0 31 -3 40 -6 10 -4 16 -1 16 9 0 12
-10 16 -40 14 -22 -1 -40 -5 -40 -9z"/>
<path d="M1289 377 c-66 -55 -81 -65 -194 -120 -144 -71 -360 -143 -458 -154
-29 -3 -58 -10 -65 -16 -7 -6 -40 -10 -72 -10 -33 1 -60 -3 -60 -9 0 -5 -3 -7
-7 -5 -5 3 -54 0 -111 -7 -56 -7 -104 -10 -107 -8 -3 3 -5 20 -5 39 0 20 -5
33 -12 32 -7 0 -53 -15 -103 -33 -80 -29 -90 -35 -93 -59 l-3 -27 655 0 656 0
18 37 c50 99 58 236 20 336 -13 33 -25 34 -59 4z"/>
<path d="M6216 273 c-3 -3 -6 -31 -6 -62 1 -51 2 -54 15 -37 25 32 16 124 -9
99z"/>
<path d="M6444 266 c-4 -11 -1 -21 7 -27 17 -11 26 18 10 34 -7 7 -12 5 -17
-7z"/>
<path d="M6267 194 c-90 -69 -109 -94 -71 -94 10 0 14 -13 14 -50 0 -38 4 -50
15 -50 12 0 15 14 15 68 l0 68 80 58 c44 33 80 63 80 67 0 23 -44 1 -133 -67z"/>
<path d="M6726 164 c-9 -22 -7 -54 2 -54 4 0 9 16 10 35 3 37 -2 45 -12 19z"/>
<path d="M6824 165 c13 -10 17 -22 14 -40 -4 -16 -1 -24 6 -22 16 5 20 46 6
63 -7 7 -20 14 -29 14 -14 -1 -13 -3 3 -15z"/>
<path d="M18 163 c-10 -2 -18 -9 -18 -14 0 -12 2 -12 41 6 33 14 18 19 -23 8z"/>
<path d="M6440 86 l0 -86 77 0 c42 0 73 3 69 7 -4 5 -31 8 -59 8 l-52 0 -5 74
c-3 47 -10 76 -17 79 -10 3 -13 -18 -13 -82z"/>
<path d="M6661 148 c-10 -26 -4 -39 8 -19 7 11 11 10 19 -5 16 -28 25 -11 11
20 -15 32 -27 33 -38 4z"/>
<path d="M6792 140 c0 -14 2 -19 5 -12 2 6 2 18 0 25 -3 6 -5 1 -5 -13z"/>
<path d="M6750 131 c0 -6 4 -13 10 -16 6 -3 7 1 4 9 -7 18 -14 21 -14 7z"/>
<path d="M6250 97 c0 -23 96 -99 119 -95 16 2 9 12 -38 53 -66 56 -81 63 -81
42z"/>
<path d="M6720 43 c0 -13 -3 -14 -12 -5 -19 19 -26 14 -21 -12 7 -36 43 -31
43 6 0 15 -2 28 -5 28 -3 0 -5 -8 -5 -17z"/>
<path d="M6920 43 c0 -15 -2 -16 -10 -3 -12 19 -21 9 -14 -16 4 -13 15 -21 35
-22 16 -1 29 2 29 7 0 5 3 16 6 25 3 9 1 16 -5 16 -6 0 -10 -5 -8 -11 1 -6 -4
-14 -12 -17 -10 -3 -12 0 -8 11 3 9 2 19 -3 22 -6 4 -10 -2 -10 -12z"/>
<path d="M6640 23 c0 -14 3 -23 7 -19 10 10 11 46 1 46 -4 0 -8 -12 -8 -27z"/>
<path d="M6776 34 c-8 -22 -7 -34 3 -34 5 0 9 11 9 25 0 29 -3 31 -12 9z"/>
<path d="M6842 20 c0 -14 2 -19 5 -12 2 6 2 18 0 25 -3 6 -5 1 -5 -13z"/>
</g>
</svg>
