<?xml version="1.0" standalone="no"?>
<!DOCTYPE svg PUBLIC "-//W3C//DTD SVG 20010904//EN"
 "http://www.w3.org/TR/2001/REC-SVG-20010904/DTD/svg10.dtd">
<svg version="1.0" xmlns="http://www.w3.org/2000/svg"
 width="1024.000000pt" height="576.000000pt" viewBox="0 0 1024.000000 576.000000"
 preserveAspectRatio="xMidYMid meet">

<g transform="translate(0.000000,576.000000) scale(0.100000,-0.100000)"
fill="#000000" stroke="none">
<path d="M0 5675 c0 -70 3 -86 18 -94 16 -9 16 -10 0 -16 -17 -7 -18 -91 -18
-1426 l0 -1419 350 0 c343 0 448 6 805 45 72 8 186 19 255 25 69 6 129 16 135
21 13 13 43 11 48 -3 3 -10 11 -10 38 -1 19 6 73 14 122 18 l87 7 0 627 c0
346 -4 631 -7 635 -4 4 -8 16 -10 28 -3 17 -1 19 12 8 8 -7 15 -9 15 -5 0 5 9
0 19 -9 19 -17 21 -17 50 0 29 17 54 60 54 91 0 11 7 13 31 8 17 -4 39 -8 49
-8 9 -1 20 -9 23 -19 3 -10 10 -18 16 -18 5 0 8 -7 4 -15 -3 -9 0 -15 10 -15
11 0 13 -6 8 -22 -6 -20 -5 -21 10 -9 9 7 16 22 16 32 0 10 4 20 9 23 9 6 8
26 -4 96 l-7 40 41 0 c22 0 43 5 47 12 5 8 2 9 -11 4 -15 -5 -16 -4 -5 9 7 9
19 14 26 11 36 -14 27 139 -13 213 -53 99 -60 110 -65 105 -3 -3 -19 9 -36 26
-17 16 -40 30 -51 30 -12 0 -21 4 -21 9 0 11 -53 23 -107 24 -32 1 -44 5 -49
19 -3 10 -10 18 -15 18 -5 0 -9 10 -9 23 0 12 -9 36 -20 54 -17 29 -17 31 -2
26 15 -6 15 -5 -1 14 -17 20 -17 21 4 26 19 5 20 8 9 21 -8 10 -8 16 -2 16 6
0 14 -4 17 -10 3 -5 10 -10 15 -10 6 0 2 16 -7 35 -9 19 -22 35 -28 35 -7 0
-19 8 -29 19 -11 12 -25 16 -41 13 -30 -5 -33 -22 -5 -22 11 0 20 -5 20 -11 0
-6 -9 -9 -19 -6 -26 7 -56 -24 -39 -41 15 -15 32 -16 23 -2 -3 6 -1 10 5 10 7
0 9 -7 6 -16 -3 -9 -6 -23 -6 -31 0 -13 -4 -13 -27 2 -52 35 -153 38 -187 6
-27 -25 -43 -15 -41 24 1 17 -2 46 -6 65 -13 61 -17 110 -9 110 7 0 36 -97 42
-144 2 -11 8 -21 14 -23 15 -5 27 27 15 41 -5 6 -10 22 -10 36 -1 48 -6 78
-13 86 -12 11 -10 26 2 19 13 -8 13 21 0 45 -8 15 -6 21 9 30 13 7 22 7 26 0
3 -5 -1 -10 -10 -10 -10 0 -15 -7 -13 -17 4 -23 23 -27 41 -8 24 23 3 71 -46
106 -35 26 -42 27 -56 15 -12 -11 -21 -12 -34 -4 -14 8 -23 4 -43 -17 -13 -14
-24 -30 -24 -34 0 -4 -9 -18 -20 -31 -24 -28 -25 -40 -4 -40 15 0 15 -2 1 -23
-15 -23 -15 -24 11 -20 24 4 25 3 8 -8 -15 -9 -16 -13 -5 -21 11 -8 10 -8 -4
-4 -10 3 -27 1 -38 -4 -19 -11 -22 -9 -62 26 -10 9 -19 8 -38 -2 l-24 -14 26
6 c28 6 48 -9 28 -22 -8 -5 -9 -3 -4 6 5 9 4 11 -4 6 -16 -10 -4 -26 21 -26
20 0 21 -1 3 -20 -10 -11 -13 -20 -7 -20 6 0 9 -7 6 -15 -5 -12 0 -14 27 -9
l34 5 -31 -14 c-36 -17 -52 -37 -30 -37 10 0 13 -6 10 -15 -4 -10 0 -15 14
-15 26 0 33 -29 13 -55 -9 -11 -12 -17 -7 -13 5 5 14 -2 21 -15 6 -12 19 -21
28 -21 9 1 17 -4 17 -11 0 -7 4 -15 10 -17 6 -2 6 -9 0 -18 -7 -11 -12 -12
-21 -3 -13 13 -69 -2 -69 -20 0 -6 -9 -1 -20 11 -22 23 -26 37 -8 26 7 -5 8
-3 4 5 -5 7 -11 10 -14 7 -3 -3 -14 1 -24 11 -12 10 -18 12 -18 4 0 -7 -5 -9
-10 -6 -7 4 -9 -3 -5 -22 6 -27 6 -27 -9 -9 -9 11 -16 16 -16 11 0 -5 -13 4
-30 20 -32 31 -41 25 -12 -9 l17 -21 -23 19 c-20 17 -112 31 -112 17 0 -2 8
-14 17 -25 15 -18 14 -18 -8 2 -27 23 -45 29 -33 11 5 -8 1 -8 -14 0 -15 8
-23 8 -28 -1 -5 -7 -3 -8 6 -3 8 5 11 4 6 -3 -4 -6 -13 -9 -20 -6 -8 3 -17 1
-21 -5 -10 -17 -36 -13 -33 5 2 9 -8 23 -22 31 -23 14 -24 14 -6 -1 17 -13 17
-16 4 -16 -9 0 -20 9 -23 20 -4 12 -15 20 -28 20 -20 1 -21 2 -5 14 10 7 15
16 11 19 -3 4 -1 7 5 7 6 0 14 -4 17 -10 3 -5 11 -10 16 -10 6 0 7 5 4 10 -3
6 1 10 10 10 9 0 13 -5 10 -10 -4 -6 7 -13 24 -16 17 -4 28 -10 26 -15 -3 -4
0 -11 5 -14 17 -11 51 26 44 47 -3 12 0 18 10 18 23 0 20 17 -4 25 -11 3 -20
14 -20 23 0 12 3 13 12 4 7 -7 16 -12 22 -12 5 0 1 7 -10 15 -16 13 -17 16 -4
25 13 8 13 10 -2 10 -21 0 -24 16 -5 23 7 3 5 6 -6 6 -10 1 -20 -6 -23 -14 -5
-13 -9 -13 -26 -1 -11 8 -27 12 -34 9 -21 -8 -17 8 8 34 l21 23 -27 0 c-20 0
-27 5 -25 18 3 30 -1 43 -10 38 -5 -3 -7 -16 -4 -27 4 -15 2 -20 -6 -18 -7 3
-12 8 -12 12 1 4 1 13 1 21 0 17 33 32 38 17 2 -5 10 -7 19 -4 12 5 14 3 8 -7
-6 -10 -4 -12 8 -7 9 3 19 2 22 -3 9 -15 96 -9 102 7 3 7 10 13 16 13 7 0 7
-4 -1 -12 -9 -9 -8 -16 5 -30 9 -10 21 -18 27 -18 6 0 3 7 -7 15 -18 13 -18
14 3 35 21 21 21 23 4 41 -9 10 -15 21 -12 24 2 3 17 -8 31 -25 35 -39 54 -39
55 0 0 17 -4 30 -9 30 -6 0 -7 5 -4 10 3 6 0 13 -8 16 -8 3 -17 14 -20 25 -7
26 -34 34 -62 19 -13 -7 -30 -10 -39 -7 -10 4 -13 1 -9 -9 4 -11 -1 -14 -21
-10 -14 2 -30 7 -36 11 -12 7 -14 35 -2 35 4 0 8 9 9 20 1 14 -12 28 -41 45
-49 29 -76 32 -76 9 0 -8 -5 -12 -10 -9 -6 4 -8 16 -5 28 2 12 2 16 -1 10 -10
-23 -54 -15 -64 12 -8 21 -14 24 -40 19 -21 -5 -31 -2 -36 9 -4 10 -17 14 -47
13 -23 -2 -45 2 -50 8 -5 7 -11 5 -18 -7 -6 -9 -14 -15 -20 -12 -5 4 -9 1 -9
-5 0 -6 -4 -8 -10 -5 -12 7 -14 26 -2 24 24 -4 34 3 29 20 -6 23 29 37 37 14
3 -8 11 -11 17 -8 5 4 8 10 5 13 -3 3 -1 11 4 17 7 9 5 17 -7 26 -11 9 -14 10
-9 2 4 -8 1 -13 -8 -13 -9 0 -16 7 -16 16 0 8 -4 12 -10 9 -14 -9 -13 8 2 23
9 9 7 12 -9 12 -12 0 -29 7 -37 16 -9 8 -16 12 -16 7 0 -5 5 -14 12 -21 15
-15 3 -16 -23 -1 -11 5 -17 14 -14 19 3 5 0 12 -6 16 -6 4 -16 -1 -21 -10 -10
-18 -53 -22 -63 -6 -4 6 -12 7 -18 3 -7 -4 -26 -8 -43 -9 -25 -1 -34 4 -43 24
-12 24 -11 25 21 17 55 -12 73 -12 80 -1 4 6 8 0 8 -14 0 -23 1 -24 18 -7 16
17 16 19 -3 33 -12 9 -21 11 -23 4 -5 -14 -22 -13 -22 3 1 30 17 40 49 29 18
-7 29 -7 26 -2 -4 6 2 10 13 10 24 0 56 35 47 50 -5 9 0 8 16 -1 22 -11 23
-11 10 4 -22 27 -56 22 -57 -9 -2 -32 -3 -33 -39 -27 -18 3 -35 13 -40 25 -12
26 -29 25 -33 -2 -2 -11 -7 -20 -12 -20 -5 0 -7 7 -3 16 3 9 0 20 -8 24 -7 5
-89 9 -181 9 l-168 0 0 -84z m263 65 c7 0 7 -3 2 -9 -6 -5 -23 -7 -38 -4 -21
4 -25 8 -15 14 7 5 19 7 26 4 8 -3 19 -5 25 -5z m-188 -30 c3 -5 1 -10 -4 -10
-6 0 -11 5 -11 10 0 6 2 10 4 10 3 0 8 -4 11 -10z m162 -16 c1 -5 -1 -15 -6
-23 -8 -12 -12 -12 -25 -2 -12 10 -13 16 -3 26 13 15 29 15 34 -1z m-83 -3 c3
-4 3 -11 0 -14 -8 -8 -34 3 -34 14 0 11 27 12 34 0z m202 -39 c-11 -10 -15 4
-8 28 l7 25 3 -23 c2 -13 1 -26 -2 -30z m-86 8 c-7 -4 -9 -13 -6 -19 5 -7 -1
-11 -16 -11 -18 0 -20 2 -8 10 8 5 11 12 7 16 -4 4 1 13 11 20 11 8 18 9 21 2
2 -6 -2 -14 -9 -18z m-175 0 c13 -6 15 -9 5 -9 -8 0 -22 4 -30 9 -18 12 -2 12
25 0z m89 -6 c4 -10 1 -14 -6 -12 -15 5 -23 28 -10 28 5 0 13 -7 16 -16z m-34
-4 c0 -5 -4 -10 -10 -10 -5 0 -10 5 -10 10 0 6 5 10 10 10 6 0 10 -4 10 -10z
m20 -70 c0 -5 -2 -10 -4 -10 -3 0 -8 5 -11 10 -3 6 -1 10 4 10 6 0 11 -4 11
-10z m327 -6 c2 -5 -5 -10 -16 -10 -11 0 -17 5 -14 14 6 14 25 12 30 -4z
m-255 -6 c-8 -8 -9 -15 -1 -25 13 -15 33 -18 24 -3 -3 6 1 10 10 10 9 0 13 -4
10 -10 -3 -5 -1 -10 4 -10 6 0 11 5 11 11 0 5 4 7 10 4 13 -8 -10 -45 -28 -45
-7 0 -10 -4 -7 -10 3 -5 -1 -10 -9 -10 -9 0 -16 7 -16 15 0 7 -6 18 -12 22 -7
4 -22 18 -32 31 -16 18 -16 22 -4 17 9 -4 19 -2 23 4 3 6 11 11 18 11 8 0 8
-3 -1 -12z m198 2 c0 -5 -4 -10 -9 -10 -6 0 -13 5 -16 10 -3 6 1 10 9 10 9 0
16 -4 16 -10z m-364 -19 c5 1 20 -2 33 -8 39 -16 0 -24 -48 -10 -35 11 -38 14
-23 23 10 7 19 8 23 2 3 -5 10 -8 15 -7z m374 -11 c0 -5 -2 -10 -4 -10 -3 0
-8 5 -11 10 -3 6 -1 10 4 10 6 0 11 -4 11 -10z m-85 -11 c11 -17 -1 -21 -15
-4 -8 9 -8 15 -2 15 6 0 14 -5 17 -11z m161 -37 c-2 -1 -17 0 -32 4 l-29 8 25
6 c21 5 46 -7 36 -18z m-63 4 c20 -5 40 -13 44 -19 4 -6 0 -8 -8 -5 -51 19
-59 19 -60 1 -1 -10 -1 -22 0 -27 1 -5 -4 -4 -12 3 -8 6 -19 11 -23 10 -21 -3
-35 2 -29 11 3 6 3 10 -2 10 -4 0 -18 3 -30 6 -17 5 -23 2 -23 -10 0 -10 -4
-14 -10 -11 -6 4 -6 12 1 23 12 19 84 23 152 8z m40 -108 c-7 -17 -9 -14 -10
18 -1 31 1 35 9 20 6 -11 7 -26 1 -38z m154 -3 c-7 -17 -37 -21 -37 -4 0 5 5
7 10 4 6 -3 13 1 16 10 4 9 9 14 11 11 3 -3 3 -12 0 -21z m66 2 c7 3 8 2 4 -2
-12 -14 -41 -15 -49 -2 -11 19 2 28 18 12 9 -8 21 -12 27 -8z m15 -50 c2 -12
-1 -15 -12 -11 -19 7 -22 38 -3 32 6 -3 13 -12 15 -21z m127 -17 c3 -6 -5 -10
-19 -10 -18 0 -24 5 -23 19 1 15 5 17 19 10 9 -5 20 -14 23 -19z m69 17 c14
-11 16 -18 9 -31 -9 -16 -11 -16 -16 -2 -4 9 -13 13 -21 10 -8 -3 -19 3 -26
15 -9 19 -8 21 13 21 13 0 31 -6 41 -13z m-104 -43 c0 -2 -7 -4 -15 -4 -8 0
-15 4 -15 10 0 5 7 7 15 4 8 -4 15 -8 15 -10z m-455 -23 c-6 -5 -25 10 -25 20
0 5 6 4 14 -3 8 -7 12 -15 11 -17z m237 11 c15 -6 14 -8 -7 -18 -13 -7 -29 -8
-37 -3 -10 7 -9 9 5 9 10 0 15 5 12 10 -7 11 2 12 27 2z m-258 -21 c3 -5 -1
-11 -9 -15 -15 -6 -29 7 -18 18 9 9 21 8 27 -3z m1216 -8 c0 -15 -26 -18 -35
-3 -4 6 -11 8 -16 5 -5 -4 -9 -2 -9 4 0 5 14 9 30 9 18 -1 30 -6 30 -15z
m-1153 -26 c4 -7 0 -8 -11 -4 -10 4 -22 7 -27 7 -5 0 -9 4 -9 9 0 12 38 2 47
-12z m536 -7 c8 -29 -6 -32 -20 -4 -9 19 -8 24 2 24 7 0 15 -9 18 -20z m57
-11 c0 -11 -4 -18 -10 -14 -5 3 -7 12 -3 20 7 21 13 19 13 -6z m489 -31 c0
-33 -2 -38 -9 -23 -12 28 -12 65 0 65 6 0 10 -19 9 -42z m-62 6 c-3 -3 -12 -4
-19 -1 -8 3 -5 6 6 6 11 1 17 -2 13 -5z m-490 -26 c-3 -8 -6 -5 -6 6 -1 11 2
17 5 13 3 -3 4 -12 1 -19z m58 0 c-10 -31 -25 -47 -25 -26 0 9 5 20 10 23 6 4
8 11 5 16 -4 5 -1 9 5 9 7 0 9 -8 5 -22z m-195 -18 c0 -5 -7 -7 -15 -4 -8 4
-12 10 -9 15 6 11 24 2 24 -11z m107 -166 c-3 -3 -12 -4 -19 -1 -8 3 -5 6 6 6
11 1 17 -2 13 -5z m53 -8 c0 -8 -4 -17 -9 -20 -10 -7 -23 19 -14 28 11 11 23
6 23 -8z m-205 -16 c3 -5 1 -10 -4 -10 -6 0 -11 5 -11 10 0 6 2 10 4 10 3 0 8
-4 11 -10z m670 0 c-8 -13 -65 -43 -71 -37 -5 5 56 47 69 47 5 0 5 -5 2 -10z
m206 -28 c-23 -32 -51 -58 -51 -47 0 10 53 73 63 74 5 1 -1 -12 -12 -27z
m-1113 -24 c2 -12 -3 -18 -16 -18 -22 0 -46 23 -35 34 13 13 48 1 51 -16z
m102 -8 c0 -5 -9 -10 -21 -10 -11 0 -17 5 -14 10 3 6 13 10 21 10 8 0 14 -4
14 -10z m-290 -4 c0 -2 -7 -9 -15 -16 -12 -10 -15 -10 -15 4 0 9 7 16 15 16 8
0 15 -2 15 -4z m463 -34 c10 -10 14 -21 11 -25 -10 -10 -44 12 -44 28 0 20 13
19 33 -3z m827 -13 c-7 -11 -14 -18 -17 -15 -3 3 0 12 7 21 18 21 23 19 10 -6z
m-1170 5 c0 -8 -32 -33 -42 -34 -5 0 -8 9 -8 20 0 15 7 20 25 20 14 0 25 -3
25 -6z m100 -24 c0 -5 -4 -10 -10 -10 -5 0 -10 5 -10 10 0 6 5 10 10 10 6 0
10 -4 10 -10z m-445 -26 c-23 -17 -32 -10 -15 11 7 8 17 12 23 8 6 -4 3 -11
-8 -19z m58 19 c-7 -2 -19 -2 -25 0 -7 3 -2 5 12 5 14 0 19 -2 13 -5z m1083
-20 c-7 -7 -26 7 -26 19 0 6 6 6 15 -2 9 -7 13 -15 11 -17z m374 0 c0 -7 -7
-13 -15 -13 -8 0 -15 6 -15 13 0 8 7 14 15 14 8 0 15 -6 15 -14z m-1044 -24
c3 -6 11 -5 20 2 7 6 21 8 31 5 15 -6 15 -8 1 -22 -12 -13 -21 -13 -61 -2 -27
7 -47 18 -47 26 0 10 -3 10 -16 -2 -17 -18 -27 -19 -73 -10 -17 4 -28 10 -25
15 2 5 17 6 32 3 15 -3 38 -1 52 4 26 10 75 -1 86 -19z m1129 13 c-11 -9 -27
-26 -35 -37 -13 -17 -13 -18 0 -13 12 4 16 -1 17 -21 0 -14 -1 -18 -4 -8 -4
16 -19 22 -55 19 -24 -2 -32 30 -11 46 15 11 18 11 21 -2 5 -21 9 -20 44 9 16
14 33 25 36 25 4 -1 -2 -8 -13 -18z m-1595 -31 c0 -10 -3 -11 -13 -3 -8 7 -18
7 -27 2 -20 -13 -32 -2 -20 20 8 15 13 17 35 7 14 -7 25 -18 25 -26z m273 18
c-7 -7 -20 -8 -34 -3 -23 8 -23 8 6 14 35 7 43 4 28 -11z m642 -17 c-8 -8 -25
10 -19 20 4 6 9 5 15 -3 4 -7 6 -15 4 -17z m-875 14 c0 -3 -4 -8 -10 -11 -5
-3 -10 -1 -10 4 0 6 5 11 10 11 6 0 10 -2 10 -4z m210 -25 c0 -5 -7 -11 -14
-14 -10 -4 -13 -1 -9 9 6 15 23 19 23 5z m1461 -14 c-10 -9 -11 -8 -5 6 3 10
9 15 12 12 3 -3 0 -11 -7 -18z m-571 9 c0 -3 -4 -8 -10 -11 -5 -3 -10 -1 -10
4 0 6 5 11 10 11 6 0 10 -2 10 -4z m492 -45 c-3 -8 -1 -12 5 -8 7 4 10 -3 9
-18 -1 -30 -12 -33 -21 -5 -3 11 -14 20 -23 21 -10 0 -12 3 -5 6 9 3 10 10 3
23 -9 16 -7 17 14 7 14 -7 22 -17 18 -26z m-1508 1 c2 -4 1 -14 -5 -22 -5 -9
-9 -10 -9 -4 0 7 -7 11 -16 10 -9 0 -19 5 -21 12 -5 13 42 18 51 4z m434 -11
c12 -11 22 -22 22 -25 0 -11 -49 17 -54 30 -7 19 5 17 32 -5z m582 -13 c0 -5
-4 -8 -10 -8 -5 0 -10 10 -10 23 0 18 2 19 10 7 5 -8 10 -18 10 -22z m-854
-11 c3 -21 -23 -30 -47 -17 -24 13 -24 26 -2 39 21 11 46 0 49 -22z m384 23
c0 -5 -7 -10 -16 -10 -8 0 -12 5 -9 10 3 6 10 10 16 10 5 0 9 -4 9 -10z m50
-20 c0 -5 -12 -10 -26 -10 -14 0 -23 4 -19 10 3 6 15 10 26 10 10 0 19 -4 19
-10z m485 0 c-3 -5 -11 -10 -16 -10 -6 0 -7 5 -4 10 3 6 11 10 16 10 6 0 7 -4
4 -10z m546 -6 c9 -8 25 -16 36 -17 11 0 19 -8 19 -19 0 -22 2 -22 -26 2 -27
24 -55 27 -47 5 9 -21 -10 -28 -22 -8 -5 10 -13 15 -17 11 -4 -4 -1 -14 6 -23
7 -9 10 -19 6 -22 -12 -12 -27 20 -21 45 3 12 1 22 -5 22 -5 0 -10 5 -10 10 0
16 62 12 81 -6z m-601 -13 c0 -5 -11 -8 -24 -7 -13 0 -22 4 -19 9 6 10 43 9
43 -2z m515 -31 c3 -11 12 -26 19 -33 11 -10 11 -15 0 -25 -10 -9 -17 -6 -33
17 -12 16 -18 36 -15 45 8 22 21 20 29 -4z m-1545 -24 c0 -25 -15 -37 -37 -28
-16 5 -17 24 -1 40 20 20 38 14 38 -12z m1650 14 c0 -5 -4 -10 -10 -10 -5 0
-10 5 -10 10 0 6 5 10 10 10 6 0 10 -4 10 -10z m100 -12 c0 -19 -2 -20 -10 -8
-13 19 -13 30 0 30 6 0 10 -10 10 -22z m43 -17 c3 -14 0 -19 -13 -18 -14 1
-16 4 -6 19 13 22 13 22 19 -1z m-988 -1 c3 -6 -1 -7 -9 -4 -18 7 -21 14 -7
14 6 0 13 -4 16 -10z m-959 -37 c-10 -10 -19 5 -10 18 6 11 8 11 12 0 2 -7 1
-15 -2 -18z m494 17 c0 -5 -4 -10 -10 -10 -5 0 -10 5 -10 10 0 6 5 10 10 10 6
0 10 -4 10 -10z m1511 -10 c6 0 7 -5 3 -11 -4 -8 0 -9 15 -4 15 4 21 2 21 -9
0 -27 22 -65 42 -72 10 -3 16 -10 12 -15 -3 -5 -10 -7 -15 -4 -5 4 -9 1 -9 -4
0 -6 4 -11 9 -11 18 0 22 -34 6 -47 -10 -6 -15 -16 -12 -20 3 -5 -2 -14 -12
-20 -16 -10 -24 -4 -59 47 -31 46 -41 69 -42 107 -4 69 -2 76 16 69 9 -3 20
-6 25 -6z m-1277 -91 c-6 -11 -24 -2 -24 11 0 5 7 7 15 4 8 -4 12 -10 9 -15z
m-401 5 c11 -11 -5 -34 -24 -34 -21 0 -26 25 -6 33 17 8 23 8 30 1z m565 -21
c16 -16 16 -16 -4 -11 -15 4 -21 1 -20 -10 0 -8 -6 -17 -14 -20 -8 -3 -12 -1
-8 3 4 5 3 15 -4 22 -9 11 -9 17 3 24 20 13 28 11 47 -8z m957 -43 c3 -6 -1
-7 -9 -4 -18 7 -21 14 -7 14 6 0 13 -4 16 -10z m-1115 -41 c0 -6 -4 -7 -10 -4
-5 3 -10 11 -10 16 0 6 5 7 10 4 6 -3 10 -11 10 -16z m520 6 c0 -8 -4 -15 -9
-15 -5 0 -14 7 -21 15 -10 13 -9 15 9 15 12 0 21 -6 21 -15z m-455 -5 c3 -5 1
-10 -4 -10 -6 0 -11 5 -11 10 0 6 2 10 4 10 3 0 8 -4 11 -10z m1095 0 c0 -5
-5 -10 -11 -10 -5 0 -7 5 -4 10 3 6 8 10 11 10 2 0 4 -4 4 -10z m-1073 -37
c-9 -9 -19 -14 -22 -11 -3 3 1 12 9 21 8 8 14 17 12 20 -2 2 2 1 8 -4 7 -6 5
-15 -7 -26z m1057 -6 c4 4 4 0 1 -8 -3 -9 -1 -28 5 -44 9 -25 9 -26 -5 -15
-11 9 -18 10 -29 1 -10 -8 -16 -9 -21 -1 -3 5 1 10 9 10 18 0 22 45 6 55 -5 3
-10 11 -10 17 0 6 8 4 18 -5 10 -10 22 -14 26 -10z m-737 -9 c-3 -8 -6 -5 -6
6 -1 11 2 17 5 13 3 -3 4 -12 1 -19z m473 -8 c0 -5 -5 -10 -11 -10 -5 0 -7 5
-4 10 3 6 8 10 11 10 2 0 4 -4 4 -10z m-710 -19 c0 -9 -24 -21 -41 -21 -5 0
-9 7 -9 15 0 9 9 15 25 15 14 0 25 -4 25 -9z m542 -54 c4 -6 4 -15 2 -19 -8
-13 -31 -9 -38 7 -3 8 -12 12 -21 9 -8 -3 -15 -2 -15 4 0 23 57 22 72 -1z
m-1302 -31 c0 -7 -9 -16 -20 -19 -19 -5 -28 12 -13 26 11 12 33 7 33 -7z m464
2 c13 -13 10 -48 -5 -48 -9 0 -39 40 -39 52 0 12 29 9 44 -4z m1426 2 c-19
-13 -30 -13 -30 0 0 6 10 10 23 10 18 0 19 -2 7 -10z m-952 -102 c-3 -7 -11
-13 -18 -13 -7 0 -15 6 -17 13 -3 7 4 12 17 12 13 0 20 -5 18 -12z m217 -8 c0
-22 -29 -18 -33 3 -3 14 1 18 15 15 10 -2 18 -10 18 -18z m-645 -35 c11 -13 8
-15 -14 -15 -16 0 -26 5 -26 15 0 8 6 15 14 15 7 0 19 -7 26 -15z m-116 -31
c17 -7 23 -74 7 -74 -11 0 -26 19 -34 43 -5 13 -3 16 6 11 8 -5 7 -2 -2 9 -14
18 -5 22 23 11z m1030 -9 c4 -10 -1 -15 -14 -15 -11 0 -20 7 -20 15 0 8 6 15
14 15 8 0 16 -7 20 -15z m4 -48 c2 -12 -3 -17 -17 -17 -12 0 -21 6 -21 13 0
31 32 34 38 4z m-34 -82 c16 -12 17 -15 4 -15 -9 0 -18 5 -20 11 -3 9 -10 9
-26 0 -12 -7 -22 -8 -22 -2 0 9 17 19 35 20 6 0 19 -6 29 -14z m-1510 -11 c18
-7 21 -30 6 -39 -14 -9 -50 13 -50 30 0 16 18 19 44 9z m1492 -35 c3 -5 -6 -5
-19 0 -14 6 -28 7 -33 3 -4 -4 -4 -2 -1 5 7 12 44 7 53 -8z m208 -27 c-6 -4
-14 -14 -17 -22 -4 -10 -6 -8 -6 7 -1 12 5 23 12 26 16 6 24 -2 11 -11z m-247
2 c-3 -3 -12 -4 -19 -1 -8 3 -5 6 6 6 11 1 17 -2 13 -5z m43 -4 c0 -5 -7 -7
-15 -4 -8 4 -15 8 -15 10 0 2 7 4 15 4 8 0 15 -4 15 -10z m-20 -14 c0 -2 -9
-6 -20 -9 -11 -3 -20 -1 -20 4 0 5 9 9 20 9 11 0 20 -2 20 -4z m-272 -18 c-3
-7 -11 -13 -18 -13 -7 0 -15 6 -17 13 -3 7 4 12 17 12 13 0 20 -5 18 -12z
m-1154 -14 c11 -28 6 -34 -19 -22 -19 9 -22 14 -14 25 15 17 26 17 33 -3z
m1439 -51 c3 -5 -9 -9 -26 -10 -26 -1 -28 0 -12 7 26 11 33 12 38 3z m107 -43
c0 -5 -4 -10 -10 -10 -5 0 -10 5 -10 10 0 6 5 10 10 10 6 0 10 -4 10 -10z
m-1050 -26 c0 -12 -6 -15 -22 -10 -13 3 -27 6 -31 6 -5 0 -5 5 -2 10 10 17 55
12 55 -6z m-300 -10 c0 -14 -3 -15 -17 -3 -10 7 -20 15 -22 16 -2 2 5 3 17 3
14 0 22 -6 22 -16z m1255 -5 c5 -5 1 -9 -12 -9 -29 0 -53 10 -53 22 0 12 50 2
65 -13z m-261 -4 c-6 -16 -24 -21 -24 -7 0 11 11 22 21 22 5 0 6 -7 3 -15z
m-84 -20 c0 -8 -7 -15 -16 -15 -14 0 -14 3 -4 15 7 8 14 15 16 15 2 0 4 -7 4
-15z m335 -16 c-4 -5 -12 -9 -18 -8 -9 0 -8 2 1 6 6 2 9 10 6 15 -4 7 -2 8 5
4 6 -4 9 -12 6 -17z m-45 -33 c0 -3 -4 -8 -10 -11 -5 -3 -10 -1 -10 4 0 6 5
11 10 11 6 0 10 -2 10 -4z m-220 -16 c0 -5 -7 -10 -16 -10 -8 0 -12 5 -9 10 3
6 10 10 16 10 5 0 9 -4 9 -10z m277 4 c-3 -3 -12 -4 -19 -1 -8 3 -5 6 6 6 11
1 17 -2 13 -5z m-17 -50 c0 -2 -7 -4 -15 -4 -8 0 -15 4 -15 10 0 5 7 7 15 4 8
-4 15 -8 15 -10z m-15 -34 c-3 -5 -10 -10 -16 -10 -5 0 -9 5 -9 10 0 6 7 10
16 10 8 0 12 -4 9 -10z m-845 -14 c0 -2 3 -12 6 -21 5 -13 2 -16 -17 -13 -31
4 -39 38 -10 38 12 0 21 -2 21 -4z m856 -92 c19 5 25 3 22 -6 -6 -18 -69 -23
-79 -7 -11 19 0 32 17 18 8 -6 25 -8 40 -5z m144 -4 c0 -5 -10 -10 -22 -10
-19 0 -20 2 -8 10 19 13 30 13 30 0z m-395 -19 c3 -5 1 -12 -5 -16 -5 -3 -10
0 -10 7 0 9 -3 9 -10 -2 -8 -13 -10 -12 -10 3 0 18 25 24 35 8z m259 -17 c9
-3 16 -11 16 -16 0 -7 -4 -7 -12 0 -8 5 -22 6 -33 1 -27 -11 -35 -11 -35 0 0
8 15 15 42 20 3 0 13 -2 22 -5z m-1344 -38 c0 -7 -6 -19 -14 -25 -11 -9 -18
-8 -31 5 -13 14 -14 19 -3 25 20 13 48 10 48 -5z m280 0 c0 -19 -17 -29 -37
-22 -12 5 -13 9 -3 21 16 19 40 19 40 1z m1053 -3 c-7 -3 -9 -11 -6 -19 4 -10
-2 -14 -22 -14 -14 0 -24 4 -20 9 3 5 0 13 -7 17 -9 6 -5 10 12 14 26 7 64 0
43 -7z m-7 -50 c-3 -4 -17 -8 -29 -10 -17 -2 -19 -1 -7 7 17 11 47 14 36 3z
m24 -53 c-8 -5 -22 -10 -30 -10 -13 0 -13 1 0 10 8 5 22 10 30 10 13 0 13 -1
0 -10z m-40 -30 c-19 -13 -30 -13 -30 0 0 6 10 10 23 10 18 0 19 -2 7 -10z
m37 -40 c13 0 23 -4 23 -8 0 -5 -22 -8 -50 -8 -27 1 -50 4 -50 9 0 4 7 7 15 7
8 0 15 5 15 12 0 9 3 9 12 0 7 -7 22 -12 35 -12z m-567 -19 c0 -11 -40 -22
-52 -15 -5 3 -6 10 -3 15 8 12 55 12 55 0z m60 -1 c0 -5 -5 -10 -11 -10 -5 0
-7 5 -4 10 3 6 8 10 11 10 2 0 4 -4 4 -10z m470 -19 c0 -5 -9 -7 -20 -4 -11 3
-20 7 -20 9 0 2 9 4 20 4 11 0 20 -4 20 -9z m40 -11 c12 -7 10 -9 -8 -7 -12 0
-22 5 -22 9 0 11 12 10 30 -2z m-20 -39 c0 -13 -37 -24 -50 -16 -6 4 -8 11 -5
16 8 12 55 12 55 0z m-1103 -63 c-3 -8 -6 -5 -6 6 -1 11 2 17 5 13 3 -3 4 -12
1 -19z m1133 6 c0 -2 -9 -4 -20 -4 -11 0 -20 4 -20 9 0 5 9 7 20 4 11 -3 20
-7 20 -9z m-52 -20 c2 -14 -3 -20 -18 -21 -11 -1 -20 2 -20 8 0 5 8 9 18 10
10 0 12 3 5 6 -7 2 -13 9 -13 15 0 18 25 2 28 -18z m-5 -92 c-18 -5 -27 3 -18
17 4 7 10 7 20 -2 11 -10 11 -13 -2 -15z m-1043 -21 c0 -6 -4 -13 -10 -16 -5
-3 -10 1 -10 9 0 9 5 16 10 16 6 0 10 -4 10 -9z"/>
<path d="M430 5745 c17 -20 40 -19 40 3 0 15 -2 15 -11 2 -8 -11 -12 -12 -16
-2 -2 6 -9 12 -15 12 -6 0 -6 -6 2 -15z"/>
<path d="M9215 5750 c3 -5 10 -10 16 -10 5 0 9 5 9 10 0 6 -7 10 -16 10 -8 0
-12 -4 -9 -10z"/>
<path d="M9270 5756 c0 -3 7 -12 16 -21 9 -9 14 -19 10 -22 -3 -4 -13 2 -20
13 -8 10 -18 16 -22 11 -4 -4 1 -13 11 -21 12 -9 16 -19 11 -32 -6 -15 -9 -16
-16 -4 -6 10 -11 5 -18 -21 -10 -32 -10 -32 -11 -6 -1 31 -16 36 -24 7 -5 -21
-45 -25 -59 -5 -5 6 -8 6 -8 -1 0 -7 -7 -15 -16 -18 -8 -3 -13 -2 -10 3 3 5
-8 11 -24 13 -20 3 -30 0 -30 -8 0 -7 -5 -16 -11 -19 -6 -4 -9 0 -7 11 2 14
-5 18 -34 21 -25 3 -38 0 -38 -7 0 -8 10 -10 25 -8 29 6 31 0 10 -28 -14 -19
-14 -19 -15 1 -1 11 -4 15 -6 8 -3 -7 -12 -9 -20 -6 -8 3 -14 -1 -14 -8 0 -7
-3 -9 -7 -6 -3 4 -12 2 -20 -5 -13 -10 -25 -12 -95 -16 -17 -1 -29 -9 -33 -22
-4 -11 -11 -18 -16 -15 -5 4 -14 -6 -21 -20 -8 -18 -17 -25 -30 -22 -10 3 -16
1 -13 -3 3 -5 -2 -13 -11 -18 -15 -8 -15 -10 0 -15 8 -3 41 3 73 14 71 24 237
30 331 11 88 -18 282 -116 282 -143 0 -5 -10 -9 -22 -10 -22 0 -22 -1 -3 -9
17 -7 14 -9 -14 -9 -29 -1 -32 -3 -21 -16 9 -11 9 -15 1 -15 -7 0 -9 -4 -6
-10 3 -5 17 -10 30 -10 13 0 27 -5 31 -11 5 -9 -11 -10 -60 -5 -50 6 -66 5
-66 -5 0 -8 -6 -5 -13 6 -8 10 -19 15 -25 11 -7 -4 -12 -2 -12 4 0 7 -6 10
-14 7 -7 -3 -23 1 -35 9 -11 8 -21 11 -21 6 0 -10 -13 -9 -105 5 -42 7 -187 8
-260 2 -28 -2 -108 -25 -131 -37 -11 -6 -46 -19 -79 -28 -33 -10 -66 -24 -73
-31 -7 -7 -20 -13 -27 -13 -21 0 -65 -22 -60 -30 2 -4 -21 -18 -52 -31 -57
-24 -146 -89 -122 -89 7 0 21 8 31 17 14 12 21 14 26 6 5 -8 32 5 82 38 129
87 374 148 500 125 32 -6 62 -15 67 -20 5 -5 1 -7 -9 -3 -9 3 -22 -1 -28 -9
-11 -12 -5 -13 36 -6 101 15 186 9 237 -18 39 -20 45 -26 30 -31 -17 -7 -17
-8 2 -8 17 -1 18 -2 4 -17 -9 -8 -34 -15 -57 -16 -23 0 -42 -4 -42 -9 0 -17
-39 -9 -43 9 -3 10 -5 6 -6 -11 -1 -23 -4 -27 -24 -22 -13 4 -43 -1 -68 -9
-24 -9 -69 -16 -99 -17 -30 -1 -45 -4 -32 -6 12 -2 22 -8 22 -13 0 -7 -126
-40 -156 -40 -8 0 -13 -5 -11 -12 1 -6 -7 -14 -18 -16 -11 -2 -24 -8 -30 -14
-6 -6 -3 -7 10 -2 13 5 17 4 10 -3 -5 -5 -30 -15 -54 -22 -28 -8 -40 -16 -32
-21 9 -5 8 -9 -5 -14 -10 -4 -21 -1 -26 6 -7 12 -12 4 -9 -15 1 -4 -7 -10 -16
-14 -10 -4 -20 -9 -23 -13 -7 -8 -58 -40 -65 -40 -3 0 -5 5 -5 10 0 6 6 10 13
10 23 0 36 34 21 55 -18 24 -29 13 -14 -14 9 -18 8 -21 -8 -21 -25 0 -48 -26
-30 -33 10 -4 10 -6 1 -6 -7 -1 -13 -8 -13 -16 0 -8 -6 -15 -12 -15 -9 0 -8
-4 2 -10 13 -9 13 -11 0 -20 -22 -14 -27 -12 -35 13 -7 21 -7 21 -12 2 -9 -40
-26 -66 -35 -53 -5 8 -6 1 -2 -16 5 -19 3 -27 -3 -23 -6 4 -16 0 -23 -8 -11
-13 9 -15 163 -15 120 0 177 -4 179 -11 2 -6 2 -26 0 -45 l-4 -34 -2188 0
c-1746 0 -2189 -3 -2193 -13 -2 -6 -4 -118 -4 -247 l1 -235 -387 -3 -387 -2 0
-735 0 -735 367 0 367 0 53 32 53 32 0 648 c0 449 3 648 11 648 5 0 7 5 4 10
-3 6 -1 10 4 10 10 0 16 -43 12 -77 -1 -7 3 -13 9 -13 5 0 10 4 10 9 0 5 7 12
16 15 19 7 8 -14 -17 -32 -20 -14 -17 -32 15 -75 18 -25 19 -33 9 -94 -8 -46
-9 -72 -1 -86 5 -11 6 -17 0 -13 -5 3 -12 -21 -15 -57 -4 -34 -9 -73 -13 -87
-5 -24 -5 -24 10 -6 9 11 16 28 16 38 0 10 5 18 10 18 12 0 12 3 0 -40 -9 -32
-8 -33 5 -16 18 24 18 21 0 -29 -16 -46 -21 -97 -5 -57 5 12 11 22 12 22 6 0
-2 -145 -8 -160 -9 -21 -4 -84 7 -88 5 -2 9 -11 9 -20 0 -15 -2 -15 -11 -2 -8
11 -9 9 -3 -10 4 -14 8 -38 10 -55 1 -16 3 -34 4 -40 1 -5 2 -12 1 -15 -3 -6
-11 -135 -11 -167 0 -13 -4 -23 -8 -23 -10 0 -46 -159 -38 -167 6 -6 7 -3 24
57 9 31 9 29 7 -25 -2 -33 1 -66 7 -72 17 -21 0 -57 -42 -87 -22 -17 -39 -37
-39 -45 1 -12 2 -12 6 2 2 9 9 15 14 11 6 -3 16 0 24 6 8 6 19 9 24 6 5 -4 12
-2 16 4 3 5 25 10 48 11 23 1 53 5 67 9 l25 8 -25 2 c-89 7 312 36 458 33 12
-1 22 3 22 7 0 4 27 6 60 5 41 -2 60 0 60 8 0 7 4 6 9 -3 8 -12 17 -12 64 3
29 9 59 17 66 17 7 0 18 6 26 13 8 8 38 15 72 16 32 1 66 4 75 7 9 3 31 -2 48
-11 17 -9 35 -13 41 -10 5 4 139 9 297 12 257 4 291 2 327 -13 42 -18 48 -19
103 -22 22 -1 31 -6 26 -13 -5 -8 1 -10 20 -7 14 3 26 2 26 -3 0 -4 35 -10 78
-14 42 -4 88 -13 102 -20 14 -7 50 -16 80 -20 34 -5 61 -15 71 -26 9 -11 23
-19 31 -19 8 0 19 -5 25 -11 9 -9 98 -27 158 -32 11 -1 23 -6 27 -12 5 -6 8
-4 8 5 0 9 3 11 8 4 12 -17 252 -34 487 -34 225 0 455 17 419 31 -14 6 -9 8
18 8 45 1 74 11 59 20 -7 5 -1 17 16 33 l28 25 125 -18 c69 -10 148 -22 175
-28 90 -17 133 -22 105 -12 l-25 9 28 1 c27 1 36 -12 17 -24 -26 -16 -5 -27
115 -56 28 -7 74 -23 104 -37 29 -13 91 -35 136 -47 82 -23 84 -23 104 -4 11
10 25 19 32 19 8 0 9 4 0 13 -6 8 -9 16 -6 19 3 3 -1 11 -10 18 -8 7 -15 18
-15 25 0 8 -5 15 -11 17 -6 2 5 10 25 18 29 11 36 19 35 39 0 14 -3 20 -6 14
-6 -16 -33 -17 -33 -3 0 6 10 14 22 19 20 7 20 8 3 15 -10 4 -21 2 -24 -3 -4
-6 -12 -6 -20 -2 -8 5 -10 14 -6 21 7 12 -10 30 -30 30 -5 0 -3 -5 5 -10 13
-8 12 -10 -2 -10 -10 0 -18 3 -18 8 0 4 -11 8 -25 8 -44 3 -59 12 -45 29 19
22 -22 60 -63 58 -29 -2 -30 -1 -7 6 l25 7 -28 7 c-15 4 -32 5 -36 3 -10 -6
-21 75 -21 152 l0 52 40 0 c40 0 46 8 39 56 -1 10 24 24 41 23 10 0 8 -3 -5
-8 -19 -8 -19 -8 3 -20 14 -7 22 -8 22 -1 0 5 4 10 9 10 4 0 6 -10 4 -22 -5
-25 37 -62 45 -39 2 6 8 11 13 11 6 0 8 -4 4 -9 -8 -13 96 -25 150 -17 28 5
45 3 45 -3 0 -13 103 -11 113 3 5 8 10 7 16 -3 5 -7 13 -11 19 -7 5 3 27 -1
47 -10 24 -10 55 -14 86 -11 27 3 51 1 55 -4 3 -5 10 -6 16 -3 6 4 5 10 -3 15
-10 6 -8 9 8 9 15 0 21 -5 17 -14 -9 -24 171 -37 195 -13 9 8 12 8 7 0 -7 -12
54 -11 87 2 23 9 48 -1 42 -17 -3 -8 4 -14 17 -15 13 -1 86 -8 163 -16 111
-10 143 -11 152 -1 10 10 10 13 0 18 -6 3 8 4 32 2 23 -2 47 -9 52 -17 6 -9
12 -10 17 -4 4 6 17 16 30 23 19 11 22 10 22 -7 0 -20 17 -31 38 -24 6 3 12
13 12 24 0 11 7 19 18 19 15 0 15 -2 2 -11 -12 -8 -11 -10 5 -7 20 3 20 12 23
476 1 332 -1 479 -9 494 -8 15 -8 19 0 14 8 -5 11 271 11 1004 l0 1010 -207
-2 -208 -3 -3 -27 c-3 -29 -21 -39 -23 -13 -1 8 -2 21 -3 28 -1 9 -51 13 -207
15 -205 2 -206 2 -217 -20 l-11 -23 0 25 c-1 20 -3 22 -12 10 -8 -11 -12 -12
-16 -2 -4 11 -63 18 -63 8z m43 -79 c7 3 8 2 4 -2 -14 -16 -36 -14 -29 3 4 10
7 12 10 4 2 -7 9 -9 15 -5z m8 -44 c-12 -20 -14 -14 -5 12 4 9 9 14 11 11 3
-2 0 -13 -6 -23z m33 2 c-4 -8 -8 -15 -10 -15 -2 0 -4 7 -4 15 0 8 4 15 10 15
5 0 7 -7 4 -15z m17 -28 c-8 -8 -11 -7 -11 4 0 9 3 19 7 23 4 4 9 2 11 -4 3
-7 -1 -17 -7 -23z m-384 -49 c-3 -7 -5 -2 -5 12 0 14 2 19 5 13 2 -7 2 -19 0
-25z m76 2 c-3 -11 -7 -20 -9 -20 -2 0 -4 9 -4 20 0 11 4 20 9 20 5 0 7 -9 4
-20z m32 -9 c0 -16 -3 -27 -7 -24 -5 2 -8 15 -8 29 0 13 3 24 8 24 4 0 7 -13
7 -29z m45 22 c-1 -5 -7 -19 -14 -32 -11 -19 -14 -21 -19 -7 -8 21 2 46 19 46
8 0 14 -3 14 -7z m-221 -33 c15 -22 15 -23 -6 -12 -11 6 -23 19 -27 28 -9 23
14 12 33 -16z m232 -7 c-10 -17 -10 -16 -11 3 0 23 13 41 18 25 2 -6 -1 -18
-7 -28z m-272 5 c12 -15 11 -18 -3 -18 -10 0 -16 8 -16 22 0 12 1 19 3 17 1
-2 9 -12 16 -21z m155 6 c4 -9 4 -19 2 -21 -8 -8 -26 8 -26 23 0 19 16 18 24
-2z m171 -4 c-3 -5 -10 -10 -16 -10 -5 0 -9 5 -9 10 0 6 7 10 16 10 8 0 12 -4
9 -10z m42 -42 c-3 -7 -5 -2 -5 12 0 14 2 19 5 13 2 -7 2 -19 0 -25z m-256
-229 c11 -6 27 -8 34 -5 9 3 12 0 8 -10 -4 -12 -21 -13 -97 -8 -112 9 -162 9
-201 1 -75 -15 -110 -18 -94 -8 9 6 48 15 85 21 38 6 87 15 109 19 47 11 128
5 156 -10z m106 -5 c-3 -3 -12 -4 -19 -1 -8 3 -5 6 6 6 11 1 17 -2 13 -5z
m603 -24 c0 -5 -5 -10 -11 -10 -5 0 -7 5 -4 10 3 6 8 10 11 10 2 0 4 -4 4 -10z
m-275 -160 c-3 -5 -10 -10 -16 -10 -5 0 -9 5 -9 10 0 6 7 10 16 10 8 0 12 -4
9 -10z m-35 -17 c0 -5 -4 -15 -10 -23 -11 -18 -25 -7 -17 15 6 15 27 21 27 8z
m-425 -93 c3 -5 1 -10 -4 -10 -6 0 -11 5 -11 10 0 6 2 10 4 10 3 0 8 -4 11
-10z m-17 -21 c25 -20 25 -21 5 -15 -24 8 -33 -9 -10 -17 6 -2 0 -4 -15 -4
-30 -1 -35 6 -16 25 9 9 8 12 -7 12 -17 0 -18 2 -5 10 20 13 18 13 48 -11z
m-60 -27 c2 -7 -6 -12 -21 -12 -14 0 -34 -3 -44 -7 -16 -6 -16 -5 -5 10 8 8
20 13 28 10 8 -3 14 0 14 7 0 14 22 8 28 -8z m-208 -24 c0 -7 -11 -14 -25 -14
-14 -1 -25 0 -25 2 0 4 33 20 48 23 1 1 2 -5 2 -11z m115 -20 c-11 -6 -23 -16
-27 -22 -5 -7 -8 -7 -8 -1 0 6 -4 3 -10 -5 -5 -8 -12 -11 -16 -7 -10 10 14 35
39 40 39 8 42 7 22 -5z m-175 -17 c0 -5 -9 -11 -20 -14 -20 -5 -26 3 -13 16 9
10 33 8 33 -2z m-105 -70 c-3 -6 -11 -11 -17 -11 -6 0 -6 6 2 15 14 17 26 13
15 -4z m-35 -31 c0 -5 -5 -10 -11 -10 -5 0 -7 5 -4 10 3 6 8 10 11 10 2 0 4
-4 4 -10z m1497 -192 c-3 -8 -6 -5 -6 6 -1 11 2 17 5 13 3 -3 4 -12 1 -19z
m34 -12 c5 3 9 0 9 -6 0 -15 -23 -7 -26 8 -1 7 0 8 3 2 2 -5 9 -8 14 -4z m-7
-47 c-6 -11 -24 -2 -24 11 0 5 7 7 15 4 8 -4 12 -10 9 -15z m-1197 -25 c-3 -3
-12 -4 -19 -1 -8 3 -5 6 6 6 11 1 17 -2 13 -5z m-97 -24 c0 -5 -2 -10 -4 -10
-3 0 -8 5 -11 10 -3 6 -1 10 4 10 6 0 11 -4 11 -10z m-12 -195 c-3 -3 -9 2
-12 12 -6 14 -5 15 5 6 7 -7 10 -15 7 -18z m522 1 c0 -3 -4 -8 -10 -11 -5 -3
-10 -1 -10 4 0 6 5 11 10 11 6 0 10 -2 10 -4z m358 -8 c-3 -7 -15 -14 -29 -16
-24 -4 -24 -3 -4 12 24 19 38 20 33 4z m-788 -22 c0 -3 -4 -8 -10 -11 -5 -3
-10 -1 -10 4 0 6 5 11 10 11 6 0 10 -2 10 -4z m810 -6 c-20 -13 -33 -13 -25 0
3 6 14 10 23 10 15 0 15 -2 2 -10z m220 -209 c0 -14 -18 -23 -30 -16 -6 4 -8
11 -5 16 8 12 35 12 35 0z m-4515 -58 c-16 -115 -26 -143 -47 -143 -18 0 -20
4 -15 38 4 20 9 63 13 95 6 52 9 57 32 57 23 0 24 -2 17 -47z m3755 -23 c0 -5
-4 -10 -10 -10 -5 0 -10 5 -10 10 0 6 5 10 10 10 6 0 10 -4 10 -10z m-4694
-117 c-10 -10 -19 5 -10 18 6 11 8 11 12 0 2 -7 1 -15 -2 -18z m31 -55 c-3 -7
-5 -2 -5 12 0 14 2 19 5 13 2 -7 2 -19 0 -25z m2901 -220 c-4 -271 -22 -269
-26 2 -2 175 0 200 13 200 13 0 15 -26 13 -202z m-2921 0 c-3 -8 -6 -5 -6 6
-1 11 2 17 5 13 3 -3 4 -12 1 -19z m4518 4 c-3 -3 -11 0 -18 7 -9 10 -8 11 6
5 10 -3 15 -9 12 -12z m-1917 -139 c-16 -2 -40 -2 -55 0 -16 2 -3 4 27 4 30 0
43 -2 28 -4z m-2401 -531 c-1 -97 -2 -17 -2 178 0 195 1 275 2 177 2 -97 2
-257 0 -355z m2418 498 c4 -6 -13 -10 -45 -10 -28 0 -49 3 -47 8 8 11 85 14
92 2z m218 -7 c-7 -2 -19 -2 -25 0 -7 3 -2 5 12 5 14 0 19 -2 13 -5z m-203
-32 c3 -1 -2 -6 -10 -11 -21 -14 -117 -12 -126 2 -4 7 -3 8 4 4 7 -4 12 -3 12
2 0 8 95 10 120 3z m165 -11 c3 -5 -1 -10 -10 -10 -12 0 -15 -6 -10 -20 5 -16
2 -20 -14 -20 -12 0 -21 6 -22 13 0 10 -2 10 -6 0 -2 -7 -20 -13 -38 -13 -37
0 -49 17 -29 41 16 18 119 26 129 9z m120 -78 c0 -34 3 -62 8 -62 4 0 6 -4 2
-9 -3 -6 25 -13 65 -17 38 -3 78 -13 87 -20 15 -11 3 -13 -87 -13 -58 0 -114
4 -125 8 -19 8 -19 8 3 15 24 8 25 13 22 110 -1 44 2 57 12 54 9 -3 13 -24 13
-66z m-75 41 c0 -14 -26 -18 -34 -4 -7 11 0 18 19 18 8 0 15 -6 15 -14z m-40
-43 c0 -5 -4 -10 -10 -10 -5 0 -10 5 -10 10 0 6 5 10 10 10 6 0 10 -4 10 -10z
m40 0 c0 -5 -2 -10 -4 -10 -3 0 -8 5 -11 10 -3 6 -1 10 4 10 6 0 11 -4 11 -10z
m2737 -6 c-3 -3 -12 -4 -19 -1 -8 3 -5 6 6 6 11 1 17 -2 13 -5z m-2759 -42 c2
-7 -5 -12 -17 -12 -14 0 -19 5 -14 15 6 17 25 15 31 -3z m-41 -28 c-3 -3 -12
-4 -19 -1 -8 3 -5 6 6 6 11 1 17 -2 13 -5z m-67 -146 c0 -9 -171 2 -190 13
-15 8 -2 10 87 13 17 1 34 4 38 8 7 7 65 -23 65 -34z m480 19 l85 -12 -133 -3
c-101 -2 -131 -6 -126 -15 5 -9 4 -9 -7 1 -9 8 -53 12 -142 12 -117 0 -174 10
-163 28 7 11 394 3 486 -11z m2370 3 l23 -20 -22 0 c-12 0 -19 4 -16 10 3 6
-1 10 -10 10 -9 0 -13 5 -10 10 8 13 8 13 35 -10z m-44 -5 c9 -8 11 -15 6 -15
-5 0 -15 7 -22 15 -7 8 -9 15 -6 15 4 0 14 -7 22 -15z m-3056 -35 c0 -5 -2
-10 -4 -10 -3 0 -8 5 -11 10 -3 6 -1 10 4 10 6 0 11 -4 11 -10z m448 -15 c-3
-3 -9 2 -12 12 -6 14 -5 15 5 6 7 -7 10 -15 7 -18z m2607 4 c4 -6 14 -8 24 -4
12 5 13 3 5 -5 -14 -14 -46 -10 -52 8 -5 15 14 16 23 1z m-2958 -5 c29 -4 50
-11 47 -16 -7 -11 -115 0 -128 13 -12 11 9 11 81 3z m150 0 c-3 -3 -12 -4 -19
-1 -8 3 -5 6 6 6 11 1 17 -2 13 -5z m655 -27 c14 -21 8 -27 -24 -26 -18 0 -27
3 -20 6 19 8 14 23 -8 23 -11 0 -20 -5 -20 -10 0 -6 -7 -6 -19 2 -15 9 -22 8
-36 -5 -9 -9 -22 -17 -28 -16 -9 0 -8 2 1 6 19 8 14 23 -8 23 -11 0 -20 -5
-20 -11 0 -8 -4 -8 -12 -1 -18 14 -101 13 -110 -1 -6 -9 -8 -9 -8 1 0 6 -9 12
-20 12 -11 0 -20 -5 -20 -11 0 -8 -4 -8 -12 -1 -15 11 -97 11 -115 -1 -8 -5
-13 -4 -13 2 0 6 -11 11 -25 11 -18 0 -23 -4 -19 -15 5 -11 -1 -15 -20 -15
-19 0 -26 5 -26 20 0 19 8 20 213 22 268 4 360 0 369 -15z m108 19 c0 -3 -4
-8 -10 -11 -5 -3 -10 -1 -10 4 0 6 5 11 10 11 6 0 10 -2 10 -4z m-555 -46 c-4
-6 17 -10 55 -10 38 0 59 4 55 10 -3 6 -1 10 4 10 6 0 11 -4 11 -10 0 -5 23
-10 50 -10 28 0 50 5 50 10 0 6 5 10 11 10 5 0 7 -4 4 -10 -4 -6 15 -10 50
-10 35 0 54 4 50 10 -3 6 -1 10 4 10 6 0 11 -4 11 -10 0 -5 23 -10 51 -10 50
0 51 -1 46 -26 -4 -20 -1 -24 12 -18 37 15 57 14 78 -3 l22 -19 -29 -17 c-15
-9 -39 -17 -52 -17 -14 0 -25 -6 -25 -12 0 -8 13 -13 31 -13 30 0 31 -2 36
-47 3 -27 2 -48 -2 -48 -4 0 -8 7 -8 16 0 10 -6 14 -14 11 -7 -3 -19 0 -26 6
-10 10 -11 6 -8 -16 4 -22 3 -25 -8 -16 -7 6 -12 16 -11 22 2 13 -68 25 -150
26 -28 1 -55 5 -58 11 -7 11 39 25 58 17 7 -2 30 -1 52 3 32 6 23 8 -49 9 -75
1 -87 -1 -82 -14 5 -13 -3 -14 -52 -9 -31 3 -62 7 -68 9 -7 2 -37 0 -67 -4
-50 -7 -56 -5 -61 12 -4 15 -12 18 -48 16 -35 -3 -43 0 -46 15 -3 13 -10 16
-25 12 -11 -3 -26 -1 -32 4 -6 5 -53 11 -105 14 -88 5 -95 7 -107 30 -15 30
-3 42 27 26 13 -7 20 -7 20 0 0 5 8 10 18 10 15 0 15 -2 2 -11 -12 -9 -11 -9
5 -3 11 4 27 7 35 7 32 1 171 -14 187 -20 15 -5 16 -3 6 8 -22 22 -15 29 32
29 25 0 45 5 45 10 0 6 5 10 11 10 5 0 7 -4 4 -10z m2637 -16 c-12 -8 -30 -14
-40 -11 -14 3 -12 6 8 15 39 17 58 15 32 -4z m28 -14 c-8 -5 -19 -10 -25 -10
-5 0 -3 5 5 10 8 5 20 10 25 10 6 0 3 -5 -5 -10z m-48 -32 c9 -1 14 -6 12 -10
-8 -12 -46 -9 -79 7 l-30 15 40 -5 c22 -3 48 -6 57 -7z m-3064 -43 c14 -20 35
-36 53 -40 20 -5 29 -13 29 -26 0 -18 -6 -20 -67 -16 l-68 3 -14 43 c-12 37
-11 44 4 61 21 23 34 19 63 -25z m996 -9 c-7 -17 -34 -22 -34 -6 0 6 7 10 15
10 8 0 15 5 15 12 0 6 2 9 5 6 3 -3 3 -13 -1 -22z m2159 10 c4 -10 1 -13 -8
-9 -8 3 -12 9 -9 14 7 12 11 11 17 -5z m-73 -16 c0 -5 -6 -10 -14 -10 -8 0
-16 -5 -18 -11 -2 -6 -11 -7 -22 -3 -16 6 -13 9 15 19 19 7 35 13 37 14 1 0 2
-3 2 -9z m-2687 -27 c-7 -2 -19 -2 -25 0 -7 3 -2 5 12 5 14 0 19 -2 13 -5z m7
-38 c0 -17 -6 -25 -17 -25 -12 0 -14 -3 -7 -8 9 -5 8 -11 -2 -20 -9 -8 -14 -9
-14 -2 0 6 -4 9 -9 6 -5 -4 -4 5 2 18 6 13 17 21 24 19 8 -3 13 3 13 16 0 12
2 21 5 21 3 0 5 -11 5 -25z m2623 8 c-7 -2 -21 -2 -30 0 -10 3 -4 5 12 5 17 0
24 -2 18 -5z m-2680 -16 c-2 -4 -5 -7 -8 -7 -3 0 -9 0 -15 0 -5 0 -10 4 -10 9
0 5 8 8 18 7 9 -2 16 -6 15 -9z m220 -11 c73 3 152 1 177 -4 34 -8 3 -10 -134
-9 -136 2 -180 5 -182 15 -1 7 0 8 3 2 3 -6 52 -8 136 -4z m-1164 -65 c28 -18
-700 -29 -1121 -17 -50 1 -64 11 -25 19 40 8 1132 6 1146 -2z m321 -5 c14 -2
-15 -4 -63 -5 -49 0 -86 2 -84 7 5 6 88 6 147 -2z m1174 -2 c12 -4 16 -20 16
-55 0 -41 -3 -47 -17 -42 -10 4 -14 2 -10 -4 4 -6 -3 -10 -18 -10 -18 0 -25 5
-26 21 -2 20 -2 20 -6 -1 -4 -21 -10 -23 -86 -25 -169 -5 -331 4 -354 19 -12
8 -27 12 -33 8 -19 -12 -10 7 20 42 17 18 30 38 30 43 0 11 457 14 484 4z
m981 -184 c3 -5 2 -10 -4 -10 -5 0 -13 5 -16 10 -3 6 -2 10 4 10 5 0 13 -4 16
-10z m-59 -38 c-4 -3 -14 2 -24 12 -16 18 -16 18 6 6 13 -6 21 -14 18 -18z
m131 6 c-1 -11 -12 -21 -27 -24 -14 -3 -31 -7 -37 -10 -7 -2 -13 1 -13 6 0 6
7 10 15 10 8 0 15 5 15 10 0 6 -10 10 -22 10 -17 0 -20 3 -9 9 8 5 29 9 47 8
25 -1 32 -5 31 -19z m-117 -28 c6 0 8 5 5 10 -3 6 -1 10 4 10 17 0 13 -18 -5
-28 -13 -7 -14 -11 -4 -17 7 -4 15 -3 19 2 3 5 16 10 28 10 18 1 20 -1 11 -11
-16 -17 -43 -17 -76 0 -15 7 -23 14 -18 14 5 0 2 7 -5 17 -13 15 -12 15 8 5
12 -7 27 -12 33 -12z m90 -30 c0 -5 -5 -10 -11 -10 -5 0 -7 5 -4 10 3 6 8 10
11 10 2 0 4 -4 4 -10z"/>
<path d="M7240 2908 c0 -5 5 -8 10 -8 6 0 9 -6 8 -12 -4 -17 201 -22 357 -9
87 6 97 8 47 10 -39 0 -61 5 -57 11 7 11 8 11 -212 13 -84 1 -153 -1 -153 -5z"/>
<path d="M7705 2910 c-3 -5 -1 -10 4 -10 6 0 11 5 11 10 0 6 -2 10 -4 10 -3 0
-8 -4 -11 -10z"/>
<path d="M7608 2863 c7 -3 16 -2 19 1 4 3 -2 6 -13 5 -11 0 -14 -3 -6 -6z"/>
<path d="M6888 2773 c7 -3 16 -2 19 1 4 3 -2 6 -13 5 -11 0 -14 -3 -6 -6z"/>
<path d="M7548 2613 c7 -3 16 -2 19 1 4 3 -2 6 -13 5 -11 0 -14 -3 -6 -6z"/>
<path d="M8895 5660 c-3 -5 -21 -10 -38 -11 -18 0 -41 -5 -52 -10 -14 -6 -4
-7 30 -3 99 10 120 15 104 25 -19 12 -36 11 -44 -1z"/>
<path d="M510 5646 c0 -8 5 -18 10 -21 6 -3 10 1 10 9 0 8 -4 18 -10 21 -5 3
-10 -1 -10 -9z"/>
<path d="M550 5619 c0 -5 5 -7 10 -4 6 3 10 8 10 11 0 2 -4 4 -10 4 -5 0 -10
-5 -10 -11z"/>
<path d="M652 5510 c-15 -25 -15 -30 2 -30 17 0 30 30 19 41 -5 5 -14 0 -21
-11z"/>
<path d="M788 5393 c7 -3 16 -2 19 1 4 3 -2 6 -13 5 -11 0 -14 -3 -6 -6z"/>
<path d="M9259 5389 c-12 -7 -11 -9 3 -9 9 0 19 -6 21 -12 4 -10 8 -10 15 1
11 15 27 -2 17 -19 -3 -5 1 -10 10 -10 10 0 15 7 13 17 -4 22 -59 45 -79 32z"/>
<path d="M9118 5353 c-10 -2 -18 -8 -18 -13 0 -4 -8 -6 -18 -3 -12 3 -19 -1
-19 -11 0 -21 5 -20 52 9 39 24 39 28 3 18z"/>
<path d="M9016 5321 c-4 -5 3 -7 14 -4 23 6 26 13 6 13 -8 0 -17 -4 -20 -9z"/>
<path d="M8844 5191 c3 -4 -11 -13 -32 -19 -20 -6 -65 -19 -98 -29 -38 -11
-60 -22 -57 -30 3 -7 -12 -17 -35 -23 -25 -8 -45 -23 -56 -41 -9 -16 -27 -31
-39 -34 -13 -4 -23 -14 -23 -25 0 -17 2 -17 40 2 21 11 60 39 85 62 25 23 59
47 74 54 15 7 26 16 23 21 -3 5 0 8 7 7 6 0 42 7 80 18 55 15 65 21 56 32 -12
15 -34 20 -25 5z"/>
<path d="M2105 5120 c17 -11 36 -18 43 -15 7 3 10 1 7 -5 -5 -8 47 -44 325
-222 52 -33 96 -62 98 -63 2 -2 -1 -13 -8 -24 -7 -14 -7 -21 0 -21 5 0 10 7
10 15 0 13 7 12 41 -5 39 -20 40 -22 24 -40 -10 -11 -22 -18 -28 -17 -6 1 -11
-5 -12 -13 0 -9 -8 -14 -18 -12 -24 4 -62 -23 -47 -33 7 -4 16 -2 20 5 10 15
35 1 35 -20 0 -13 219 -15 1923 -13 1912 2 1923 2 1940 22 16 20 30 21 320 22
167 1 306 -1 309 -5 4 -3 -2 -13 -13 -21 -18 -14 -18 -14 3 -15 14 0 88 49
184 123 89 67 194 146 233 176 85 64 80 60 74 66 -2 3 -14 -4 -26 -15 -11 -11
-27 -18 -34 -15 -7 3 -26 -7 -43 -21 l-30 -26 33 22 c18 12 35 20 38 17 5 -5
-45 -44 -83 -64 -25 -13 -31 -5 -11 15 9 9 9 12 1 12 -7 0 -15 -5 -18 -10 -4
-6 -29 -9 -59 -7 -28 2 -61 0 -71 -4 -13 -5 0 -8 38 -8 42 -1 57 -5 57 -15 0
-20 -77 -75 -114 -81 -31 -6 -726 -12 -726 -7 0 1 11 7 24 12 31 11 24 47 -11
61 -31 12 -36 11 -28 -1 3 -6 15 -10 27 -10 14 0 18 -5 14 -15 -3 -8 0 -15 7
-16 7 0 -4 -6 -23 -14 -20 -7 -39 -9 -45 -4 -5 5 -45 8 -90 7 l-80 -1 60 -7
c46 -5 28 -7 -77 -8 -126 -2 -138 -4 -138 -20 0 -14 -7 -18 -34 -17 -19 0 -38
4 -42 8 -10 10 -164 9 -164 -1 0 -10 -58 -8 -82 2 -9 4 -84 5 -167 2 -127 -4
-151 -2 -151 10 0 11 -20 13 -120 7 -91 -5 -120 -3 -120 6 0 7 -8 10 -17 8
-50 -14 -95 -18 -88 -7 3 5 11 8 16 5 5 -4 9 -2 9 3 0 6 -7 12 -15 16 -8 3
-15 1 -15 -4 0 -17 -18 -11 -23 8 -4 13 -5 11 -6 -5 0 -13 -5 -23 -11 -23 -5
0 -7 6 -5 13 4 9 -7 11 -40 9 -28 -3 -45 0 -45 7 0 7 -28 11 -79 11 -72 0 -80
2 -86 21 -4 11 -9 18 -12 16 -2 -3 0 -14 6 -25 14 -26 2 -36 -16 -14 -13 16
-14 15 -8 -5 6 -23 -10 -33 -17 -11 -3 8 -24 12 -61 10 -49 -2 -57 0 -57 15
-1 17 -2 17 -13 1 -12 -14 -14 -13 -26 14 -10 22 -16 27 -22 17 -5 -8 -8 -21
-8 -29 0 -10 2 -11 6 -2 7 17 20 15 20 -3 0 -9 -9 -15 -23 -15 -18 0 -21 4
-17 23 6 22 6 22 -16 -2 -11 -13 -24 -22 -27 -19 -3 3 1 12 9 19 14 14 12 49
-4 49 -5 0 -6 -6 -3 -14 3 -8 1 -17 -5 -21 -10 -5 -15 7 -12 28 0 4 -4 7 -10
7 -6 0 -8 -9 -4 -21 l7 -21 -21 21 c-19 19 -58 20 -46 1 7 -12 -34 -20 -107
-20 -39 0 -68 4 -68 10 0 6 -18 10 -40 10 -22 0 -40 5 -40 10 0 6 -18 10 -39
10 -25 0 -41 5 -45 15 -6 17 -36 21 -36 5 0 -5 -9 -10 -20 -10 -11 0 -20 5
-20 10 0 6 -4 9 -9 8 -5 -2 -17 6 -26 17 -16 20 -16 20 -5 -2 6 -13 35 -63 65
-113 30 -49 55 -92 55 -95 0 -4 7 -13 15 -22 9 -8 14 -20 12 -27 -3 -8 -159
-11 -573 -13 l-569 -1 -160 115 c-88 63 -171 123 -185 133 -14 10 -58 43 -99
72 -41 29 -76 59 -79 66 -3 9 56 12 274 12 152 0 274 3 271 7 -4 3 -45 5 -92
4 -56 -1 -84 2 -80 9 3 5 1 10 -4 10 -6 0 -11 -4 -11 -10 0 -5 -15 -10 -32 -9
-28 0 -30 2 -13 9 15 6 6 9 -33 9 -33 1 -51 5 -47 11 4 6 -18 11 -57 12 -35 1
11 5 102 8 111 4 19 6 -280 8 l-445 2 30 -20z m530 -14 c6 -2 -11 -5 -36 -7
-27 -2 -46 0 -46 6 0 9 51 9 82 1z m-400 -6 c-3 -5 -12 -10 -18 -10 -7 0 -6 4
3 10 19 12 23 12 15 0z m478 3 c-7 -2 -21 -2 -30 0 -10 3 -4 5 12 5 17 0 24
-2 18 -5z m-46 -19 c-3 -3 -12 -4 -19 -1 -8 3 -5 6 6 6 11 1 17 -2 13 -5z
m1870 -220 c-3 -3 -12 -4 -19 -1 -8 3 -5 6 6 6 11 1 17 -2 13 -5z m13 -24 c0
-5 -5 -10 -11 -10 -5 0 -7 5 -4 10 3 6 8 10 11 10 2 0 4 -4 4 -10z m-30 -20
c0 -5 -2 -10 -4 -10 -3 0 -8 5 -11 10 -3 6 -1 10 4 10 6 0 11 -4 11 -10z m547
-26 c-3 -3 -12 -4 -19 -1 -8 3 -5 6 6 6 11 1 17 -2 13 -5z m2142 -20 c2 -4
-12 -22 -33 -38 -31 -25 -39 -28 -46 -16 -8 13 -10 12 -10 -2 0 -17 -20 -18
-276 -18 -292 0 -320 4 -308 43 3 12 12 27 19 32 15 12 648 11 654 -1z m61 12
c0 -2 -7 -7 -16 -10 -8 -3 -12 -2 -9 4 6 10 25 14 25 6z m-4576 -52 c10 -27 7
-34 -19 -34 -16 0 -25 6 -25 15 0 8 5 15 10 15 6 0 10 -4 10 -10 0 -5 5 -10
12 -10 9 0 9 3 0 12 -14 14 -16 28 -3 28 5 0 12 -7 15 -16z m3700 -38 c-3 -8
-15 -17 -27 -20 -41 -10 -1185 -7 -1192 4 -3 5 -3 15 0 20 4 6 220 10 615 10
519 0 609 -2 604 -14z m-3744 -26 c0 -5 -5 -10 -11 -10 -5 0 -7 5 -4 10 3 6 8
10 11 10 2 0 4 -4 4 -10z"/>
<path d="M1934 5118 c-3 -5 -13 -7 -23 -4 -10 4 -7 -2 7 -14 13 -11 20 -25 17
-31 -13 -20 37 2 57 25 16 19 17 19 18 3 0 -10 5 -15 10 -12 7 4 8 -3 4 -21
-5 -20 -4 -25 5 -20 7 5 22 0 34 -11 l22 -18 -19 22 c-10 12 -16 29 -13 37 12
30 -102 71 -119 44z"/>
<path d="M9150 5120 c-13 -8 -12 -10 3 -10 9 0 17 5 17 10 0 12 -1 12 -20 0z"/>
<path d="M1872 5111 c-10 -6 -10 -11 3 -21 19 -16 30 -7 18 14 -5 9 -13 12
-21 7z"/>
<path d="M6830 5089 c-12 -16 -21 -31 -19 -33 2 -1 156 0 343 4 299 6 340 9
348 24 12 22 54 21 61 -2 2 -11 13 -21 23 -24 16 -4 19 1 21 29 l2 33 -379 0
-379 0 -21 -31z"/>
<path d="M981 5068 c0 -16 2 -18 6 -8 3 8 11 18 17 22 7 5 4 8 -6 8 -12 0 -18
-7 -17 -22z"/>
<path d="M1800 5081 c0 -5 5 -13 10 -16 6 -3 10 -2 10 4 0 5 -4 13 -10 16 -5
3 -10 2 -10 -4z"/>
<path d="M4460 5080 c0 -38 9 -40 166 -40 87 0 154 4 154 9 0 40 -8 42 -166
40 -85 -1 -154 -5 -154 -9z"/>
<path d="M1850 5060 c0 -6 -6 -8 -12 -4 -7 4 -10 3 -5 -1 12 -14 49 -17 45 -3
-6 16 -28 23 -28 8z"/>
<path d="M7609 5033 c-13 -16 -12 -17 4 -4 16 13 21 21 13 21 -2 0 -10 -8 -17
-17z"/>
<path d="M1870 5020 c20 -13 33 -13 25 0 -3 6 -14 10 -23 10 -15 0 -15 -2 -2
-10z"/>
<path d="M1910 4964 c0 -8 5 -12 10 -9 6 3 10 10 10 16 0 5 -4 9 -10 9 -5 0
-10 -7 -10 -16z"/>
<path d="M4510 4935 c7 -19 17 -20 149 -23 l142 -3 -3 23 c-3 23 -5 23 -149
23 -144 1 -147 0 -139 -20z"/>
<path d="M4483 4928 c1 -15 6 -23 11 -18 4 4 4 16 -2 26 -9 16 -10 14 -9 -8z"/>
<path d="M8511 4913 c-1 -22 -21 -34 -21 -12 0 5 -4 7 -10 4 -6 -4 -5 -11 3
-20 16 -18 41 4 34 31 -4 16 -5 15 -6 -3z"/>
<path d="M7218 4903 c7 -3 16 -2 19 1 4 3 -2 6 -13 5 -11 0 -14 -3 -6 -6z"/>
<path d="M4620 4889 c0 -5 5 -7 10 -4 6 3 10 8 10 11 0 2 -4 4 -10 4 -5 0 -10
-5 -10 -11z"/>
<path d="M4690 4885 c-9 -10 -9 -15 -1 -15 6 0 11 5 11 10 0 6 7 10 16 10 9 0
12 -5 8 -12 -4 -7 -3 -8 4 -4 7 4 12 11 12 17 0 15 -36 10 -50 -6z"/>
<path d="M4751 4893 c3 -21 -2 -33 -16 -33 -8 0 -15 -4 -15 -10 0 -5 11 -10
25 -10 14 0 25 5 25 10 0 14 28 12 32 -2 3 -9 6 -9 12 0 4 7 -3 14 -19 18 -14
3 -25 12 -25 20 0 8 -4 14 -10 14 -5 0 -9 -3 -9 -7z"/>
<path d="M1020 4885 c-1 -5 -2 -13 -1 -17 0 -5 -4 -8 -11 -8 -9 0 -9 -3 -1
-11 13 -13 57 7 48 22 -4 5 -10 7 -15 4 -4 -3 -11 1 -13 7 -3 7 -6 9 -7 3z"/>
<path d="M5538 4873 c12 -2 32 -2 45 0 12 2 2 4 -23 4 -25 0 -35 -2 -22 -4z"/>
<path d="M5628 4873 c12 -2 30 -2 40 0 9 3 -1 5 -23 4 -22 0 -30 -2 -17 -4z"/>
<path d="M6438 4873 c12 -2 30 -2 40 0 9 3 -1 5 -23 4 -22 0 -30 -2 -17 -4z"/>
<path d="M1169 4832 c7 -12 17 -20 22 -16 6 3 9 7 7 8 -2 1 -12 8 -22 16 -18
14 -19 14 -7 -8z"/>
<path d="M6502 4835 c-10 -12 -10 -15 2 -15 7 0 16 7 20 15 7 19 -5 19 -22 0z"/>
<path d="M8340 4808 c0 -26 28 -30 41 -5 11 19 10 20 -3 10 -11 -10 -17 -10
-26 -1 -9 9 -12 8 -12 -4z"/>
<path d="M5778 4793 c12 -2 32 -2 45 0 12 2 2 4 -23 4 -25 0 -35 -2 -22 -4z"/>
<path d="M8302 4778 c-6 -6 -12 -19 -12 -27 0 -13 2 -13 16 1 9 9 15 21 13 27
-3 9 -8 8 -17 -1z"/>
<path d="M2186 4278 c3 -4 11 -5 19 -1 21 7 19 12 -4 10 -11 0 -18 -5 -15 -9z"/>
<path d="M2750 3969 c0 -5 5 -7 10 -4 6 3 10 8 10 11 0 2 -4 4 -10 4 -5 0 -10
-5 -10 -11z"/>
<path d="M2161 3554 c0 -11 3 -14 6 -6 3 7 2 16 -1 19 -3 4 -6 -2 -5 -13z"/>
<path d="M2250 3335 c-18 -22 -39 -172 -46 -335 -7 -140 1 -211 33 -329 4 -18
3 -22 -8 -19 -8 3 -24 1 -36 -3 -16 -6 -23 -4 -26 9 -3 9 -5 -4 -6 -30 -1 -36
3 -48 14 -48 8 0 12 6 9 14 -7 17 22 46 46 46 11 0 22 -10 26 -22 4 -13 14
-33 23 -45 15 -21 24 -22 119 -23 73 0 114 5 136 15 20 10 66 17 117 18 72 2
84 5 87 20 3 16 1 17 -16 8 -12 -6 -33 -11 -49 -10 -15 0 -22 3 -14 6 22 9 52
43 46 52 -3 5 -14 7 -25 4 -23 -6 -27 12 -5 21 21 8 19 29 -2 22 -16 -5 -16
-4 1 8 18 14 17 15 -8 22 -20 5 -25 11 -21 28 13 68 17 108 16 169 -1 37 2 67
7 67 6 0 13 7 16 16 4 11 2 15 -8 11 -8 -3 -17 -1 -20 6 -2 7 -5 4 -5 -5 -1
-10 -5 -18 -10 -18 -6 0 -10 8 -9 18 0 9 -5 51 -11 92 -6 41 -14 101 -17 132
-11 94 -18 98 -193 98 -119 0 -151 -3 -161 -15z m396 -402 c-10 -10 -19 5 -10
18 6 11 8 11 12 0 2 -7 1 -15 -2 -18z m1 -295 c2 -17 0 -19 -7 -8 -5 8 -6 18
-4 22 8 12 10 10 11 -14z m-17 -28 c0 -5 -2 -10 -4 -10 -3 0 -8 5 -11 10 -3 6
-1 10 4 10 6 0 11 -4 11 -10z"/>
<path d="M2761 3336 c-22 -26 -43 -207 -45 -376 -1 -144 2 -176 22 -250 13
-47 33 -102 45 -122 l21 -38 99 0 c109 0 151 15 162 57 3 13 12 23 20 23 8 0
15 7 15 15 0 8 -4 15 -10 15 -12 0 0 32 18 46 18 13 53 116 51 152 -1 15 2 36
6 47 5 16 5 17 -4 5 -5 -8 -13 -11 -17 -7 -4 4 3 18 16 32 17 18 19 25 9 25
-8 0 -20 -5 -27 -12 -9 -9 -12 -8 -12 5 0 10 11 29 25 43 14 14 23 30 20 35
-4 5 4 13 17 18 20 8 21 10 6 16 -10 4 -30 0 -46 -8 l-29 -14 -13 106 c-14
124 -28 183 -44 193 -6 4 -75 8 -152 8 -111 0 -144 -3 -153 -14z"/>
<path d="M4370 3285 c0 -8 4 -15 10 -15 5 0 7 7 4 15 -4 8 -8 15 -10 15 -2 0
-4 -7 -4 -15z"/>
<path d="M4362 3240 c0 -14 2 -19 5 -12 2 6 2 18 0 25 -3 6 -5 1 -5 -13z"/>
<path d="M4342 3190 c-1 -39 2 -49 8 -34 4 11 5 36 0 55 -7 31 -8 29 -8 -21z"/>
<path d="M2663 3179 c14 -8 22 -8 30 0 8 8 3 11 -18 11 -26 -1 -28 -2 -12 -11z"/>
<path d="M2161 2903 c1 -126 4 -216 6 -200 3 16 9 25 15 21 6 -4 8 1 4 13 -4
11 -2 32 3 47 8 19 7 26 -2 26 -9 0 -12 40 -12 160 0 88 -3 160 -7 160 -5 0
-7 -102 -7 -227z"/>
<path d="M3229 3090 c-13 -10 -19 -19 -13 -20 7 0 22 9 35 20 13 10 19 19 13
20 -7 0 -22 -9 -35 -20z"/>
<path d="M2641 3064 c0 -11 3 -14 6 -6 3 7 2 16 -1 19 -3 4 -6 -2 -5 -13z"/>
<path d="M4342 3035 c0 -27 3 -44 5 -37 3 6 9 10 14 6 11 -7 11 -7 -5 41 l-14
40 0 -50z"/>
<path d="M4345 2940 c-4 -12 -5 -24 -2 -27 3 -2 8 5 12 17 4 12 5 24 2 27 -3
2 -8 -5 -12 -17z"/>
<path d="M4382 2925 c0 -16 2 -22 5 -12 2 9 2 23 0 30 -3 6 -5 -1 -5 -18z"/>
<path d="M8665 2870 c3 -5 8 -10 11 -10 2 0 4 5 4 10 0 6 -5 10 -11 10 -5 0
-7 -4 -4 -10z"/>
<path d="M2660 2810 c0 -5 5 -10 11 -10 5 0 7 5 4 10 -3 6 -8 10 -11 10 -2 0
-4 -4 -4 -10z"/>
<path d="M1540 2769 c-11 -7 -3 -9 32 -7 26 1 50 -1 54 -4 9 -9 -63 -21 -81
-14 -9 3 -13 2 -10 -4 3 -6 24 -10 46 -10 21 0 40 -4 40 -10 5 -42 2 -53 -14
-56 -20 -3 -23 12 -4 19 6 3 -8 3 -32 2 -40 -3 -44 -5 -46 -30 -1 -28 10 -42
20 -25 9 15 25 12 25 -4 0 -8 -10 -16 -22 -18 -13 -2 -21 -7 -19 -13 1 -5 6
-9 10 -8 51 13 61 14 61 5 0 -5 -16 -13 -35 -16 -48 -9 -51 -21 -4 -21 21 0
39 4 39 9 0 5 3 6 7 3 3 -4 -2 -16 -12 -27 -18 -19 -17 -20 1 -20 12 0 6 -7
-19 -20 -21 -11 -42 -18 -47 -15 -13 8 -8 -48 5 -57 6 -5 4 -8 -5 -9 -10 0 -9
-3 5 -9 19 -9 19 -9 -2 -16 -37 -10 -26 -24 20 -25 34 -2 36 -3 12 -6 -42 -7
-55 -20 -55 -59 0 -40 11 -48 67 -49 39 0 48 5 44 28 0 4 9 7 21 7 19 0 20 2
8 10 -8 5 -10 10 -5 10 6 0 10 30 9 73 -2 150 -3 157 -21 157 -12 0 -14 3 -7
8 14 9 17 31 15 145 l-1 87 -42 0 c-24 0 -50 -5 -58 -11z m35 -109 c-3 -5 -13
-10 -21 -10 -8 0 -12 5 -9 10 3 6 13 10 21 10 8 0 12 -4 9 -10z m48 -201 c-5
-5 -28 -12 -49 -15 -24 -3 -35 -1 -29 5 19 18 97 29 78 10z m-76 -165 c-3 -3
-12 -4 -19 -1 -8 3 -5 6 6 6 11 1 17 -2 13 -5z m63 -4 c0 -5 -4 -10 -10 -10
-5 0 -10 5 -10 10 0 6 5 10 10 10 6 0 10 -4 10 -10z"/>
<path d="M10205 2740 c3 -5 11 -10 16 -10 6 0 7 5 4 10 -3 6 -11 10 -16 10 -6
0 -7 -4 -4 -10z"/>
<path d="M1590 2710 c-9 -6 -10 -10 -3 -10 6 0 15 5 18 10 8 12 4 12 -15 0z"/>
<path d="M2715 2710 c3 -5 8 -10 11 -10 2 0 4 5 4 10 0 6 -5 10 -11 10 -5 0
-7 -4 -4 -10z"/>
<path d="M1922 2540 c0 -14 2 -19 5 -12 2 6 2 18 0 25 -3 6 -5 1 -5 -13z"/>
<path d="M1522 2518 c5 -15 28 -18 29 -3 0 6 -7 12 -17 13 -10 3 -15 -1 -12
-10z"/>
<path d="M1921 2465 c-2 -64 -10 -95 -26 -95 -8 0 -10 -9 -7 -26 3 -16 9 -23
18 -20 8 3 14 1 14 -4 0 -6 7 -10 15 -10 8 0 15 5 15 11 0 8 5 8 15 -1 8 -7
15 -9 15 -4 0 5 5 2 10 -6 8 -13 12 -12 26 6 17 21 18 21 49 3 33 -20 105 -23
118 -5 5 7 12 6 20 -6 12 -15 15 -15 28 -2 13 12 17 12 36 -5 11 -11 24 -17
27 -14 3 4 6 -15 6 -40 0 -41 -3 -47 -25 -53 -14 -3 -32 -4 -40 0 -8 3 -18 5
-21 5 -12 -1 -24 25 -24 51 0 30 -15 16 -24 -24 -6 -23 -4 -27 8 -23 20 8 20
-2 0 -28 -15 -20 -15 -20 -34 5 -16 21 -20 22 -20 7 0 -14 -5 -17 -21 -12 -13
5 -19 3 -15 -3 3 -5 -1 -13 -10 -16 -13 -5 -15 -2 -11 14 3 11 1 23 -4 26 -5
3 -9 -2 -9 -10 0 -17 -3 -18 -60 -20 -44 -1 -83 -34 -66 -55 9 -12 8 -13 -3
-7 -8 5 -17 3 -22 -5 -8 -12 -11 -12 -19 1 -8 12 -10 12 -10 1 0 -11 -3 -11
-15 -1 -11 9 -15 9 -15 1 0 -7 -4 -9 -10 -6 -5 3 -10 1 -10 -6 0 -9 -4 -9 -15
1 -8 6 -19 9 -26 5 -10 -7 -28 10 -29 27 0 3 28 5 63 4 78 -3 119 17 115 54
-2 19 1 25 15 24 9 -1 17 1 17 5 0 11 54 7 63 -4 5 -6 6 -2 3 8 -3 11 0 20 9
23 9 4 15 19 14 38 0 28 -1 29 -9 9 -11 -26 -20 -29 -38 -11 -10 10 -15 10
-21 -1 -6 -9 -11 -10 -15 -2 -12 19 -24 12 -18 -11 3 -14 2 -19 -6 -14 -8 5
-12 0 -12 -13 0 -14 -6 -21 -20 -21 -11 0 -20 4 -20 9 0 4 -11 6 -25 3 -17 -3
-25 0 -23 8 6 25 -22 21 -34 -5 -11 -25 -13 -25 -25 -9 -8 10 -13 13 -13 5 0
-7 -4 -9 -10 -6 -5 3 -18 8 -29 10 -15 3 -18 -1 -13 -17 4 -18 2 -20 -14 -14
-10 4 -23 9 -29 10 -5 1 -15 5 -21 9 -7 4 -17 0 -24 -8 -7 -8 -16 -12 -21 -10
-5 3 -14 -3 -20 -14 -11 -17 -14 -17 -28 -4 -13 14 -16 13 -22 -3 -3 -11 -5
-22 -3 -25 4 -7 -26 -23 -38 -21 -5 1 -8 -5 -8 -13 0 -24 -38 4 -45 34 -4 14
-9 21 -13 15 -10 -13 -42 -17 -42 -4 0 6 -4 8 -10 5 -5 -3 -10 -10 -10 -15 0
-17 42 -49 56 -43 8 3 14 -1 14 -11 0 -9 -4 -16 -9 -16 -19 0 -72 -53 -67 -66
4 -11 2 -11 -14 -1 -11 6 -20 15 -20 20 0 4 5 5 10 2 6 -3 10 1 10 9 0 8 -4
18 -10 21 -18 11 -12 38 7 31 10 -4 14 -4 10 0 -4 4 -2 13 3 19 8 9 6 14 -5
19 -9 3 -15 0 -15 -9 0 -22 -30 -18 -57 7 l-23 21 0 -31 c0 -24 -4 -32 -18
-32 -10 0 -23 -5 -30 -12 -7 -7 -12 -8 -12 -2 0 5 -5 2 -10 -6 -7 -12 -12 -12
-22 -2 -9 9 -8 15 7 25 17 13 17 14 -2 19 -26 7 -40 -2 -45 -26 -4 -23 -95
-116 -114 -116 -7 0 -14 -4 -16 -8 -2 -4 -39 -18 -83 -31 -44 -13 -89 -29
-100 -36 -11 -6 -32 -15 -46 -18 -15 -4 -34 -18 -43 -32 l-16 -25 82 1 c106 1
132 9 136 38 4 24 58 54 90 50 10 -1 34 5 54 15 21 9 46 16 56 16 10 0 22 4
28 9 5 5 27 6 49 1 22 -4 32 -8 22 -9 -9 0 -25 -10 -34 -21 -10 -11 -30 -20
-45 -20 -16 0 -28 -4 -28 -10 0 -5 7 -10 15 -10 8 0 16 -7 16 -15 1 -8 2 -21
3 -27 1 -10 45 -14 179 -16 l177 -2 0 22 c0 34 11 43 53 45 45 3 46 -14 4 -35
-15 -7 -25 -17 -23 -21 7 -11 448 -12 506 -2 l45 8 -28 11 c-35 15 -50 15 -42
2 3 -5 1 -10 -4 -10 -6 0 -11 7 -11 15 0 8 -8 15 -17 15 -14 0 -15 2 -4 9 11
7 11 9 0 13 -9 3 -6 11 10 27 22 22 23 22 16 3 -5 -19 -3 -20 25 -12 19 5 30
5 30 -1 0 -14 42 0 55 18 8 10 40 15 120 18 61 2 121 7 135 12 14 5 45 11 70
12 51 3 81 24 62 43 -9 9 -16 7 -32 -7 -28 -25 -37 -12 -10 15 12 12 19 28 16
37 -4 9 -1 22 5 29 7 9 8 14 1 14 -11 0 -22 -24 -22 -49 0 -24 -31 -51 -66
-57 -16 -3 -33 -9 -39 -13 -17 -14 -123 -5 -139 12 -22 22 -6 31 86 51 42 10
79 22 82 29 2 7 5 5 5 -5 1 -14 5 -15 31 -7 17 6 30 15 30 19 0 14 -22 23 -29
13 -3 -5 -22 -10 -41 -11 -56 -2 -90 -10 -130 -31 -8 -5 -25 -4 -38 0 -12 5
-29 6 -37 3 -18 -7 -20 7 -3 24 13 13 1 17 -31 12 -27 -4 10 32 54 51 32 15
35 19 16 19 -20 0 -22 2 -11 15 7 9 16 12 19 7 12 -18 41 -21 49 -5 10 16 7
16 190 5 97 -6 112 -5 110 8 -3 11 -17 15 -51 15 -26 0 -47 3 -47 7 0 12 68
21 105 14 22 -4 35 -3 35 4 0 5 7 10 15 10 8 0 15 -8 15 -17 0 -9 3 -14 6 -10
4 3 -1 25 -10 48 -9 23 -15 43 -13 45 2 2 32 7 66 10 58 7 64 5 100 -24 l39
-31 5 28 c4 16 1 41 -6 55 l-12 26 -450 0 -450 0 3 49 c2 26 2 59 -1 72 -2 13
-5 2 -6 -26z m919 -150 c0 -8 -4 -15 -10 -15 -5 0 -10 7 -10 15 0 8 5 15 10
15 6 0 10 -7 10 -15z m-1013 -97 c-3 -8 -6 -5 -6 6 -1 11 2 17 5 13 3 -3 4
-12 1 -19z m-27 -34 c0 -2 -7 -4 -15 -4 -8 0 -15 4 -15 10 0 5 7 7 15 4 8 -4
15 -8 15 -10z m330 -28 c0 -3 -4 -8 -10 -11 -5 -3 -10 -1 -10 4 0 6 5 11 10
11 6 0 10 -2 10 -4z m-340 -86 c0 -5 -7 -10 -15 -10 -8 0 -15 5 -15 10 0 6 7
10 15 10 8 0 15 -4 15 -10z m-565 -38 c-3 -3 -11 0 -18 7 -9 10 -8 11 6 5 10
-3 15 -9 12 -12z m315 -72 c0 -5 -15 -10 -32 -9 -28 0 -30 2 -13 9 28 12 45
12 45 0z m-90 -10 c11 -7 1 -9 -32 -8 -27 1 -42 6 -35 10 17 11 49 10 67 -2z
m-190 -46 c0 -8 -4 -12 -10 -9 -5 3 -10 10 -10 16 0 5 5 9 10 9 6 0 10 -7 10
-16z m690 -4 c0 -5 -8 -10 -17 -10 -15 0 -16 2 -3 10 19 12 20 12 20 0z m-755
-30 c-3 -5 -10 -10 -16 -10 -5 0 -9 5 -9 10 0 6 7 10 16 10 8 0 12 -4 9 -10z"/>
<path d="M8995 2439 c5 -7 -6 -9 -36 -4 -24 3 -55 2 -69 -3 -21 -8 -13 -10 44
-13 57 -3 70 -1 77 14 7 13 6 17 -6 17 -9 0 -13 -5 -10 -11z"/>
<path d="M9080 2406 c0 -2 7 -7 16 -10 8 -3 12 -2 9 4 -6 10 -25 14 -25 6z"/>
<path d="M9037 2393 c-10 -2 -17 -10 -16 -16 4 -34 -1 -41 -17 -21 -15 18 -15
18 -11 -8 2 -16 0 -28 -5 -28 -5 0 -4 -9 2 -20 6 -11 17 -20 25 -20 8 0 15 -4
15 -10 0 -12 -27 -13 -34 -2 -3 5 -19 7 -36 4 -34 -5 -70 16 -48 29 7 4 10 11
6 14 -7 7 -48 -16 -48 -27 0 -5 10 -8 22 -8 16 0 19 -3 11 -11 -8 -8 -16 -7
-30 2 -13 8 -25 9 -37 2 -15 -8 -15 -11 2 -31 23 -26 127 -65 160 -59 12 2 22
0 22 -4 0 -5 5 -9 12 -9 6 0 8 3 5 7 -4 4 7 13 24 20 24 10 29 17 23 30 -16
38 -10 97 14 120 12 12 22 24 22 27 0 4 -61 28 -64 25 -1 -1 -9 -3 -19 -6z
m20 -49 c-3 -3 -12 -4 -19 -1 -8 3 -5 6 6 6 11 1 17 -2 13 -5z m-27 -44 c-19
-13 -30 -13 -30 0 0 6 10 10 23 10 18 0 19 -2 7 -10z"/>
<path d="M2919 2368 c0 -1 -2 -15 -4 -30 -4 -27 -3 -27 21 -12 15 10 24 12 24
5 0 -6 -4 -11 -10 -11 -5 0 -10 -6 -10 -12 1 -7 9 -3 19 10 11 12 30 22 45 22
26 0 106 -46 106 -61 0 -4 3 -15 6 -23 5 -12 2 -15 -10 -10 -9 3 -16 1 -16 -5
0 -6 5 -11 10 -11 6 0 10 -8 9 -17 0 -11 -3 -13 -6 -5 -9 23 -25 12 -19 -13 6
-23 5 -24 -20 -15 -14 6 -30 8 -35 4 -5 -3 -9 10 -9 29 0 25 -7 38 -29 54 -21
16 -31 19 -40 10 -21 -21 -13 -38 15 -31 19 5 25 3 20 -4 -4 -7 -2 -10 6 -7 9
4 13 -5 14 -30 0 -34 -9 -45 -21 -25 -8 12 -35 13 -35 1 0 -5 17 -16 38 -24
l37 -16 -41 0 c-33 -1 -48 -8 -76 -35 -20 -19 -39 -32 -42 -29 -3 4 -6 22 -6
41 0 27 -3 33 -16 28 -9 -3 -18 -6 -20 -6 -2 0 -2 -17 2 -38 5 -29 1 -43 -15
-62 -11 -14 -20 -19 -21 -13 0 17 -76 67 -89 59 -5 -3 -12 0 -15 6 -3 10 -8 9
-18 -3 -7 -9 -23 -19 -35 -23 -12 -4 -35 -26 -51 -49 -17 -25 -36 -41 -46 -41
-9 1 -15 -3 -13 -10 6 -18 102 -9 142 14 42 24 61 25 68 6 6 -14 29 -13 67 2
8 3 17 6 20 7 3 1 13 5 22 9 9 4 21 5 25 3 5 -3 44 -1 86 4 51 6 84 6 96 0 21
-12 80 2 92 20 4 7 39 13 80 15 40 3 75 7 78 10 3 2 0 14 -7 24 -11 18 -10 19
12 10 26 -9 96 6 96 22 0 5 -35 6 -79 2 -54 -5 -80 -3 -85 5 -4 6 -12 11 -17
11 -6 0 -7 -5 -3 -12 4 -7 3 -8 -4 -4 -7 4 -12 3 -12 -3 0 -6 -13 -9 -30 -8
-36 2 -41 17 -6 17 25 0 43 16 31 28 -3 3 -10 0 -15 -8 -5 -8 -12 -11 -15 -8
-11 11 5 28 27 28 11 0 22 8 25 19 8 32 103 38 140 9 11 -9 382 -12 444 -4 15
1 52 22 84 44 56 41 61 42 137 42 75 0 78 1 78 23 0 15 11 29 31 41 17 10 29
19 27 21 -4 4 -1238 17 -1239 13z m362 -109 c15 -24 10 -31 -18 -24 -38 10
-64 8 -77 -6 -8 -9 -7 -10 4 -4 9 5 7 -1 -5 -15 -17 -20 -17 -22 -3 -17 10 3
20 2 23 -3 7 -12 -43 -33 -61 -26 -7 3 -15 0 -17 -7 -9 -25 -19 4 -13 37 5 26
13 36 33 41 15 3 37 15 50 25 26 20 71 20 84 -1z m-211 -128 c0 -14 7 -17 31
-13 29 4 31 3 24 -19 -12 -37 -35 -79 -43 -79 -10 0 -52 73 -52 89 0 6 7 11
15 11 12 0 13 5 4 26 -8 24 -8 25 6 14 8 -7 15 -20 15 -29z m-64 -30 c0 -14
-6 -19 -25 -17 -35 4 -38 24 -4 29 15 2 28 5 28 6 1 0 1 -8 1 -18z m-84 -43
c-7 -7 -12 -8 -12 -2 0 14 12 26 19 19 2 -3 -1 -11 -7 -17z m-222 4 c0 -13
-12 -22 -22 -16 -10 6 -1 24 13 24 5 0 9 -4 9 -8z"/>
<path d="M3130 2189 c0 -5 5 -7 10 -4 6 3 10 8 10 11 0 2 -4 4 -10 4 -5 0 -10
-5 -10 -11z"/>
<path d="M9243 2363 c-18 -7 -16 -20 4 -27 17 -7 36 12 27 26 -6 9 -12 9 -31
1z"/>
<path d="M8877 2340 c6 -22 11 -24 33 -10 13 9 13 11 0 20 -24 16 -39 12 -33
-10z"/>
<path d="M9195 2340 c4 -6 11 -8 16 -5 14 9 11 15 -7 15 -8 0 -12 -5 -9 -10z"/>
<path d="M9194 2315 c11 -8 29 -15 40 -15 16 1 12 5 -13 15 -42 19 -52 19 -27
0z"/>
<path d="M9305 2310 c3 -5 12 -7 20 -3 21 7 19 13 -6 13 -11 0 -18 -4 -14 -10z"/>
<path d="M1874 2285 c-9 -22 1 -29 15 -11 8 10 9 16 1 21 -5 3 -13 -1 -16 -10z"/>
<path d="M1911 2284 c0 -11 3 -14 6 -6 3 7 2 16 -1 19 -3 4 -6 -2 -5 -13z"/>
<path d="M2720 2274 c6 -14 10 -40 11 -57 1 -29 2 -30 8 -8 3 13 15 29 26 35
11 6 22 12 24 13 11 7 -35 43 -55 43 -21 0 -22 -3 -14 -26z"/>
<path d="M3072 2286 c7 -8 15 -12 17 -11 5 6 -10 25 -20 25 -5 0 -4 -6 3 -14z"/>
<path d="M9395 2290 c4 -6 -6 -10 -22 -10 -15 0 -35 -5 -43 -11 -11 -8 -5 -9
25 -4 22 4 43 9 47 11 12 7 10 24 -3 24 -5 0 -7 -4 -4 -10z"/>
<path d="M1680 2280 c0 -5 5 -10 10 -10 6 0 10 5 10 10 0 6 -4 10 -10 10 -5 0
-10 -4 -10 -10z"/>
<path d="M3038 2263 c5 -21 7 -23 10 -9 2 10 0 22 -6 28 -6 6 -7 0 -4 -19z"/>
<path d="M1466 2273 c-4 -5 -12 -9 -17 -9 -5 -1 -13 -2 -18 -3 -9 -1 -23 -41
-14 -41 17 0 73 42 73 54 0 8 -15 7 -24 -1z"/>
<path d="M9130 2270 c0 -5 5 -10 11 -10 5 0 7 5 4 10 -3 6 -8 10 -11 10 -2 0
-4 -4 -4 -10z"/>
<path d="M1780 2259 c0 -5 5 -7 10 -4 6 3 10 8 10 11 0 2 -4 4 -10 4 -5 0 -10
-5 -10 -11z"/>
<path d="M9590 2260 c0 -5 5 -10 11 -10 5 0 7 5 4 10 -3 6 -8 10 -11 10 -2 0
-4 -4 -4 -10z"/>
<path d="M1581 2229 c9 -17 13 -19 19 -8 11 16 4 29 -16 29 -12 0 -13 -4 -3
-21z"/>
<path d="M2200 2240 c0 -5 5 -10 10 -10 6 0 10 5 10 10 0 6 -4 10 -10 10 -5 0
-10 -4 -10 -10z"/>
<path d="M4864 2238 c-3 -4 0 -8 6 -8 7 0 24 -9 40 -20 15 -11 30 -17 33 -14
3 3 11 3 18 -1 8 -6 7 -10 -5 -17 -9 -5 -16 -14 -16 -19 0 -6 4 -8 10 -4 15 9
60 -6 60 -21 0 -8 5 -14 10 -14 6 0 10 15 10 34 0 18 3 46 6 62 l5 29 -86 1
c-47 0 -88 -4 -91 -8z"/>
<path d="M9330 2234 c0 -12 6 -15 23 -10 12 3 25 6 30 6 4 0 7 5 7 10 0 6 -13
10 -30 10 -21 0 -30 -5 -30 -16z"/>
<path d="M9477 2243 c-15 -14 -6 -21 26 -18 48 4 49 4 42 15 -7 11 -58 14 -68
3z"/>
<path d="M2060 2225 c0 -8 2 -15 4 -15 2 0 6 7 10 15 3 8 1 15 -4 15 -6 0 -10
-7 -10 -15z"/>
<path d="M2268 2233 c-10 -2 -18 -11 -18 -19 0 -11 4 -10 20 3 17 15 26 26 18
22 -2 -1 -11 -3 -20 -6z"/>
<path d="M9230 2229 c0 -5 5 -7 10 -4 6 3 10 8 10 11 0 2 -4 4 -10 4 -5 0 -10
-5 -10 -11z"/>
<path d="M9438 2233 c7 -3 16 -2 19 1 4 3 -2 6 -13 5 -11 0 -14 -3 -6 -6z"/>
<path d="M9565 2230 c-3 -5 3 -10 15 -10 12 0 18 5 15 10 -3 6 -10 10 -15 10
-5 0 -12 -4 -15 -10z"/>
<path d="M3035 2220 c-3 -5 1 -10 9 -10 8 0 18 5 21 10 3 6 -1 10 -9 10 -8 0
-18 -4 -21 -10z"/>
<path d="M9187 2202 c-10 -10 -14 -22 -10 -25 5 -6 -46 -12 -69 -8 -18 3 -6
-40 15 -53 35 -23 177 -62 185 -51 4 6 18 11 32 13 48 5 51 9 30 44 -14 24
-27 33 -48 34 -16 1 -39 5 -51 9 -16 5 -21 4 -17 -4 5 -8 0 -8 -18 -1 -14 5
-26 6 -26 3 0 -4 -5 -2 -11 4 -8 8 -8 17 0 32 14 26 9 27 -12 3z"/>
<path d="M9605 2210 c-3 -5 -13 -6 -23 -3 -9 3 -14 3 -10 -1 12 -14 58 -14 58
0 0 16 -16 19 -25 4z"/>
<path d="M2750 2199 c0 -5 5 -7 10 -4 6 3 10 8 10 11 0 2 -4 4 -10 4 -5 0 -10
-5 -10 -11z"/>
<path d="M4870 2202 c0 -5 7 -9 15 -9 8 0 12 4 9 9 -3 4 -9 8 -15 8 -5 0 -9
-4 -9 -8z"/>
<path d="M9255 2200 c3 -5 15 -10 25 -10 10 0 20 -6 23 -12 3 -10 7 -10 20 1
27 21 20 28 -29 29 -28 2 -43 -2 -39 -8z"/>
<path d="M9653 2190 c-13 -11 -23 -27 -23 -35 0 -20 10 -19 26 2 18 26 26 11
8 -15 -8 -12 -26 -22 -39 -22 -28 0 -52 -34 -33 -46 6 -4 8 -3 5 2 -10 17 7
34 23 23 13 -8 13 -10 0 -19 -13 -9 -12 -13 5 -26 20 -16 19 -16 -5 -10 -33 9
-99 16 -82 10 6 -3 12 -10 12 -16 0 -6 -8 -4 -18 5 -21 19 -52 23 -52 6 0 -7
-7 -8 -17 -4 -28 12 -82 15 -88 5 -15 -24 51 -60 171 -95 71 -21 91 -23 99
-13 17 22 39 14 58 -19 36 -66 177 -113 342 -113 l112 0 -46 48 c-25 27 -50
49 -56 50 -5 0 -25 2 -42 3 -20 1 -33 7 -33 16 0 7 -4 13 -10 13 -5 0 -10 -5
-10 -11 0 -6 -9 -8 -20 -4 -13 4 -20 2 -20 -7 0 -8 -4 -6 -11 5 -5 9 -17 17
-25 17 -9 0 -12 -5 -8 -12 5 -8 2 -9 -12 -3 -10 5 -41 10 -69 12 -66 5 -84 11
-66 22 11 7 8 13 -12 25 -17 12 -23 23 -20 36 4 16 0 20 -23 21 l-29 0 25 10
c18 8 21 12 11 18 -18 11 -3 36 35 62 22 14 25 19 11 19 -10 0 -15 5 -12 11 4
6 -2 13 -13 16 -12 3 -22 12 -24 20 -2 11 -8 10 -25 -7z"/>
<path d="M2651 2183 c-1 -12 -9 -24 -21 -28 -11 -3 -20 -15 -20 -25 0 -10 -3
-25 -6 -33 -4 -11 1 -13 20 -10 28 6 34 18 14 26 -7 3 1 6 19 6 17 1 33 -3 35
-7 2 -5 18 -12 36 -15 25 -5 32 -3 29 6 -2 6 -16 12 -31 13 -30 1 -48 14 -28
21 7 3 17 14 23 25 11 20 10 20 -12 4 -31 -22 -36 -21 -47 12 -9 24 -11 24
-11 5z"/>
<path d="M2757 2165 c-30 -27 -28 -32 5 -14 19 10 20 9 14 -23 l-7 -33 16 27
c8 15 24 29 35 33 11 3 20 13 20 21 0 17 -16 19 -24 2 -5 -10 -7 -10 -12 0 -8
17 -15 15 -47 -13z"/>
<path d="M9450 2135 c0 -15 7 -25 22 -28 12 -4 24 -4 27 -2 2 3 0 5 -6 5 -6 0
-9 8 -6 19 3 12 -2 20 -16 24 -17 4 -21 1 -21 -18z"/>
<path d="M9838 2153 c7 -3 16 -2 19 1 4 3 -2 6 -13 5 -11 0 -14 -3 -6 -6z"/>
<path d="M9900 2150 c0 -5 5 -10 11 -10 5 0 7 5 4 10 -3 6 -8 10 -11 10 -2 0
-4 -4 -4 -10z"/>
<path d="M9580 2131 c-15 -29 -12 -33 10 -14 21 19 26 33 10 33 -5 0 -14 -9
-20 -19z"/>
<path d="M9795 2135 c17 -8 38 -14 48 -15 9 0 17 -4 17 -10 0 -5 10 -9 23 -9
16 1 18 2 5 6 -21 5 -23 19 -5 26 6 3 -4 6 -23 5 -19 0 -48 3 -65 6 l-30 6 30
-15z"/>
<path d="M4827 2126 c-6 -16 1 -26 19 -26 7 0 10 8 7 20 -6 23 -19 26 -26 6z"/>
<path d="M9980 2130 c0 -5 5 -10 11 -10 5 0 7 5 4 10 -3 6 -8 10 -11 10 -2 0
-4 -4 -4 -10z"/>
<path d="M4878 2109 c-17 -11 -4 -22 31 -25 40 -5 50 22 11 28 -16 3 -35 1
-42 -3z"/>
<path d="M9930 2090 c-6 -11 -8 -25 -5 -30 11 -18 20 -10 21 20 2 35 -1 37
-16 10z"/>
<path d="M10015 2090 c-15 -5 -13 -8 14 -20 37 -15 44 -11 21 11 -10 9 -24 13
-35 9z"/>
<path d="M4990 2080 c0 -5 7 -10 15 -10 8 0 15 5 15 10 0 6 -7 10 -15 10 -8 0
-15 -4 -15 -10z"/>
<path d="M9436 2076 c3 -8 13 -12 25 -9 23 6 15 23 -11 23 -12 0 -17 -5 -14
-14z"/>
<path d="M4955 2070 c3 -5 11 -10 16 -10 6 0 7 5 4 10 -3 6 -11 10 -16 10 -6
0 -7 -4 -4 -10z"/>
<path d="M4821 2059 c-14 -5 -36 -9 -50 -8 -14 1 -57 1 -95 1 -53 -2 -67 -5
-58 -14 13 -13 70 -21 92 -12 8 4 34 6 57 5 23 -2 51 3 63 9 24 13 42 4 20
-10 -8 -5 -12 -11 -10 -12 15 -12 60 -38 65 -38 16 0 1 20 -22 28 -25 9 -26
10 -5 11 28 1 28 15 0 35 -26 18 -25 18 -57 5z"/>
<path d="M9712 2048 c5 -15 28 -23 28 -10 0 5 -7 13 -16 16 -10 4 -14 1 -12
-6z"/>
<path d="M9995 2050 c3 -5 11 -10 16 -10 6 0 7 5 4 10 -3 6 -11 10 -16 10 -6
0 -7 -4 -4 -10z"/>
<path d="M4953 2038 c-20 -5 -33 -15 -33 -25 0 -12 3 -13 14 -4 8 7 27 16 42
20 16 4 24 10 19 13 -6 3 -25 1 -42 -4z"/>
<path d="M9950 2040 c-12 -8 -11 -10 8 -10 12 0 22 5 22 10 0 13 -11 13 -30 0z"/>
<path d="M2320 2031 c0 -5 -18 -12 -40 -16 -22 -4 -40 -11 -40 -16 0 -13 31
-10 59 5 14 8 32 11 40 8 14 -5 14 -3 2 11 -15 19 -21 21 -21 8z"/>
<path d="M9846 2012 c-3 -6 -1 -14 5 -17 14 -9 20 -2 10 14 -6 8 -11 9 -15 3z"/>
<path d="M9980 2016 c0 -2 7 -7 16 -10 8 -3 12 -2 9 4 -6 10 -25 14 -25 6z"/>
<path d="M10080 2001 c0 -25 6 -27 13 -6 4 8 2 17 -3 20 -6 4 -10 -3 -10 -14z"/>
<path d="M4990 1991 c0 -21 17 -37 27 -27 3 3 1 12 -5 19 -7 8 -9 17 -5 20 3
4 1 7 -5 7 -7 0 -12 -9 -12 -19z"/>
<path d="M10040 1990 c0 -5 7 -10 16 -10 8 0 12 5 9 10 -3 6 -10 10 -16 10 -5
0 -9 -4 -9 -10z"/>
<path d="M10012 1970 c7 -11 19 -20 27 -20 11 0 9 6 -7 20 -12 11 -24 20 -27
20 -3 0 0 -9 7 -20z"/>
<path d="M9950 1970 c0 -5 5 -10 10 -10 6 0 10 5 10 10 0 6 -4 10 -10 10 -5 0
-10 -4 -10 -10z"/>
<path d="M4946 1955 c-9 -10 -34 -15 -70 -15 -30 0 -58 -5 -61 -11 -4 -6 -20
-7 -38 -4 -25 6 -29 4 -20 -5 6 -7 25 -13 42 -14 17 -1 36 -7 42 -13 9 -9 18
-9 32 -1 12 6 22 6 26 1 13 -20 42 -23 48 -5 4 9 12 21 20 25 9 6 10 13 3 26
-5 10 -6 21 -3 25 3 3 4 6 0 6 -3 0 -12 -7 -21 -15z"/>
<path d="M9880 1962 c0 -11 24 -22 48 -22 21 0 5 15 -25 25 -13 3 -23 2 -23
-3z"/>
<path d="M10073 1958 c5 -15 0 -18 -29 -18 -21 0 -33 -4 -29 -10 7 -11 54 -3
70 11 5 6 4 14 -4 22 -11 10 -13 9 -8 -5z"/>
<path d="M1063 1893 c-7 -2 -13 -16 -13 -29 0 -13 -5 -24 -11 -24 -6 0 -8 9
-4 20 9 27 -12 26 -36 -2 -11 -11 -19 -23 -19 -25 0 -1 22 -3 49 -3 46 0 48 1
43 25 -3 20 0 25 17 25 11 0 21 5 21 10 0 10 -26 12 -47 3z"/>
<path d="M4980 1866 c0 -8 -3 -22 -7 -31 -5 -16 -4 -15 15 1 25 21 29 44 7 44
-8 0 -15 -6 -15 -14z"/>
<path d="M2186 1845 c-3 -9 0 -15 9 -15 9 0 12 6 9 15 -4 8 -7 15 -9 15 -2 0
-5 -7 -9 -15z"/>
<path d="M2520 1847 c0 -8 7 -14 15 -14 8 0 15 6 15 14 0 7 -7 13 -15 13 -8 0
-15 -6 -15 -13z"/>
<path d="M2570 1851 c0 -6 4 -13 10 -16 6 -3 7 1 4 9 -7 18 -14 21 -14 7z"/>
<path d="M3065 1851 c-3 -5 -1 -12 5 -16 5 -3 10 1 10 9 0 18 -6 21 -15 7z"/>
<path d="M3211 1846 c-8 -10 -9 -16 -1 -21 5 -3 13 1 16 10 9 22 -1 29 -15 11z"/>
<path d="M3246 1845 c-3 -8 -1 -15 4 -15 6 0 10 7 10 15 0 8 -2 15 -4 15 -2 0
-6 -7 -10 -15z"/>
<path d="M1110 1840 c0 -5 7 -10 15 -10 8 0 15 5 15 10 0 6 -7 10 -15 10 -8 0
-15 -4 -15 -10z"/>
<path d="M2410 1840 c-12 -8 -10 -10 8 -10 13 0 20 4 17 10 -7 12 -6 12 -25 0z"/>
<path d="M2730 1840 c0 -5 5 -10 11 -10 5 0 7 5 4 10 -3 6 -8 10 -11 10 -2 0
-4 -4 -4 -10z"/>
<path d="M3015 1840 c-3 -5 1 -10 10 -10 9 0 13 5 10 10 -3 6 -8 10 -10 10 -2
0 -7 -4 -10 -10z"/>
<path d="M3125 1840 c-3 -5 1 -10 9 -10 9 0 16 5 16 10 0 6 -4 10 -9 10 -6 0
-13 -4 -16 -10z"/>
<path d="M3280 1835 c0 -17 9 -19 28 -6 11 7 10 10 -3 15 -23 9 -25 8 -25 -9z"/>
<path d="M4610 1834 c0 -8 5 -12 10 -9 6 4 8 11 5 16 -9 14 -15 11 -15 -7z"/>
<path d="M4641 1834 c0 -11 3 -14 6 -6 3 7 2 16 -1 19 -3 4 -6 -2 -5 -13z"/>
<path d="M4560 1830 c0 -5 5 -10 10 -10 6 0 10 5 10 10 0 6 -4 10 -10 10 -5 0
-10 -4 -10 -10z"/>
<path d="M4695 1830 c3 -5 10 -10 16 -10 5 0 9 5 9 10 0 6 -7 10 -16 10 -8 0
-12 -4 -9 -10z"/>
<path d="M4730 1829 c0 -5 5 -7 10 -4 6 3 10 8 10 11 0 2 -4 4 -10 4 -5 0 -10
-5 -10 -11z"/>
<path d="M4935 1830 c3 -5 8 -10 11 -10 2 0 4 5 4 10 0 6 -5 10 -11 10 -5 0
-7 -4 -4 -10z"/>
<path d="M4921 824 c0 -11 3 -14 6 -6 3 7 2 16 -1 19 -3 4 -6 -2 -5 -13z"/>
<path d="M75 751 c-45 -3 -71 -9 -60 -12 17 -6 17 -7 3 -8 -10 0 -18 -5 -18
-11 0 -7 278 -10 813 -10 446 -1 1030 -3 1297 -5 738 -7 2831 -7 2838 -1 3 3
-4 6 -16 6 -11 0 -26 8 -31 18 -6 9 -11 11 -11 5 0 -7 -5 -13 -11 -13 -5 0 -8
4 -5 9 3 5 -12 11 -34 13 -28 2 -40 0 -40 -9 0 -10 -25 -13 -102 -12 -72 1
-92 4 -68 9 l35 7 -42 2 c-23 0 -45 -3 -48 -9 -4 -6 -100 -9 -263 -8 -203 2
-232 3 -137 8 135 7 118 10 -62 13 -68 1 -123 -1 -123 -5 0 -4 12 -9 28 -11
15 -2 -31 -5 -103 -5 -74 -1 -124 2 -117 7 11 7 11 9 -2 14 -8 3 -18 2 -22 -4
-3 -5 -15 -7 -26 -3 -13 4 -18 2 -14 -5 5 -7 -49 -10 -181 -9 -103 1 -168 4
-143 7 25 3 40 9 34 13 -16 11 -259 -1 -256 -12 1 -6 -39 -10 -99 -10 -64 0
-98 4 -94 10 3 6 -3 10 -14 10 -11 0 -23 -4 -26 -10 -8 -13 -75 -13 -75 0 0 6
14 10 32 10 17 0 29 3 26 6 -3 3 -34 2 -69 -2 -59 -8 -61 -9 -29 -15 l35 -6
-37 -2 c-28 -1 -38 3 -38 14 0 8 -4 15 -10 15 -5 0 -10 -6 -10 -13 0 -10 -25
-14 -100 -16 -70 -1 -100 2 -100 10 0 7 11 10 28 7 15 -3 38 -2 52 3 14 4 -42
7 -127 6 -98 -1 -153 -6 -153 -12 0 -7 -62 -10 -182 -9 -211 3 -232 5 -128 14
l75 6 -82 2 c-62 2 -81 -1 -78 -10 4 -10 -21 -13 -105 -12 -117 0 -166 13 -59
15 50 1 56 3 29 8 -19 3 -66 4 -105 2 -65 -4 -67 -5 -30 -12 39 -7 39 -7 -5
-3 -25 2 -62 7 -82 10 -25 4 -42 1 -51 -7 -10 -11 -38 -13 -113 -10 -66 2 -91
6 -74 11 l25 8 -27 1 c-16 1 -28 -3 -28 -9 0 -6 -90 -9 -252 -8 -197 2 -227 3
-138 8 135 7 115 11 -62 13 -97 2 -128 -1 -128 -10 0 -10 -26 -13 -102 -11
-57 0 -87 3 -68 5 19 3 40 9 45 15 7 6 -6 7 -40 2 -27 -4 -51 -11 -53 -15 -2
-5 -103 -8 -225 -7 -192 2 -206 3 -102 8 66 3 118 7 115 8 -13 6 -204 8 -275
3z m742 -17 c-3 -3 -12 -4 -19 -1 -8 3 -5 6 6 6 11 1 17 -2 13 -5z m2540 -10
c-3 -3 -12 -4 -19 -1 -8 3 -5 6 6 6 11 1 17 -2 13 -5z"/>
<path d="M380 748 c0 -4 37 -7 83 -7 92 1 86 6 -15 11 -38 2 -68 0 -68 -4z"/>
<path d="M710 750 c8 -5 20 -10 25 -10 6 0 3 5 -5 10 -8 5 -19 10 -25 10 -5 0
-3 -5 5 -10z"/>
<path d="M1505 750 c3 -5 12 -7 20 -3 21 7 19 13 -6 13 -11 0 -18 -4 -14 -10z"/>
<path d="M2310 750 c-13 -8 -12 -10 3 -10 9 0 17 5 17 10 0 12 -1 12 -20 0z"/>
<path d="M1118 743 c6 -2 18 -2 25 0 6 3 1 5 -13 5 -14 0 -19 -2 -12 -5z"/>
<path d="M1213 743 c26 -2 67 -2 90 0 23 2 2 3 -48 3 -49 0 -68 -1 -42 -3z"/>
<path d="M1428 743 c7 -3 16 -2 19 1 4 3 -2 6 -13 5 -11 0 -14 -3 -6 -6z"/>
<path d="M1908 743 c6 -2 18 -2 25 0 6 3 1 5 -13 5 -14 0 -19 -2 -12 -5z"/>
<path d="M2183 743 c15 -2 39 -2 55 0 15 2 2 4 -28 4 -30 0 -43 -2 -27 -4z"/>
<path d="M2735 740 c3 -5 8 -10 11 -10 2 0 4 5 4 10 0 6 -5 10 -11 10 -5 0 -7
-4 -4 -10z"/>
<path d="M3460 740 c0 -5 5 -10 10 -10 6 0 10 5 10 10 0 6 -4 10 -10 10 -5 0
-10 -4 -10 -10z"/>
<path d="M3525 740 c-3 -5 1 -10 9 -10 9 0 16 5 16 10 0 6 -4 10 -9 10 -6 0
-13 -4 -16 -10z"/>
<path d="M3590 738 c0 -4 14 -8 30 -8 17 0 30 2 30 4 0 2 -13 6 -30 8 -16 3
-30 1 -30 -4z"/>
<path d="M3670 740 c-13 -8 -12 -10 3 -10 9 0 17 5 17 10 0 12 -1 12 -20 0z"/>
<path d="M4328 733 c6 -2 18 -2 25 0 6 3 1 5 -13 5 -14 0 -19 -2 -12 -5z"/>
<path d="M4438 733 c23 -2 61 -2 85 0 23 2 4 4 -43 4 -47 0 -66 -2 -42 -4z"/>
<path d="M6990 600 c0 -5 5 -10 11 -10 5 0 7 5 4 10 -3 6 -8 10 -11 10 -2 0
-4 -4 -4 -10z"/>
<path d="M8698 603 c7 -3 16 -2 19 1 4 3 -2 6 -13 5 -11 0 -14 -3 -6 -6z"/>
<path d="M7755 560 c-3 -5 1 -10 10 -10 9 0 13 5 10 10 -3 6 -8 10 -10 10 -2
0 -7 -4 -10 -10z"/>
<path d="M9430 560 c8 -5 22 -9 30 -9 10 0 8 3 -5 9 -27 12 -43 12 -25 0z"/>
<path d="M9470 516 c0 -2 7 -7 16 -10 8 -3 12 -2 9 4 -6 10 -25 14 -25 6z"/>
<path d="M8330 496 c0 -2 7 -7 16 -10 8 -3 12 -2 9 4 -6 10 -25 14 -25 6z"/>
<path d="M9206 481 c-3 -4 6 -6 19 -3 14 2 25 6 25 8 0 8 -39 4 -44 -5z"/>
<path d="M5676 467 c3 -10 9 -15 12 -12 3 3 0 11 -7 18 -10 9 -11 8 -5 -6z"/>
<path d="M8861 466 c2 -2 14 -9 26 -15 19 -10 22 -9 17 4 -4 8 -15 15 -27 15
-11 0 -18 -2 -16 -4z"/>
<path d="M9020 446 c0 -2 7 -7 16 -10 8 -3 12 -2 9 4 -6 10 -25 14 -25 6z"/>
<path d="M5605 410 c3 -5 11 -10 16 -10 6 0 7 5 4 10 -3 6 -11 10 -16 10 -6 0
-7 -4 -4 -10z"/>
<path d="M9480 410 c0 -5 5 -10 10 -10 6 0 10 5 10 10 0 6 -4 10 -10 10 -5 0
-10 -4 -10 -10z"/>
<path d="M5875 370 c-3 -5 -1 -10 4 -10 6 0 11 5 11 10 0 6 -2 10 -4 10 -3 0
-8 -4 -11 -10z"/>
<path d="M6050 370 c0 -5 5 -10 11 -10 5 0 7 5 4 10 -3 6 -8 10 -11 10 -2 0
-4 -4 -4 -10z"/>
<path d="M7920 376 c0 -2 7 -6 15 -10 8 -3 15 -1 15 4 0 6 -7 10 -15 10 -8 0
-15 -2 -15 -4z"/>
<path d="M9185 360 c-3 -5 -1 -10 4 -10 6 0 11 5 11 10 0 6 -2 10 -4 10 -3 0
-8 -4 -11 -10z"/>
<path d="M8568 353 c6 -2 18 -2 25 0 6 3 1 5 -13 5 -14 0 -19 -2 -12 -5z"/>
<path d="M8265 340 c3 -5 18 -10 33 -9 24 0 25 1 7 9 -28 12 -47 12 -40 0z"/>
<path d="M5485 300 c3 -5 8 -10 11 -10 2 0 4 5 4 10 0 6 -5 10 -11 10 -5 0 -7
-4 -4 -10z"/>
<path d="M7790 290 c0 -5 5 -10 10 -10 6 0 10 5 10 10 0 6 -4 10 -10 10 -5 0
-10 -4 -10 -10z"/>
<path d="M9620 270 c0 -5 5 -10 11 -10 5 0 7 5 4 10 -3 6 -8 10 -11 10 -2 0
-4 -4 -4 -10z"/>
<path d="M6636 237 c3 -10 9 -15 12 -12 3 3 0 11 -7 18 -10 9 -11 8 -5 -6z"/>
<path d="M6945 240 c3 -5 11 -10 16 -10 6 0 7 5 4 10 -3 6 -11 10 -16 10 -6 0
-7 -4 -4 -10z"/>
<path d="M6055 230 c3 -5 8 -10 11 -10 2 0 4 5 4 10 0 6 -5 10 -11 10 -5 0 -7
-4 -4 -10z"/>
<path d="M8300 226 c0 -2 7 -7 16 -10 8 -3 12 -2 9 4 -6 10 -25 14 -25 6z"/>
<path d="M7820 190 c0 -6 7 -10 15 -10 8 0 15 2 15 4 0 2 -7 6 -15 10 -8 3
-15 1 -15 -4z"/>
<path d="M7520 176 c0 -2 7 -7 16 -10 8 -3 12 -2 9 4 -6 10 -25 14 -25 6z"/>
<path d="M9090 116 c0 -2 7 -7 16 -10 8 -3 12 -2 9 4 -6 10 -25 14 -25 6z"/>
<path d="M6925 50 c3 -5 8 -10 11 -10 2 0 4 5 4 10 0 6 -5 10 -11 10 -5 0 -7
-4 -4 -10z"/>
<path d="M9177 49 c7 -7 15 -10 18 -7 3 3 -2 9 -12 12 -14 6 -15 5 -6 -5z"/>
<path d="M6640 36 c0 -2 7 -6 15 -10 8 -3 15 -1 15 4 0 6 -7 10 -15 10 -8 0
-15 -2 -15 -4z"/>
<path d="M4230 20 c0 -5 5 -10 11 -10 5 0 7 5 4 10 -3 6 -8 10 -11 10 -2 0 -4
-4 -4 -10z"/>
<path d="M5368 3 c7 -3 16 -2 19 1 4 3 -2 6 -13 5 -11 0 -14 -3 -6 -6z"/>
</g>
</svg>
