<?xml version="1.0" standalone="no"?>
<!DOCTYPE svg PUBLIC "-//W3C//DTD SVG 20010904//EN"
 "http://www.w3.org/TR/2001/REC-SVG-20010904/DTD/svg10.dtd">
<svg version="1.0" xmlns="http://www.w3.org/2000/svg"
 width="800.000000pt" height="533.000000pt" viewBox="0 0 800.000000 533.000000"
 preserveAspectRatio="xMidYMid meet">

<g transform="translate(0.000000,533.000000) scale(0.100000,-0.100000)"
fill="#000000" stroke="none">
<path d="M0 3465 l0 -1866 38 8 c51 10 158 6 180 -6 12 -8 -6 -10 -69 -11 -48
0 -101 -3 -118 -6 l-31 -7 0 -788 0 -789 4000 0 4000 0 0 2665 0 2665 -4000 0
-4000 0 0 -1865z m6960 1841 c63 -12 79 -12 107 -1 43 18 42 4 -3 -42 -35 -36
-39 -37 -117 -40 -45 -2 -88 -9 -97 -16 -28 -22 -60 -37 -79 -37 -11 0 -23 -4
-26 -10 -3 -5 -19 -7 -35 -4 -22 5 -34 0 -55 -20 -14 -14 -35 -26 -45 -26 -11
0 -20 -4 -20 -8 0 -16 -98 -32 -126 -22 -33 13 -100 13 -125 0 -10 -6 -19 -7
-19 -3 0 5 -14 14 -30 20 -35 13 -32 34 6 51 13 7 24 16 24 22 0 5 6 10 14 10
7 0 19 6 25 14 22 26 64 26 103 0 21 -13 44 -24 52 -24 26 0 81 28 105 54 14
14 29 26 33 26 5 0 24 11 41 24 35 26 99 40 114 25 6 -6 22 -4 44 5 19 9 34
15 34 16 0 0 34 -6 75 -14z m-2640 -170 c0 -10 -17 -15 -61 -18 -60 -3 -84 4
-53 16 9 3 19 4 23 1 4 -2 21 0 37 5 43 12 54 12 54 -4z m-82 -551 c240 -30
475 -59 522 -64 47 -6 299 -38 560 -71 261 -33 538 -68 615 -77 77 -9 143 -20
147 -26 3 -6 7 -110 8 -231 1 -122 3 -233 5 -248 2 -21 -3 -29 -26 -39 -16 -6
-27 -14 -24 -17 2 -3 0 -11 -6 -19 -8 -9 -8 -13 -1 -13 6 0 14 5 17 10 3 6 16
10 28 10 l22 -1 -22 -18 c-27 -22 -30 -36 -7 -27 11 4 15 2 11 -8 -3 -8 -2
-16 3 -18 5 -2 10 -79 11 -171 l3 -168 -42 -39 c-41 -39 -52 -60 -32 -60 6 0
10 5 10 12 0 6 2 9 5 6 3 -2 0 -19 -6 -36 -6 -17 -9 -43 -7 -59 3 -24 6 -20
22 30 10 32 24 60 29 64 7 4 8 -1 3 -13 -5 -10 -10 -48 -12 -84 -5 -71 7 -61
24 20 l10 45 2 -45 c4 -95 21 -137 20 -50 0 30 0 78 1 105 l1 50 10 -40 c5
-22 7 -58 3 -80 -3 -24 -2 -35 3 -27 7 11 10 10 16 -3 3 -9 6 -26 5 -38 -1
-20 -2 -20 -10 3 -8 22 -8 22 -3 -5 13 -71 17 -85 25 -85 5 0 9 -4 9 -10 0 -5
-6 -10 -14 -10 -7 0 -16 -9 -19 -21 -4 -15 0 -23 14 -26 10 -3 16 -9 13 -15
-4 -5 -11 -5 -18 1 -9 7 -19 6 -34 -5 -27 -18 -28 -42 -4 -60 16 -13 16 -13 0
-14 -16 0 -18 -14 -18 -157 0 -87 3 -195 7 -240 l6 -83 111 1 c61 0 161 4 221
9 61 5 169 13 240 16 l130 7 4 -144 c4 -132 6 -183 10 -208 0 -6 18 -11 39
-13 l37 -3 6 -200 c4 -110 7 -257 8 -327 l1 -128 127 0 126 0 -7 231 c-5 167
-3 229 5 224 6 -4 8 -18 5 -30 -3 -13 -2 -27 4 -30 6 -4 10 8 10 29 l0 36 60
0 c64 0 66 -1 50 -31 -8 -15 -7 -23 5 -35 19 -20 19 -33 -1 -41 -15 -6 -15 -8
2 -21 15 -11 16 -15 5 -19 -11 -5 -11 -7 0 -14 11 -6 11 -11 2 -20 -7 -7 -9
-17 -4 -23 10 -13 23 -379 15 -413 -4 -12 -11 -23 -17 -23 -6 0 -19 -8 -30
-17 -18 -17 -19 -17 -32 0 -6 9 -17 17 -22 17 -5 0 -20 11 -33 25 -17 18 -21
31 -17 54 l6 30 -156 -6 c-156 -6 -156 -6 -150 16 7 29 -8 35 -45 17 -40 -20
-41 -20 -28 3 10 21 -3 40 -15 21 -12 -20 -27 -10 -21 14 3 14 2 28 -4 31 -6
4 -10 -11 -10 -37 0 -41 -1 -42 -15 -21 -15 21 -52 22 -39 2 3 -5 1 -9 -5 -9
-5 0 -13 5 -16 10 -10 16 -25 12 -19 -5 4 -8 1 -15 -5 -15 -7 0 0 -11 16 -24
l28 -24 -75 -6 c-41 -3 -165 -8 -275 -12 -183 -6 -198 -5 -186 10 8 9 11 19 8
22 -3 3 -12 -3 -19 -15 -23 -37 -38 -25 -38 30 0 62 -16 57 -26 -9 -6 -42 -8
-44 -17 -24 -13 29 -29 29 -22 -1 6 -21 3 -22 -40 -23 -47 0 -52 5 -35 37 14
25 5 24 -20 -1 -20 -20 -41 -27 -39 -13 1 5 1 28 0 53 -1 33 -4 41 -11 30 -5
-8 -10 -25 -10 -37 0 -12 -4 -24 -9 -27 -5 -4 -7 4 -4 16 3 17 2 19 -5 9 -5
-7 -15 -10 -21 -7 -7 5 -11 -3 -11 -20 0 -22 -3 -25 -12 -16 -18 18 -41 15
-34 -4 4 -10 1 -14 -6 -12 -7 3 -14 20 -16 38 -2 19 -7 29 -10 23 -4 -6 -17
-13 -29 -17 -19 -6 -22 -4 -16 11 5 15 3 16 -8 6 -18 -17 -34 -17 -20 0 6 8 8
17 4 20 -3 4 -11 -1 -18 -10 -18 -24 -35 -7 -35 35 0 28 -3 33 -10 22 -5 -8
-10 -26 -10 -40 0 -20 -2 -22 -10 -10 -8 13 -11 11 -16 -7 -9 -34 -24 -28 -24
11 0 18 -7 39 -15 46 -8 7 -12 16 -9 21 7 12 44 11 44 -1 0 -5 7 -10 15 -10 8
0 15 5 15 10 0 6 21 10 48 10 26 -1 56 1 67 4 11 2 37 5 58 5 32 1 37 4 37 24
-1 63 -30 87 -114 94 -22 2 -50 4 -61 5 -11 1 -44 -1 -74 -5 -34 -4 -59 -3
-68 4 -7 6 -21 8 -30 4 -24 -9 -223 -13 -228 -4 -3 3 -36 0 -75 -8 -54 -11
-74 -12 -85 -3 -9 7 -20 8 -32 3 -10 -5 -55 -8 -100 -6 -75 2 -85 0 -112 -22
-32 -27 -45 -32 -39 -13 3 7 -1 19 -9 26 -7 7 -13 25 -12 40 0 15 3 21 6 14 3
-9 9 -10 17 -3 16 14 8 101 -10 101 -12 0 -14 64 -15 398 -2 543 -4 586 -23
590 -24 5 -19 22 5 22 18 0 19 2 9 15 -9 11 -35 15 -101 15 -72 0 -89 -3 -89
-15 0 -11 12 -15 47 -15 25 0 44 -3 41 -6 -11 -10 -122 -16 -178 -9 -45 6 -51
9 -32 16 12 5 22 11 22 14 0 3 -93 3 -207 0 -115 -3 -202 -2 -195 1 21 10 13
32 -15 39 -16 4 -69 9 -120 11 -82 4 -91 2 -89 -13 2 -9 8 -19 14 -21 7 -2 12
-7 12 -12 0 -16 -46 -18 -105 -5 l-60 13 53 1 c44 1 52 4 52 20 0 23 -41 27
-362 36 -201 6 -225 2 -197 -31 6 -8 10 -16 8 -18 -9 -7 -79 7 -79 16 0 6 7 8
15 5 20 -8 30 12 14 28 -15 13 -153 9 -144 -5 8 -13 -129 -24 -295 -22 -449 5
-1080 37 -1080 54 0 5 -9 4 -20 -2 -17 -9 -20 -21 -20 -80 0 -61 2 -69 21 -75
12 -4 24 -3 28 2 3 6 47 14 96 19 112 11 1273 10 1375 -1 41 -5 206 -9 367 -9
160 -1 289 -4 286 -8 -2 -5 5 -8 16 -8 32 0 57 -69 32 -85 -5 -3 -148 -1 -318
5 -169 6 -616 17 -993 25 -377 9 -736 18 -797 22 l-113 6 0 -26 c0 -31 12 -36
65 -26 56 11 454 10 545 -1 41 -6 98 -14 125 -19 28 -6 88 -16 134 -24 47 -7
87 -19 89 -25 2 -7 10 -12 18 -12 8 0 22 -4 32 -9 9 -5 42 -14 72 -21 72 -15
120 -32 120 -41 0 -4 28 -21 63 -38 34 -17 78 -41 97 -53 19 -12 49 -29 65
-37 63 -34 95 -56 95 -66 0 -5 18 -21 40 -35 22 -13 40 -29 40 -35 1 -5 19
-23 40 -40 73 -55 60 -60 -171 -60 l-206 0 13 -30 c7 -16 20 -64 29 -105 8
-41 19 -80 23 -87 9 -15 712 -25 712 -10 0 17 -184 192 -220 210 -19 9 -28 17
-19 17 24 0 86 -44 152 -108 49 -48 62 -56 90 -54 23 2 38 -3 51 -16 17 -19
16 -21 -5 -36 -13 -8 -21 -17 -18 -19 2 -1 15 -8 29 -15 14 -7 40 -27 59 -44
l35 -31 -27 -23 c-33 -28 -34 -37 -4 -52 23 -12 78 -12 71 0 -2 4 0 9 5 13 18
10 54 -167 44 -215 -3 -17 -6 -30 -7 -30 -39 -12 -74 -8 -91 9 -18 21 -18 21
9 21 52 0 66 15 65 70 -1 28 -5 50 -8 50 -10 0 -52 -30 -82 -57 -18 -17 -43
-26 -80 -30 -51 -5 -55 -7 -54 -32 l0 -26 -117 -3 -118 -3 0 31 0 31 -74 -2
c-60 -1 -79 2 -103 19 -34 24 -176 67 -196 59 -12 -4 -13 -13 -7 -39 17 -70
25 -75 147 -81 50 -2 54 -11 14 -31 -27 -15 -71 -15 -167 0 -29 4 -31 8 -44
72 -22 115 -63 188 -96 175 -22 -8 -54 -87 -54 -134 0 -44 1 -43 -34 -29 -14
5 -26 6 -26 1 0 -5 9 -11 20 -14 22 -6 28 -27 8 -27 -20 1 -48 26 -48 42 0 9
-7 21 -15 28 -8 7 -15 22 -15 34 0 11 -5 28 -10 36 -7 11 -10 5 -10 -22 0 -21
4 -38 9 -38 16 0 0 -73 -21 -96 -10 -12 -18 -28 -16 -35 2 -10 -9 -15 -37 -17
-39 -3 -41 -1 -68 48 -16 27 -34 50 -40 51 -68 2 -481 -3 -491 -7 -7 -3 -30
-30 -51 -60 -36 -53 -39 -54 -85 -54 -26 0 -74 3 -107 6 l-60 6 -27 137 c-16
75 -33 144 -38 154 -9 17 -11 17 -28 2 -15 -14 -18 -14 -23 -1 -3 8 -4 24 -2
35 2 11 0 32 -5 48 -7 19 -9 -10 -7 -95 1 -67 -1 -122 -5 -122 -5 0 -8 -40 -8
-90 0 -49 -3 -90 -6 -90 -3 0 -18 9 -33 19 -62 45 -126 35 -197 -31 -29 -27
-45 -35 -50 -27 -4 8 -3 9 4 5 7 -4 12 -1 12 8 0 8 3 16 8 19 4 2 0 2 -8 -1
-50 -16 -80 10 -80 70 0 27 -4 38 -15 38 -11 0 -15 11 -15 39 0 22 4 41 10 43
5 2 12 56 14 121 5 107 3 117 -13 117 -14 0 -17 8 -15 48 1 26 -4 50 -10 55
-8 5 -6 10 4 17 13 8 12 11 -5 24 -17 12 -20 26 -20 95 l0 81 67 0 68 0 0 63
c1 227 21 1134 26 1149 3 10 12 18 20 18 8 0 27 11 42 25 41 38 48 30 8 -10
-64 -62 -57 -65 127 -63 89 1 137 3 107 5 -30 1 -79 5 -109 9 l-54 6 6 56 c3
31 11 58 17 60 5 2 10 12 10 23 0 10 5 19 10 19 6 0 10 -33 10 -80 0 -64 3
-80 15 -80 13 0 15 21 15 133 0 89 -3 127 -10 117 -5 -8 -10 -10 -10 -4 0 6 7
17 15 24 8 7 15 9 15 6 0 -4 9 -2 20 4 13 7 20 21 20 40 0 17 4 30 9 30 17 0
63 43 52 49 -8 5 -6 13 4 27 13 17 15 13 16 -46 1 -36 6 18 10 118 4 101 9
186 11 188 7 7 130 -17 187 -36 61 -21 82 -22 248 -14 94 5 124 2 195 -16 70
-18 99 -21 183 -15 77 5 119 2 180 -11 47 -10 149 -20 245 -23 161 -6 167 -7
230 -39 122 -61 115 -46 117 -235 2 -160 2 -165 -17 -160 -11 3 -27 0 -35 -7
-33 -27 -26 1 9 36 20 20 36 38 36 41 0 3 -12 2 -27 -1 -21 -5 -24 -4 -13 4
12 8 12 10 1 10 -11 0 -11 4 2 18 18 20 22 42 8 42 -10 0 -62 -39 -73 -55 -5
-7 -8 -7 -8 1 0 5 7 19 15 30 21 28 19 46 -7 42 -12 -2 -28 -14 -35 -28 l-12
-25 -11 32 c-12 33 -40 53 -40 28 0 -7 5 -17 10 -20 6 -3 10 -11 10 -16 0 -6
-4 -7 -10 -4 -5 3 -10 -2 -10 -11 0 -16 -1 -16 -20 1 -22 20 -26 14 -10 -15 9
-17 6 -18 -38 -15 -46 5 -46 4 -17 -9 17 -7 36 -21 44 -30 14 -16 12 -17 -25
-11 l-39 7 24 -18 24 -17 -24 -10 c-23 -9 -23 -9 -4 -17 11 -5 32 -9 46 -9 26
-1 65 -31 40 -31 -6 0 -11 -9 -11 -20 0 -21 -20 -29 -20 -7 -1 7 -6 5 -14 -5
-7 -10 -18 -18 -23 -18 -15 0 -23 -38 -9 -44 6 -2 0 -5 -13 -5 -18 -1 -21 -4
-12 -14 6 -8 8 -17 4 -20 -3 -4 2 -7 13 -7 40 0 362 -20 432 -26 71 -6 74 -8
69 -30 -5 -30 -37 -27 623 -64 686 -38 791 -42 807 -28 9 8 13 7 13 -3 0 -8 6
-5 15 7 14 19 14 19 15 0 0 -28 13 -11 15 19 0 16 -4 24 -11 21 -7 -3 -15 3
-19 12 -5 14 -7 14 -15 2 -8 -12 -10 -12 -10 -1 0 11 -3 11 -15 1 -10 -9 -15
-9 -15 -1 0 21 -20 11 -26 -14 -8 -32 -24 -33 -24 -2 0 19 -8 26 -40 36 -23 7
-49 10 -58 7 -40 -13 -41 -4 -42 384 -1 206 -1 393 -1 415 l1 40 53 0 c28 1
70 2 92 3 43 1 91 -3 115 -11 63 -20 139 -31 217 -29 52 1 95 -3 98 -8 4 -7
13 -6 26 0 15 9 21 7 25 -5 7 -16 44 -21 44 -5 0 18 17 11 23 -9 3 -14 11 -17
30 -14 33 6 37 -3 46 -100 l8 -82 3 60 c1 33 5 71 9 84 6 21 8 22 19 8 23 -27
31 -330 34 -1334 3 -829 5 -974 17 -978 14 -6 33 13 26 25 -2 4 -7 173 -10
376 -2 203 -7 457 -10 564 -13 434 -23 1232 -18 1305 5 66 8 75 19 61 10 -14
14 -15 21 -4 4 7 34 33 66 57 31 24 57 47 57 51 0 6 -186 30 -237 30 -13 0
-24 -8 -28 -20 -5 -15 -15 -20 -45 -20 -21 0 -42 5 -45 10 -3 6 -16 10 -28 10
-12 0 -29 5 -37 11 -11 8 -4 9 28 5 23 -4 42 -2 42 3 0 5 -28 12 -62 16 -35 3
-87 10 -117 16 -78 13 -95 12 -119 -11 -12 -11 -34 -20 -49 -20 -47 0 -103 12
-98 21 3 4 -12 6 -32 4 -37 -5 -37 -4 -10 7 55 24 37 30 -142 52 -317 39 -474
57 -576 66 -60 5 -186 18 -279 29 l-169 20 -186 -115 c-102 -64 -210 -131
-238 -150 -29 -19 -66 -34 -82 -34 -23 0 -32 -7 -46 -36 l-17 -37 -97 6 c-98
5 -189 14 -456 43 -82 9 -208 20 -280 24 -190 12 -233 19 -262 46 l-26 24 27
0 c14 0 26 4 26 10 0 18 -43 32 -120 37 -68 5 -78 3 -84 -12 -4 -10 -2 -21 4
-25 7 -5 5 -11 -5 -20 -17 -14 -147 -16 -168 -3 -5 3 -7 23 -4 44 5 37 4 39
-26 44 -18 3 -56 7 -86 8 -49 2 -56 0 -68 -23 -21 -41 -15 -7 7 38 17 34 20
62 20 169 0 70 4 134 9 141 9 14 71 9 441 -33 69 -8 193 -22 275 -30 610 -63
714 -74 841 -88 78 -9 118 -10 136 -2 21 9 135 88 391 272 39 29 73 52 75 53
2 0 200 -25 440 -55z m-2618 -179 c0 -3 -4 -8 -10 -11 -5 -3 -10 -1 -10 4 0 6
5 11 10 11 6 0 10 -2 10 -4z m-28 -48 c-7 -7 -12 -8 -12 -2 0 14 12 26 19 19
2 -3 -1 -11 -7 -17z m20 -98 l-8 -75 -5 57 c-2 31 -1 54 4 51 4 -2 8 15 8 39
1 24 3 34 6 23 2 -11 0 -54 -5 -95z m2588 -45 c0 -8 -9 -15 -20 -15 -13 0 -18
5 -14 15 4 8 12 15 20 15 8 0 14 -7 14 -15z m-2710 -5 c0 -5 -5 -10 -11 -10
-5 0 -7 5 -4 10 3 6 8 10 11 10 2 0 4 -4 4 -10z m2320 -10 c0 -13 -7 -20 -18
-20 -11 0 -18 7 -18 20 0 13 7 20 18 20 11 0 18 -7 18 -20z m800 -25 c0 -8 -9
-15 -20 -15 -11 0 -20 7 -20 15 0 8 9 15 20 15 11 0 20 -7 20 -15z m-433 -19
c4 -4 1 -11 -7 -16 -13 -8 -13 -10 1 -10 11 0 18 -11 21 -30 l4 -30 -67 3
c-52 2 -65 5 -57 15 7 8 7 16 -2 27 -6 8 -9 23 -5 36 6 19 13 21 56 17 27 -3
53 -8 56 -12z m-537 -51 c0 -16 -6 -25 -15 -25 -16 0 -19 9 -9 34 9 25 24 19
24 -9z m265 15 c-3 -5 -2 -10 3 -10 5 0 10 -20 10 -44 l2 -44 -55 1 c-30 1
-55 5 -55 9 0 4 -8 8 -19 8 -30 0 -45 25 -26 44 9 9 21 14 26 10 12 -7 89 5
88 14 -3 16 2 22 17 22 8 0 12 -4 9 -10z m643 4 c25 -5 32 -13 40 -45 5 -22 6
-42 1 -44 -4 -3 -31 -3 -59 1 -36 5 -50 11 -46 20 3 7 -2 15 -10 18 -14 6 -19
37 -7 49 8 9 41 9 81 1z m-2983 -58 c-16 -24 -35 -35 -35 -19 0 10 43 54 48
49 2 -2 -4 -16 -13 -30z m3463 -3 c-10 -2 -26 -2 -35 0 -10 3 -2 5 17 5 19 0
27 -2 18 -5z m59 -9 c-3 -3 -12 -4 -19 -1 -8 3 -5 6 6 6 11 1 17 -2 13 -5z
m-1352 -44 c-1 -17 3 -34 10 -38 16 -10 26 -52 11 -46 -6 2 -19 -9 -29 -26
-10 -16 -13 -30 -8 -30 19 0 12 -16 -14 -30 -37 -20 -24 -23 26 -6 28 10 48
12 58 6 13 -7 10 -9 -11 -10 -15 0 -30 -5 -34 -12 -5 -8 -2 -9 10 -5 9 4 15 3
12 -2 -3 -4 -21 -11 -41 -14 -19 -3 -48 -15 -64 -26 -16 -12 -32 -21 -35 -21
-13 0 -5 31 9 36 8 4 15 12 15 19 0 10 -10 12 -35 8 -21 -3 -35 -2 -35 5 0 11
96 62 117 62 7 0 13 4 13 10 0 16 -41 32 -66 26 -14 -4 -24 -2 -24 4 0 6 -11
15 -25 20 -29 11 -33 34 -7 46 9 4 38 6 64 5 43 -3 49 0 58 23 13 35 27 33 25
-4z m-2270 10 c-3 -5 -10 -10 -16 -10 -5 0 -9 5 -9 10 0 6 7 10 16 10 8 0 12
-4 9 -10z m65 7 c0 -2 -11 -17 -25 -33 -19 -22 -25 -25 -25 -12 0 9 10 24 22
32 23 16 28 19 28 13z m3903 -4 c-7 -2 -21 -2 -30 0 -10 3 -4 5 12 5 17 0 24
-2 18 -5z m-1965 -25 c2 -9 -4 -18 -11 -21 -10 -4 -16 2 -19 18 -4 17 -1 22
11 20 9 -1 17 -9 19 -17z m-1988 -46 c0 -5 -9 -17 -20 -27 -23 -21 -26 -14 -8
15 13 20 28 27 28 12z m2076 -58 c-3 -8 -12 -14 -21 -14 -18 0 -18 1 -4 37 9
25 11 26 21 10 5 -10 7 -25 4 -33z m119 7 c-17 -16 -116 -63 -122 -57 -12 11
8 36 29 37 13 0 39 7 58 14 44 17 46 17 35 6z m-2392 -16 c-3 -9 -8 -14 -10
-11 -3 3 -2 9 2 15 9 16 15 13 8 -4z m127 -30 c-7 -9 -15 -13 -18 -10 -3 2 1
11 8 20 7 9 15 13 18 10 3 -2 -1 -11 -8 -20z m-42 -55 c-7 -10 -14 -17 -17
-15 -4 4 18 35 25 35 2 0 -1 -9 -8 -20z m-28 -34 c0 -3 -4 -8 -10 -11 -5 -3
-10 -1 -10 4 0 6 5 11 10 11 6 0 10 -2 10 -4z m2260 -16 c0 -5 -4 -10 -10 -10
-5 0 -10 5 -10 10 0 6 5 10 10 10 6 0 10 -4 10 -10z m-2290 -24 c0 -3 -4 -8
-10 -11 -5 -3 -10 -1 -10 4 0 6 5 11 10 11 6 0 10 -2 10 -4z m-67 -101 c-17
-23 -33 -32 -33 -18 0 10 32 43 42 43 5 0 1 -11 -9 -25z m-42 -58 c-10 -9 -11
-8 -5 6 3 10 9 15 12 12 3 -3 0 -11 -7 -18z m-37 -44 c-22 -35 -44 -57 -44
-46 0 10 50 73 58 73 2 0 -4 -12 -14 -27z m1986 -5 c0 -6 -6 -5 -15 2 -8 7
-15 14 -15 16 0 2 7 1 15 -2 8 -4 15 -11 15 -16z m3012 -60 c-7 -7 -12 -8 -12
-2 0 14 12 26 19 19 2 -3 -1 -11 -7 -17z m-5060 -20 c-7 -7 -12 -8 -12 -2 0
14 12 26 19 19 2 -3 -1 -11 -7 -17z m2260 -20 c-7 -7 -12 -8 -12 -2 0 6 3 14
7 17 3 4 9 5 12 2 2 -3 -1 -11 -7 -17z m-1822 -18 c0 -5 -4 -10 -10 -10 -5 0
-10 5 -10 10 0 6 5 10 10 10 6 0 10 -4 10 -10z m4834 -49 c-7 -7 -12 3 -18 34
l-6 30 14 -30 c8 -16 12 -32 10 -34z m36 24 c0 -5 -5 -3 -10 5 -5 8 -10 20
-10 25 0 6 5 3 10 -5 5 -8 10 -19 10 -25z m-4870 -17 c0 -5 -4 -7 -9 -3 -5 3
-12 -3 -14 -12 -3 -11 -5 -8 -6 9 -1 20 3 26 14 22 8 -4 15 -10 15 -16z m-160
-53 c0 -33 -15 -33 -16 0 -1 14 2 25 7 25 5 0 9 -11 9 -25z m4835 -137 c6 -4
2 -8 -7 -8 -10 0 -18 7 -18 17 0 9 3 12 8 7 4 -5 12 -12 17 -16z m-5718 -280
c-3 -8 -6 -5 -6 6 -1 11 2 17 5 13 3 -3 4 -12 1 -19z m150 -25 c-3 -10 -5 -4
-5 12 0 17 2 24 5 18 2 -7 2 -21 0 -30z m5619 -10 c-10 -10 -19 5 -10 18 6 11
8 11 12 0 2 -7 1 -15 -2 -18z m-5569 -5 c-3 -8 -6 -5 -6 6 -1 11 2 17 5 13 3
-3 4 -12 1 -19z m6480 -70 c-3 -8 -6 -5 -6 6 -1 11 2 17 5 13 3 -3 4 -12 1
-19z m-6297 -132 c-7 -7 -13 -7 -20 0 -6 6 -3 10 10 10 13 0 16 -4 10 -10z
m60 -86 c0 -5 -2 -10 -4 -10 -3 0 -8 5 -11 10 -3 6 -1 10 4 10 6 0 11 -4 11
-10z m3658 -26 l82 -6 0 -442 c0 -244 3 -483 6 -532 6 -78 4 -92 -11 -108 -10
-10 -14 -21 -9 -24 5 -4 9 -20 10 -37 0 -16 4 -49 8 -72 8 -42 7 -43 -18 -41
-28 3 -31 10 -17 36 6 11 5 35 -2 65 -8 37 -13 44 -24 36 -17 -14 -17 2 0 20
10 11 10 13 0 7 -8 -5 -13 -1 -13 9 0 9 -6 15 -12 12 -7 -2 -12 -12 -10 -22 2
-10 -1 -14 -7 -10 -6 3 -11 25 -12 48 -1 41 -1 42 -10 11 -5 -17 -18 -39 -29
-49 -20 -18 -20 -18 -20 23 0 53 -16 63 -25 15 -4 -23 -9 -32 -14 -24 -6 9
-10 7 -14 -8 -8 -34 -27 -24 -27 14 0 40 -17 47 -26 10 -3 -14 -10 -25 -15
-25 -5 0 -9 -8 -9 -17 -1 -41 -20 13 -21 57 l-1 45 -14 -30 c-13 -28 -12 -100
2 -160 5 -19 4 -19 -9 -2 -10 12 -16 14 -19 6 -2 -7 -10 7 -16 30 -7 22 -17
41 -22 41 -14 0 -12 -28 5 -73 l13 -39 -26 24 c-20 18 -19 14 6 -15 39 -46 40
-55 5 -51 -27 2 -27 2 -9 -12 11 -8 26 -14 34 -14 7 0 11 -4 8 -9 -4 -5 3 -7
14 -4 16 4 20 0 20 -21 0 -22 3 -24 23 -17 12 5 21 14 20 20 -2 6 4 11 12 11
9 0 15 -9 15 -22 0 -13 5 -30 10 -38 9 -13 11 -13 20 0 6 8 8 23 6 33 -3 13 0
17 12 15 10 -2 16 -12 15 -22 -1 -11 3 -30 8 -43 13 -35 32 -18 26 23 -3 19
-3 34 1 34 10 0 282 -37 381 -51 47 -7 80 -14 74 -16 -14 -5 -5 -94 11 -111 9
-9 11 3 11 53 -1 55 1 65 16 65 27 0 50 -11 43 -21 -3 -5 0 -9 5 -9 6 0 11 5
11 10 0 6 9 10 20 10 13 0 18 -5 14 -15 -8 -21 5 -105 16 -105 5 0 7 6 4 13
-2 7 2 27 11 43 14 26 13 30 -2 42 -14 10 -10 12 28 12 28 0 39 -3 30 -9 -9
-6 -10 -11 -2 -15 6 -4 14 0 17 8 3 9 12 16 20 16 10 0 14 -15 14 -54 0 -49 2
-55 20 -53 17 1 20 8 20 43 0 24 -5 45 -12 48 -7 4 16 4 51 1 35 -3 67 -7 69
-10 3 -3 5 -21 4 -40 -1 -32 1 -35 26 -35 21 0 28 5 28 19 0 11 -4 19 -9 18
-5 -1 -11 9 -12 22 -2 22 0 23 43 17 25 -3 55 -6 67 -6 18 0 21 -4 17 -25 -2
-14 -11 -25 -19 -25 -10 0 -12 6 -8 20 4 12 2 20 -5 20 -13 0 -41 -25 -41 -37
0 -12 90 -19 153 -13 49 4 55 7 53 28 -1 15 4 22 17 22 14 0 17 -6 14 -25 -4
-23 -2 -25 30 -25 34 0 49 22 22 33 -7 3 6 6 30 6 40 1 56 -12 30 -22 -7 -3
-5 -6 6 -6 10 -1 24 6 31 16 12 16 40 9 30 -8 -4 -5 6 -9 22 -9 22 0 25 2 13
11 -11 7 20 8 105 4 109 -6 134 -12 135 -36 0 -3 -11 -16 -25 -29 -30 -28 -32
-40 -5 -40 14 0 20 7 20 23 0 16 3 18 9 8 15 -23 31 -3 21 25 -9 22 -7 25 7
22 13 -2 17 -11 15 -31 -3 -20 1 -27 13 -27 10 0 13 -4 8 -12 -12 -20 -12 -62
0 -76 6 -8 12 -23 12 -34 2 -18 0 -19 -10 -5 -7 9 -20 14 -31 11 -21 -6 -52
21 -40 33 3 4 13 -2 21 -13 20 -26 36 -2 24 38 -4 16 -5 36 -2 44 7 18 -11 18
-26 0 -9 -11 -9 -15 1 -19 8 -2 9 -8 4 -13 -5 -5 -11 -4 -13 4 -3 6 -18 12
-34 12 -38 0 -39 27 -3 64 25 25 26 26 6 26 -11 0 -24 -4 -27 -10 -3 -5 -25
-7 -49 -4 -25 4 -52 1 -65 -6 -17 -8 -26 -8 -36 0 -9 8 -15 8 -20 0 -5 -8 -11
-8 -21 1 -11 9 -18 8 -31 -2 -13 -11 -17 -11 -20 -1 -3 6 -9 12 -14 12 -13 0
-11 -54 2 -67 7 -7 6 -12 -3 -16 -9 -3 -15 4 -16 21 -1 15 -9 33 -17 42 -14
13 -17 13 -25 0 -8 -12 -13 -13 -30 -2 -23 14 -33 16 -26 3 6 -10 -68 -6 -85
5 -6 3 -16 0 -21 -7 -6 -9 -11 -10 -14 -3 -6 14 -50 6 -65 -12 -15 -18 -29
-18 -29 1 0 17 -9 19 -29 6 -7 -5 -10 -14 -7 -20 4 -6 3 -11 -1 -11 -5 0 -13
8 -20 19 -14 22 -65 18 -56 -5 3 -8 0 -14 -6 -14 -7 0 -14 7 -17 15 -4 8 -15
15 -26 15 -14 0 -18 -5 -13 -19 3 -11 -1 -24 -12 -32 -16 -12 -17 -12 -6 1 6
9 9 21 5 26 -10 16 -52 28 -52 14 0 -6 -8 -14 -17 -17 -10 -4 -23 -14 -30 -22
-6 -9 -15 -13 -19 -9 -9 10 15 38 32 38 8 0 14 4 14 8 0 5 -15 8 -33 8 -29 -1
-33 -4 -29 -21 5 -16 3 -18 -9 -8 -22 18 -125 23 -146 7 -17 -12 -17 -13 2
-27 17 -13 18 -18 7 -41 -6 -14 -16 -26 -22 -26 -14 0 -12 9 5 27 14 14 14 17
-2 36 -33 37 -113 56 -113 26 0 -4 -22 -5 -48 -2 -33 3 -58 1 -76 -9 l-27 -14
35 -37 c19 -20 39 -37 45 -37 16 0 13 -17 -4 -24 -18 -7 -20 -37 -2 -55 10
-11 8 -11 -10 -2 -13 6 -23 17 -23 24 0 7 -9 18 -20 25 -11 7 -20 19 -20 28 0
8 -4 12 -10 9 -5 -3 -10 1 -10 10 0 9 4 14 9 10 5 -3 12 -1 16 5 10 16 -18 12
-43 -6 -22 -15 -24 -15 -36 2 -11 15 -11 20 0 32 8 7 14 21 14 30 0 14 -2 15
-9 3 -8 -12 -15 -13 -35 -3 -21 9 -27 9 -35 -5 -7 -13 -1 -25 27 -50 20 -18
44 -33 54 -33 11 0 29 -10 42 -23 24 -24 43 -77 27 -77 -14 0 -33 28 -26 40 6
10 -31 49 -47 50 -4 0 -1 -15 7 -33 12 -30 12 -34 -1 -34 -10 0 -14 7 -11 19
7 23 -13 35 -27 16 -13 -17 -46 -31 -46 -19 0 5 6 11 13 14 8 3 1 16 -20 38
-31 32 -59 35 -33 4 7 -8 8 -15 2 -15 -17 0 -23 32 -9 54 26 41 28 56 7 56
-11 0 -20 -6 -20 -12 0 -7 -7 -26 -15 -42 -8 -15 -13 -31 -10 -36 2 -4 -7 -12
-20 -18 -28 -13 -33 -32 -10 -32 8 0 15 -4 15 -10 0 -5 5 -10 10 -10 14 0 12
28 -2 32 -8 3 -9 6 -1 11 6 4 21 -1 33 -11 l22 -18 -26 -14 c-29 -15 -36 -33
-9 -23 11 4 14 3 9 -5 -9 -15 -33 -15 -38 -1 -8 23 -88 -22 -88 -49 0 -6 -9
-16 -19 -22 -25 -13 -34 -13 -26 0 3 5 0 10 -7 10 -7 0 3 10 22 22 19 13 37
26 38 30 2 5 10 8 18 8 8 0 14 5 14 10 0 6 10 10 22 10 21 0 21 0 2 21 -16 18
-19 19 -22 5 -2 -9 -8 -16 -14 -16 -6 0 -8 11 -6 25 3 14 2 25 -2 25 -10 0 -9
33 3 47 11 15 -10 18 -32 4 -10 -7 -11 -13 -2 -30 12 -22 7 -41 -11 -41 -7 0
-6 6 2 15 10 12 10 15 -3 15 -17 0 -28 32 -17 50 4 7 15 10 24 7 12 -5 16 0
16 15 0 17 -3 19 -12 10 -7 -7 -26 -12 -44 -12 -17 0 -37 -7 -44 -15 -13 -16
-40 -21 -40 -7 0 4 19 15 43 24 39 15 40 17 13 17 -16 1 -44 -9 -63 -20 -37
-23 -59 -18 -27 6 18 14 18 14 -4 15 -12 0 -25 -7 -28 -15 -3 -8 -14 -17 -24
-20 -17 -5 -21 -27 -7 -41 3 -4 -5 -21 -18 -39 -31 -40 -31 -45 -2 -45 28 0
30 -31 4 -57 -16 -16 -17 -16 -17 0 0 9 -5 17 -11 17 -6 0 -8 9 -4 20 5 16 0
22 -21 31 -33 12 -77 4 -71 -14 5 -16 33 -16 29 1 -2 14 7 15 28 2 13 -8 13
-10 -2 -10 -9 0 -21 -8 -27 -17 -9 -17 -11 -17 -25 2 -19 25 -20 55 -3 55 9 0
12 10 9 30 -3 23 -9 30 -27 30 -13 0 -31 3 -41 7 -12 4 -15 3 -10 -5 4 -7 2
-12 -5 -12 -7 0 -9 -8 -6 -21 6 -22 -18 -57 -31 -45 -3 4 -2 10 4 14 6 4 10
25 9 47 -4 51 -3 49 -20 35 -12 -10 -13 -16 -4 -26 14 -17 -2 -19 -19 -2 -6 6
-15 8 -19 4 -5 -4 0 -13 10 -20 9 -7 17 -17 17 -21 0 -4 -7 -2 -15 5 -9 8 -15
9 -15 2 0 -6 5 -14 10 -17 6 -3 10 -11 10 -17 0 -6 -3 -8 -7 -5 -3 4 -17 0
-29 -8 -14 -9 -25 -11 -29 -5 -3 5 6 12 20 16 24 6 36 24 15 24 -8 0 -58 -20
-69 -27 -2 -1 2 -9 9 -18 8 -9 8 -15 2 -15 -6 0 -14 5 -18 11 -4 7 -17 0 -35
-17 -37 -35 -49 -25 -15 11 28 30 33 45 15 45 -5 0 -7 5 -4 10 5 8 11 7 21 -1
19 -16 68 -3 60 16 -3 8 -1 15 4 15 6 0 10 -4 10 -10 0 -5 4 -10 9 -10 12 0 8
39 -5 61 -10 19 -74 36 -74 21 0 -6 -17 -8 -42 -5 -34 5 -40 4 -35 -9 4 -12 1
-14 -14 -11 -10 3 -19 0 -19 -6 0 -6 5 -11 10 -11 19 0 10 -24 -17 -47 -23
-18 -25 -22 -10 -23 17 0 17 -1 3 -16 -9 -8 -21 -24 -26 -35 -6 -10 -25 -22
-43 -27 -17 -5 -31 -14 -29 -21 2 -13 -24 -15 -32 -2 -3 5 2 12 12 16 16 7 15
8 -3 16 -15 7 -10 8 18 5 22 -3 35 -1 32 5 -4 5 1 9 9 9 8 0 20 9 26 21 13 24
4 41 -11 19 -8 -13 -10 -13 -18 -1 -10 15 -41 8 -41 -10 0 -6 7 -9 15 -6 8 4
17 2 20 -3 7 -12 -21 -12 -49 -1 -17 7 -17 8 -2 23 9 9 13 24 10 32 -3 9 -1
16 5 16 6 0 11 5 11 12 0 9 -3 9 -11 1 -6 -6 -18 -9 -25 -6 -16 6 -19 -8 -4
-23 7 -7 5 -18 -8 -35 -11 -13 -17 -29 -15 -36 7 -19 -10 -22 -42 -7 -30 13
-30 13 -2 8 20 -5 27 -2 27 10 0 9 0 19 0 24 0 4 -6 7 -12 7 -7 0 -12 -7 -10
-15 3 -11 -2 -10 -17 4 -12 11 -21 22 -21 25 0 12 63 6 68 -6 6 -20 18 -15 18
7 0 11 -6 20 -13 20 -11 0 -11 5 -3 20 9 16 8 20 -5 20 -10 0 -13 -5 -9 -11 5
-9 -2 -10 -22 -6 -16 3 -23 4 -16 1 13 -6 17 -34 5 -34 -19 1 -35 19 -30 34 4
10 1 16 -9 16 -18 0 -14 -60 6 -85 11 -13 10 -18 -6 -30 -18 -14 -17 -14 11
-15 25 -1 27 -2 13 -11 -10 -5 -18 -17 -18 -26 0 -9 -6 -13 -14 -10 -10 4 -13
1 -9 -9 3 -7 1 -14 -5 -14 -17 0 -19 23 -5 69 10 36 11 46 1 53 -21 13 -31 9
-24 -8 4 -12 2 -15 -9 -10 -8 3 -15 1 -15 -5 0 -5 7 -12 15 -15 22 -9 18 -24
-5 -24 -11 0 -20 7 -20 15 0 8 -5 15 -11 15 -8 0 -8 4 -2 13 7 8 6 22 -3 42
-8 18 -13 23 -14 13 0 -10 -10 -27 -22 -39 -23 -21 -23 -21 -1 -10 26 13 44
15 24 2 -21 -13 2 -61 28 -61 25 0 32 -22 12 -37 -14 -10 -13 -13 9 -22 14 -5
19 -10 11 -10 -21 -1 -51 29 -45 44 7 16 -16 31 -25 17 -3 -6 -20 -13 -36 -16
-24 -5 -26 -5 -9 3 38 17 38 42 -2 64 -12 7 -12 -21 0 -41 4 -7 2 -12 -4 -12
-17 0 -37 23 -32 38 2 6 -1 12 -7 12 -6 0 -11 -4 -11 -8 0 -5 -19 -15 -42 -22
-24 -7 -37 -15 -30 -17 6 -3 10 -9 6 -14 -3 -5 0 -9 5 -9 29 0 -15 -70 -53
-84 -10 -3 -16 -9 -13 -13 4 -3 18 2 33 12 21 14 31 15 51 6 33 -15 46 -14 39
4 -3 8 -2 15 3 15 5 0 14 -7 21 -15 12 -14 40 -21 40 -10 0 13 -45 65 -56 65
-7 0 -16 -9 -19 -20 -3 -11 -12 -20 -19 -20 -24 0 -25 12 -3 31 14 12 18 21
12 26 -6 5 -11 13 -10 20 0 22 14 25 37 9 21 -15 21 -16 3 -17 -17 -1 -17 -2
-2 -6 9 -2 17 -8 17 -13 0 -4 9 -10 21 -13 12 -3 18 -10 15 -15 -6 -10 20 -36
46 -45 22 -8 32 7 14 22 -11 9 -15 9 -19 -1 -4 -10 -8 -10 -16 2 -7 11 -7 16
2 19 7 2 15 8 18 14 4 5 12 0 18 -12 7 -11 22 -21 34 -22 21 0 21 -1 2 -9 -15
-7 -10 -9 23 -9 51 -1 57 1 56 17 -2 16 1 15 19 -2 8 -9 24 -12 36 -9 27 7 27
19 -1 28 -20 6 -21 8 -5 12 19 5 54 -29 36 -35 -5 -2 -9 -19 -9 -37 0 -19 -4
-37 -10 -40 -5 -3 -10 -1 -10 4 0 15 -40 14 -40 -1 0 -8 -5 -6 -10 4 -14 23
-60 1 -60 -28 0 -12 -7 -27 -16 -35 -13 -11 -14 -9 -8 17 3 16 13 40 21 52 20
32 6 43 -18 13 -10 -13 -19 -20 -19 -16 0 17 -28 -24 -39 -58 -7 -20 -17 -37
-21 -37 -5 0 -6 7 -3 17 4 10 2 14 -5 10 -6 -4 -12 0 -14 9 -2 13 -8 12 -30
-9 l-27 -25 -7 35 c-5 24 -3 38 6 43 11 7 10 11 -3 24 -19 19 -61 22 -54 4 2
-7 -5 -19 -17 -26 -18 -12 -18 -13 -2 -7 11 3 23 0 28 -7 13 -21 9 -28 -17
-28 -19 0 -23 -4 -19 -17 5 -15 4 -15 -5 -3 -8 12 -11 12 -17 -3 -7 -20 -26
-23 -23 -4 4 33 -1 41 -16 21 -13 -17 -14 -15 -15 32 0 30 -6 56 -13 62 -10 9
-12 -2 -9 -53 3 -44 1 -65 -7 -65 -7 0 -9 9 -6 23 3 12 -1 31 -9 42 -15 19
-15 19 -9 -4 4 -17 3 -22 -5 -17 -15 9 -16 -16 -1 -31 6 -6 9 -17 6 -25 -3 -7
-13 5 -23 30 -16 40 -36 53 -49 32 -9 -15 -48 -12 -42 3 2 6 12 11 22 9 10 -2
14 1 10 7 -3 6 1 11 11 11 10 0 15 2 12 5 -8 9 -68 -7 -62 -16 3 -5 -9 -9 -26
-9 -21 0 -30 -4 -27 -12 2 -7 12 -12 21 -12 21 2 21 -12 -1 -20 -10 -3 -24 -9
-30 -12 -8 -4 -13 2 -13 15 0 24 -3 25 -30 9 -14 -9 -23 -9 -30 -2 -8 8 -2 16
22 27 18 9 28 17 21 17 -6 0 -18 3 -27 6 -9 4 -16 1 -16 -6 0 -6 -10 -20 -22
-30 -17 -14 -26 -15 -36 -7 -10 8 -16 7 -21 -2 -4 -6 -12 -11 -17 -10 -23 4
-26 -2 -10 -20 17 -19 17 -19 -2 -14 -14 3 -22 -1 -27 -16 -5 -16 -14 -20 -41
-19 -24 1 -33 6 -32 16 2 9 -6 16 -19 17 -17 1 -23 -4 -23 -17 0 -18 -1 -18
-17 -3 -16 16 -17 16 -25 -4 -9 -24 -15 -26 -32 -9 -21 22 -25 46 -10 58 8 7
14 18 14 25 0 14 -64 30 -80 20 -6 -3 -10 -1 -10 5 0 6 -5 8 -11 5 -6 -4 -8
-13 -5 -21 3 -8 -1 -14 -10 -14 -8 0 -25 -5 -36 -11 -17 -9 -18 -13 -7 -20 8
-5 25 -9 39 -9 20 0 22 2 10 10 -17 11 -10 13 14 4 19 -7 21 -21 4 -21 -7 0
-28 -3 -47 -8 -23 -5 -31 -4 -27 4 4 6 3 11 -1 11 -5 0 -14 -9 -21 -20 -15
-25 -48 -26 -61 -2 -8 13 -11 14 -11 2 0 -10 -9 -6 -25 13 -23 26 -25 26 -25
8 0 -12 5 -21 10 -21 6 0 10 -4 10 -10 0 -5 -6 -7 -14 -4 -8 3 -16 -2 -19 -13
-3 -10 -5 15 -6 55 -1 51 3 72 12 72 22 1 -26 30 -50 30 -28 0 -30 -16 -4 -29
15 -9 19 -22 19 -71 0 -33 -4 -63 -9 -66 -5 -3 -6 9 -3 26 4 19 2 30 -5 30 -6
0 -11 -6 -11 -12 0 -7 -5 -5 -11 5 -8 13 -20 17 -42 15 -26 -2 -32 1 -31 15 1
10 -2 17 -8 15 -5 -2 -10 -8 -10 -13 0 -6 -4 -16 -10 -23 -8 -9 -7 -11 6 -6 9
3 16 2 16 -4 0 -15 -30 -24 -31 -9 -1 7 0 23 1 36 1 16 -3 22 -12 19 -7 -3
-12 -12 -10 -22 2 -9 -4 -16 -13 -16 -12 0 -15 6 -10 20 5 14 2 20 -9 20 -10
0 -16 -9 -16 -25 0 -35 3 -40 20 -38 8 1 2 -4 -15 -11 -27 -13 -30 -12 -33 2
-2 10 -8 21 -13 26 -5 6 -4 15 2 22 7 8 7 14 -1 19 -5 3 -10 1 -10 -5 0 -7 -8
-9 -20 -5 -13 4 -22 1 -26 -10 -4 -9 -13 -13 -23 -10 -9 2 -29 -4 -46 -15 -16
-11 -38 -20 -49 -20 -12 0 -16 -5 -12 -15 3 -9 -1 -18 -9 -21 -8 -4 -15 -15
-15 -25 0 -10 -4 -19 -10 -19 -5 0 -7 7 -4 15 4 9 0 15 -7 15 -10 1 -9 4 3 13
10 8 13 18 8 26 -6 11 -10 10 -17 -4 -12 -21 -63 -29 -63 -10 0 7 5 15 12 17
13 5 2 28 -12 28 -5 0 -13 -15 -18 -32 -5 -19 -16 -34 -26 -36 -16 -4 -16 -2
-2 27 10 19 12 32 6 36 -6 4 -8 11 -5 16 4 5 -2 9 -11 9 -14 0 -15 3 -6 12 20
20 14 28 -18 22 -22 -5 -31 -2 -36 10 -9 24 5 35 17 13 6 -9 14 -17 19 -17 16
0 11 27 -5 34 -8 3 -14 9 -13 13 6 18 -10 15 -55 -11 -26 -16 -51 -25 -55 -22
-3 4 4 9 16 13 12 3 22 9 22 13 0 4 10 10 22 13 12 4 19 9 16 12 -8 9 28 45
44 45 9 0 8 4 -2 10 -12 8 -11 10 6 10 30 0 41 -30 14 -37 -27 -7 -21 -25 11
-34 16 -5 18 -7 7 -8 -18 -1 -26 -21 -10 -21 5 0 14 -11 21 -24 13 -24 65 -44
58 -22 -2 6 -12 13 -23 15 -17 3 -34 18 -34 31 0 3 11 10 25 16 22 11 24 10
15 -7 -15 -26 21 -44 91 -44 55 0 56 0 47 21 -6 13 -16 20 -24 17 -8 -3 -11
-9 -8 -14 7 -12 -7 -11 -26 1 -11 7 -11 10 -2 10 7 0 10 5 6 11 -3 6 0 15 7
20 11 6 10 9 -5 15 -11 4 -21 2 -26 -6 -4 -7 -14 -10 -21 -8 -9 3 -1 12 21 23
27 15 31 20 17 23 -10 2 -29 -4 -43 -12 -18 -13 -29 -14 -44 -6 -11 6 -19 16
-17 22 1 6 -9 17 -23 25 -14 7 -19 13 -12 13 6 0 12 5 12 10 0 19 -23 10 -52
-20 -33 -35 -34 -35 -42 -15 -3 10 7 21 32 34 51 27 22 26 -36 -1 -39 -19 -43
-23 -24 -26 23 -4 31 -35 12 -47 -6 -4 -8 -10 -5 -15 5 -9 -18 -20 -42 -20
-11 0 -7 8 13 26 16 14 24 28 18 30 -22 9 -49 33 -36 34 7 0 12 13 12 31 0 18
4 28 10 24 6 -4 8 -10 5 -15 -3 -5 0 -12 6 -16 6 -3 15 -1 19 7 5 7 27 13 52
13 53 1 64 14 33 38 l-24 19 22 22 c19 19 34 22 107 23 47 1 93 5 103 9 18 8
77 -12 77 -25 0 -5 -6 -10 -12 -13 -9 -3 -10 -8 -3 -14 6 -6 19 -5 35 3 21 11
22 14 7 20 -34 13 -18 32 34 39 56 8 73 -3 63 -40 -4 -16 -3 -17 5 -5 6 8 11
11 11 5 0 -5 16 -11 34 -12 27 -1 33 2 29 13 -3 9 -12 12 -25 8 -21 -6 -41 12
-32 28 9 15 37 8 61 -14 19 -17 23 -18 23 -6 0 9 -6 18 -12 20 -7 3 8 5 34 5
l47 0 -32 -29 c-18 -15 -30 -28 -27 -29 3 0 16 -3 30 -5 14 -3 27 -9 28 -14 5
-13 22 -13 22 0 0 5 -11 12 -24 16 -30 7 -24 34 7 34 11 0 29 7 39 17 23 21
35 11 13 -11 -15 -15 -12 -21 8 -17 5 1 6 -3 2 -9 -4 -6 -16 -8 -26 -5 -20 7
-20 6 -2 -15 l18 -21 20 26 c12 15 31 25 45 25 25 -1 25 -1 5 -16 -20 -15 -19
-15 5 -13 44 4 60 -1 60 -16 0 -8 5 -15 10 -15 6 0 10 6 10 14 0 20 18 30 33
18 16 -13 78 -12 70 1 -4 6 1 8 11 4 10 -4 23 -7 29 -7 7 0 6 -4 -3 -10 -9 -6
-11 -10 -3 -10 7 0 10 -6 7 -14 -5 -14 42 -33 54 -21 3 3 -2 5 -11 5 -9 0 -17
7 -17 15 0 14 3 13 25 -1 14 -9 25 -21 25 -26 0 -10 11 -9 55 7 19 6 19 6 2
-5 -18 -12 -18 -12 0 -29 10 -9 26 -20 36 -24 9 -3 17 -11 17 -17 0 -7 8 -9
20 -5 11 4 20 3 19 -2 -4 -25 3 -43 19 -43 36 1 73 50 36 50 -8 0 -13 -4 -9
-9 3 -5 0 -13 -6 -17 -8 -4 -9 -3 -5 4 4 7 1 12 -10 12 -13 0 -14 3 -4 15 7 8
16 12 21 9 5 -2 20 3 35 12 25 17 25 18 8 31 -10 7 -27 13 -38 13 -17 0 -18 2
-6 10 8 5 11 10 5 10 -5 0 0 7 12 15 23 16 51 11 70 -14 11 -14 14 -14 22 -1
5 8 7 18 5 22 -3 4 2 8 10 8 16 0 22 15 9 23 -5 2 -2 2 5 0 18 -4 51 29 35 34
-7 3 -9 11 -6 19 3 8 -1 14 -8 14 -9 0 -8 5 4 18 14 13 35 17 97 17 44 0 80 3
80 8 0 4 -6 7 -12 7 -59 2 -213 29 -216 38 -2 7 -17 12 -34 12 -23 0 -29 4
-24 16 3 9 6 20 6 25 0 4 7 6 16 2 12 -4 15 -2 12 8 -3 8 1 19 9 24 8 6 15 28
17 50 2 22 4 44 5 48 1 5 5 5 11 2 5 -3 12 12 16 35 4 22 9 40 12 40 3 0 32
-9 65 -21 66 -23 77 -19 77 32 0 31 23 54 45 45 8 -3 14 -9 14 -13 -1 -4 1
-15 4 -23 4 -8 8 -35 9 -59 2 -25 9 -46 16 -49 6 -2 12 3 12 11 0 10 11 14 40
13 22 0 40 -4 40 -8 0 -5 7 -8 16 -8 8 0 12 -4 9 -10 -3 -6 5 -10 18 -10 14 0
28 7 31 16 4 11 13 13 28 8 13 -3 25 -11 26 -15 2 -5 10 -9 18 -9 8 0 14 -4
14 -10 0 -5 18 -10 40 -10 29 0 40 -4 40 -15 0 -9 9 -15 23 -15 18 0 19 -2 7
-10 -10 -6 -11 -10 -2 -10 6 0 12 -7 12 -15 0 -8 -6 -15 -12 -15 -9 0 -8 -4 2
-10 13 -9 13 -10 0 -10 -13 0 -13 -1 0 -10 12 -7 8 -10 -15 -11 -45 -1 -89 -9
-98 -18 -4 -4 23 -4 60 0 38 5 76 8 86 8 9 1 17 8 17 16 0 8 7 15 16 15 12 0
15 7 12 29 -3 23 0 31 16 36 18 5 17 8 -14 19 l-35 13 45 7 c42 7 43 8 20 18
-23 8 -52 6 -120 -9 -18 -4 -22 -3 -14 6 31 34 222 51 349 31 l50 -7 -42 -2
c-30 -1 -43 -5 -43 -15 0 -10 17 -17 58 -21 77 -9 94 -16 62 -25 -14 -4 -34
-6 -45 -4 -11 3 -33 0 -50 -5 -29 -9 -29 -9 13 -10 23 -1 42 -5 42 -11 0 -5 9
-10 20 -10 11 0 20 -4 20 -10 0 -5 -9 -10 -20 -10 -28 0 -25 -20 3 -22 84 -5
189 -4 193 4 3 4 -4 8 -15 8 -17 0 -142 29 -148 34 -1 1 23 3 54 3 38 1 52 -2
42 -8 -10 -6 -7 -9 14 -9 31 0 36 14 10 29 -14 8 -15 10 -3 11 13 0 13 1 0 10
-8 5 -35 10 -60 10 -33 0 -41 3 -30 10 8 5 29 10 45 10 29 0 75 20 47 20 -7 0
-10 5 -7 10 3 6 -2 10 -12 10 -14 1 -11 4 9 16 16 8 25 20 22 28 -4 10 5 16
25 21 26 6 31 11 31 36 0 18 4 28 10 24 6 -3 10 3 10 13 0 11 -8 23 -17 27
-17 6 -17 7 0 17 23 12 42 16 85 17 56 2 35 19 -32 26 -76 8 -87 23 -48 62 14
14 22 28 17 29 -6 1 -23 5 -39 9 -27 6 -29 18 -3 21 7 0 20 2 29 2 9 1 24 9
32 18 14 14 16 77 16 550 l0 535 228 -6 c125 -3 264 -8 310 -11z m-3541 -66
c-2 -13 -4 -3 -4 22 0 25 2 35 4 23 2 -13 2 -33 0 -45z m6110 -30 c-2 -18 -4
-6 -4 27 0 33 2 48 4 33 2 -15 2 -42 0 -60z m73 78 c0 -11 -19 -15 -25 -6 -3
5 1 10 9 10 9 0 16 -2 16 -4z m-6400 -50 c0 -3 -4 -8 -10 -11 -5 -3 -10 -1
-10 4 0 6 5 11 10 11 6 0 10 -2 10 -4z m130 -19 c10 -4 8 -6 -7 -6 -16 -1 -23
5 -23 17 0 10 3 13 8 6 4 -6 14 -14 22 -17z m26 -22 c-11 -8 -24 -15 -30 -15
-5 0 -1 7 10 15 10 8 24 14 29 14 6 0 1 -6 -9 -14z m6270 5 c14 0 22 -4 19
-10 -7 -12 -85 -14 -85 -2 0 15 13 23 28 17 7 -3 25 -5 38 -5z m-6541 -80 c3
-5 1 -10 -4 -10 -6 0 -11 5 -11 10 0 6 2 10 4 10 3 0 8 -4 11 -10z m6442 -62
c-3 -7 -5 -2 -5 12 0 14 2 19 5 13 2 -7 2 -19 0 -25z m117 7 c4 -12 -4 -15
-43 -15 -36 0 -48 4 -48 15 0 11 12 15 43 15 28 0 44 -5 48 -15z m-29 -45 c4
-6 -7 -10 -27 -9 -27 0 -30 2 -13 9 27 12 33 12 40 0z m-305 -28 c0 -5 -16
-16 -35 -25 -19 -9 -35 -12 -35 -7 0 6 6 10 14 10 7 0 19 7 26 15 13 16 30 20
30 7z m-6245 -12 c3 -5 1 -10 -4 -10 -6 0 -11 5 -11 10 0 6 2 10 4 10 3 0 8
-4 11 -10z m6470 0 c3 -5 1 -10 -4 -10 -6 0 -11 5 -11 10 0 6 2 10 4 10 3 0 8
-4 11 -10z m95 0 c0 -5 -18 -10 -41 -10 -24 0 -38 4 -34 10 3 6 22 10 41 10
19 0 34 -4 34 -10z m-6600 -52 c0 -21 -3 -29 -10 -22 -5 5 -7 19 -4 32 9 31
14 27 14 -10z m505 22 c-3 -5 -13 -10 -21 -10 -8 0 -14 5 -14 10 0 6 9 10 21
10 11 0 17 -4 14 -10z m6105 -19 c0 -5 -20 -11 -45 -13 -31 -2 -45 1 -45 9 0
9 16 13 45 13 25 0 45 -4 45 -9z m-360 -41 c-24 -16 -31 -11 -19 11 8 16 14
18 22 10 9 -9 8 -14 -3 -21z m-6237 -7 c-7 -2 -21 -2 -30 0 -10 3 -4 5 12 5
17 0 24 -2 18 -5z m6562 -3 c-3 -5 -15 -10 -26 -10 -10 0 -19 5 -19 10 0 6 12
10 26 10 14 0 23 -4 19 -10z m-160 -45 c6 -2 -13 -4 -42 -4 -28 -1 -54 3 -57
8 -5 8 74 5 99 -4z m100 5 c3 -5 1 -10 -4 -10 -6 0 -11 5 -11 10 0 6 2 10 4
10 3 0 8 -4 11 -10z m60 0 c4 -6 -5 -10 -20 -10 -15 0 -24 4 -20 10 3 6 12 10
20 10 8 0 17 -4 20 -10z m45 -54 c-16 -20 -100 -22 -100 -3 0 10 17 14 57 16
50 2 55 0 43 -13z m-4146 -2 c20 -8 20 -34 1 -60 -14 -18 -16 -18 -29 -1 -7
10 -27 17 -45 17 -32 0 -81 25 -81 41 0 10 130 12 154 3z m350 -56 c13 -32 21
-58 17 -58 -9 0 -51 94 -51 113 0 17 6 6 34 -55z m165 -73 c0 -5 -9 1 -20 15
-11 14 -31 38 -45 54 -46 54 -36 51 15 -4 28 -30 50 -59 50 -65z m3651 70 c19
-36 3 -45 -77 -45 l-63 0 0 33 0 34 63 2 c59 2 64 0 77 -24z m-3430 -245 c0
-5 -4 -10 -9 -10 -6 0 -13 5 -16 10 -3 6 1 10 9 10 9 0 16 -4 16 -10z m40
-144 c0 -11 -33 -36 -47 -36 -11 0 -9 6 8 20 23 18 39 25 39 16z m-957 -34
c-3 -12 -10 -22 -15 -22 -5 0 -7 3 -5 8 2 4 7 16 11 26 9 25 17 16 9 -12z
m193 13 c-8 -8 -17 -15 -20 -15 -3 0 -6 7 -6 15 0 9 9 15 21 15 18 0 19 -2 5
-15z m109 -12 c24 -16 17 -16 -41 -2 -24 6 -44 15 -44 20 0 12 60 -1 85 -18z
m-265 -43 c0 -23 -4 -30 -20 -30 -11 0 -20 5 -20 11 0 5 -4 7 -10 4 -5 -3 -10
-1 -10 5 0 6 10 8 25 4 14 -3 25 -2 24 2 -2 15 1 34 6 34 3 0 5 -13 5 -30z
m-95 -10 c3 -5 1 -10 -4 -10 -6 0 -11 5 -11 10 0 6 2 10 4 10 3 0 8 -4 11 -10z
m1817 -1 c2 -5 22 -13 46 -16 42 -6 52 -15 31 -29 -10 -6 -8 -38 8 -131 5 -30
3 -32 -23 -29 -25 3 -29 8 -29 35 0 17 -3 31 -7 31 -5 0 -8 9 -8 19 0 11 -3
27 -6 35 -6 15 -8 15 -20 -1 -12 -16 -13 -11 -14 40 0 50 12 76 22 46z m734
-31 c21 -17 26 -19 22 -6 -9 23 18 31 50 15 20 -9 28 -21 30 -45 3 -31 2 -32
-23 -26 -25 6 -26 5 -16 -15 7 -11 8 -21 2 -21 -5 0 -11 -6 -14 -14 -4 -10 0
-12 14 -9 12 4 19 0 19 -10 0 -8 -11 -17 -25 -19 -13 -3 -22 -1 -19 3 3 5 0 9
-6 9 -7 0 -10 7 -6 18 4 10 -2 7 -14 -8 -23 -30 -27 -8 -5 30 21 36 18 49 -5
20 -11 -14 -20 -33 -20 -43 0 -10 -5 -15 -10 -12 -6 4 -8 10 -5 15 3 5 1 11
-5 15 -5 3 -10 24 -10 46 0 21 -4 39 -10 39 -5 0 -10 -13 -10 -30 0 -34 -7
-38 -26 -12 -16 20 -19 1 -5 -26 5 -9 11 -30 12 -46 3 -24 0 -30 -18 -32 -18
-3 -23 1 -24 19 -1 12 -1 26 0 31 1 5 -5 4 -13 -4 -20 -16 -20 -9 -2 35 13 29
12 34 0 39 -9 3 -12 1 -9 -4 4 -6 1 -23 -6 -39 -11 -24 -15 -26 -26 -16 -7 8
-13 32 -13 54 0 41 -19 69 -21 32 -1 -12 -3 -25 -4 -31 -1 -5 -3 -13 -4 -17 0
-4 -8 2 -16 13 -16 21 -21 4 -6 -24 4 -9 11 -34 15 -54 7 -36 5 -38 -19 -38
-23 0 -25 3 -19 28 7 24 6 26 -10 13 -26 -22 -28 -8 -7 43 24 55 19 61 -8 9
-13 -24 -20 -31 -21 -20 0 10 -4 15 -10 12 -6 -4 -10 13 -10 44 0 51 0 51 32
51 17 0 40 -8 51 -17 19 -17 20 -17 14 0 -5 14 -1 17 28 17 25 0 35 -5 40 -20
7 -21 25 -28 25 -10 0 6 -5 10 -12 10 -23 0 7 18 37 23 68 9 93 6 121 -15z
m-429 -3 c3 -8 10 -15 15 -15 6 0 5 7 -3 16 -11 14 -9 15 22 12 29 -3 34 -7
35 -31 1 -15 -3 -30 -7 -33 -5 -3 -9 0 -9 5 0 6 -4 11 -9 11 -5 0 -3 -21 5
-47 8 -25 13 -62 13 -82 -1 -20 -3 -28 -6 -18 -3 12 -10 16 -24 12 -22 -7 -26
14 -8 47 9 16 8 19 -2 13 -9 -6 -10 -3 -5 10 6 16 4 16 -11 4 -15 -12 -16 -12
-10 4 17 42 17 50 1 22 -11 -19 -19 -25 -22 -16 -4 11 -6 11 -13 0 -6 -9 -9 5
-9 39 0 33 -4 51 -10 47 -5 -3 -10 -15 -10 -27 0 -18 -2 -19 -17 -7 -15 12
-16 12 -9 -6 7 -20 26 -110 26 -126 0 -11 -44 -7 -52 6 -4 5 -8 21 -8 35 0 17
-3 21 -11 13 -6 -6 -10 -29 -7 -51 2 -31 0 -38 -8 -31 -9 7 -16 5 -23 -8 -15
-26 -13 -4 5 57 19 64 26 122 13 114 -5 -3 -9 -13 -10 -22 0 -14 -2 -13 -9 3
l-9 20 -1 -20 -1 -20 -9 20 c-5 11 -9 30 -9 42 -1 21 2 22 99 22 79 0 102 -3
107 -14z m-2017 -5 c0 -5 -5 -10 -11 -10 -5 0 -7 5 -4 10 3 6 8 10 11 10 2 0
4 -4 4 -10z m4415 -18 l-20 -5 20 -8 c16 -6 13 -8 -15 -9 -33 -1 -33 -2 -11
-11 13 -5 33 -7 45 -4 17 5 18 4 6 -4 -23 -16 -90 -14 -96 4 -12 31 4 45 48
44 24 -1 34 -4 23 -7z m-3605 -9 c0 -5 -48 -9 -108 -11 -190 -4 -365 -13 -374
-18 -7 -4 -12 13 -5 18 1 1 90 5 197 8 107 3 216 7 243 8 26 1 47 -1 47 -5z
m-810 -30 c-1 -27 -1 -27 -15 -9 -19 25 -19 36 0 36 10 0 15 -10 15 -27z
m1536 -20 c-11 -11 -17 4 -9 23 7 18 8 18 11 1 2 -10 1 -21 -2 -24z m2324 -2
c0 -12 -20 -25 -27 -18 -7 7 6 27 18 27 5 0 9 -4 9 -9z m-3880 -21 c0 -12 -7
-20 -17 -20 -14 0 -15 -2 -4 -9 8 -5 9 -11 3 -15 -15 -9 -23 23 -12 45 14 25
30 24 30 -1z m2767 -37 c-3 -2 -15 -3 -27 -1 l-21 3 23 25 23 25 3 -24 c2 -12
1 -25 -1 -28z m-3187 -3 c0 -25 -4 -28 -41 -33 -23 -3 -45 -10 -48 -15 -17
-28 -81 -9 -81 24 0 12 -4 26 -10 29 -25 15 -4 24 63 27 105 4 117 1 117 -32z
m-330 11 c0 -15 -15 -21 -39 -14 -17 4 -19 8 -9 14 18 12 48 11 48 0z m2317
-13 c-3 -8 -6 -5 -6 6 -1 11 2 17 5 13 3 -3 4 -12 1 -19z m170 -10 c-3 -8 -6
-5 -6 6 -1 11 2 17 5 13 3 -3 4 -12 1 -19z m-1883 -12 l39 -13 -48 -7 c-26 -4
-54 -10 -62 -13 -11 -4 -12 -1 -2 21 14 30 20 31 73 12z m1506 -18 c0 -5 -4
-8 -10 -8 -5 0 -10 10 -10 23 0 18 2 19 10 7 5 -8 10 -18 10 -22z m57 0 c-3
-7 -5 -2 -5 12 0 14 2 19 5 13 2 -7 2 -19 0 -25z m734 -31 c-13 -13 -15 11 -4
40 7 16 8 15 11 -6 2 -13 -1 -28 -7 -34z m472 -10 c-3 -20 -10 -37 -15 -37 -6
0 -7 14 -3 33 13 60 28 64 18 4z m-861 8 c0 -5 -5 -11 -11 -13 -6 -2 -11 4
-11 13 0 9 5 15 11 13 6 -2 11 -8 11 -13z m548 -5 c0 -5 -4 -10 -10 -10 -5 0
-10 5 -10 10 0 6 5 10 10 10 6 0 10 -4 10 -10z m954 -31 c-3 -5 -10 -7 -15 -3
-5 3 -7 10 -3 15 3 5 10 7 15 3 5 -3 7 -10 3 -15z m-5514 1 c0 -5 -7 -10 -16
-10 -8 0 -12 5 -9 10 3 6 10 10 16 10 5 0 9 -4 9 -10z m6660 -30 c0 -5 -7 -10
-16 -10 -8 0 -12 5 -9 10 3 6 10 10 16 10 5 0 9 -4 9 -10z m-1326 -16 c3 -8 2
-12 -4 -9 -6 3 -10 10 -10 16 0 14 7 11 14 -7z m156 -4 c17 -6 9 -7 -25 -3
-27 3 -52 7 -54 9 -8 7 54 2 79 -6z m-250 -4 c0 -2 -7 -7 -16 -10 -8 -3 -12
-2 -9 4 6 10 25 14 25 6z m-90 -32 c0 -9 -5 -14 -12 -12 -18 6 -21 28 -4 28 9
0 16 -7 16 -16z m895 2 c11 -3 45 -6 75 -7 30 -2 -3 -6 -75 -9 -74 -3 -136 -1
-143 4 -8 5 -74 10 -147 10 -83 0 -132 3 -128 9 6 9 369 3 418 -7z m-472 -3
c-13 -2 -35 -2 -50 0 -16 2 -5 4 22 4 28 0 40 -2 28 -4z m-233 -13 c0 -5 -2
-10 -4 -10 -3 0 -8 5 -11 10 -3 6 -1 10 4 10 6 0 11 -4 11 -10z m123 3 c-7 -2
-21 -2 -30 0 -10 3 -4 5 12 5 17 0 24 -2 18 -5z m365 -10 c-16 -2 -40 -2 -55
0 -16 2 -3 4 27 4 30 0 43 -2 28 -4z m-291 -9 c-3 -3 -12 -4 -19 -1 -8 3 -5 6
6 6 11 1 17 -2 13 -5z m-626 -13 c-12 -8 -51 -4 -51 5 0 2 15 4 33 4 22 0 28
-3 18 -9z m1472 -8 c-7 -2 -19 -2 -25 0 -7 3 -2 5 12 5 14 0 19 -2 13 -5z m67
-3 c-20 -13 -33 -13 -25 0 3 6 14 10 23 10 15 0 15 -2 2 -10z m-330 -4 c0 -11
-19 -15 -25 -6 -3 5 1 10 9 10 9 0 16 -2 16 -4z m153 -3 c-7 -2 -19 -2 -25 0
-7 3 -2 5 12 5 14 0 19 -2 13 -5z m-360 -23 c3 -10 -1 -24 -9 -31 -11 -9 -13
-5 -11 20 2 35 12 41 20 11z m-4748 -8 c-3 -3 -11 0 -18 7 -9 10 -8 11 6 5 10
-3 15 -9 12 -12z m4476 -5 c-13 -13 -26 -3 -16 12 3 6 11 8 17 5 6 -4 6 -10
-1 -17z m99 19 c0 -3 -4 -8 -10 -11 -5 -3 -10 -1 -10 4 0 6 5 11 10 11 6 0 10
-2 10 -4z m77 -2 c-3 -3 -12 -4 -19 -1 -8 3 -5 6 6 6 11 1 17 -2 13 -5z m-250
-10 c-3 -3 -12 -4 -19 -1 -8 3 -5 6 6 6 11 1 17 -2 13 -5z m292 -23 c-6 -16
-17 -32 -26 -35 -11 -5 -14 -2 -9 10 3 8 6 22 6 29 0 7 8 16 18 18 9 3 18 5
19 6 1 0 -3 -12 -8 -28z m-319 -2 c0 -14 -17 -10 -23 5 -4 10 -1 13 9 9 7 -3
14 -9 14 -14z m155 11 c-3 -5 -10 -10 -16 -10 -5 0 -9 5 -9 10 0 6 7 10 16 10
8 0 12 -4 9 -10z m55 -10 c0 -17 -2 -19 -14 -8 -10 9 -11 15 -2 20 16 11 16
10 16 -12z m42 -12 c-9 -9 -12 -7 -12 12 0 19 3 21 12 12 9 -9 9 -15 0 -24z
m198 22 c0 -5 -7 -10 -15 -10 -8 0 -15 5 -15 10 0 6 7 10 15 10 8 0 15 -4 15
-10z m-410 -10 c0 -5 7 -10 15 -10 17 0 20 -16 6 -25 -5 -3 -13 -1 -16 5 -4 6
-15 8 -25 5 -15 -5 -17 -2 -13 15 5 20 33 29 33 10z m530 0 c0 -5 -4 -10 -10
-10 -5 0 -10 5 -10 10 0 6 5 10 10 10 6 0 10 -4 10 -10z m430 0 c0 -5 -5 -10
-11 -10 -5 0 -7 5 -4 10 3 6 8 10 11 10 2 0 4 -4 4 -10z m-1320 -19 c0 -6 -4
-13 -10 -16 -5 -3 -10 1 -10 9 0 9 5 16 10 16 6 0 10 -4 10 -9z m31 -24 c-11
-12 -23 -18 -27 -15 -8 9 29 46 40 40 4 -2 -1 -14 -13 -25z m403 27 c9 -3 16
-11 16 -17 0 -6 -3 -7 -7 -4 -3 4 -16 1 -28 -7 -21 -14 -22 -13 -17 10 5 25
10 28 36 18z m-802 -26 c-7 -7 -12 -8 -12 -2 0 14 12 26 19 19 2 -3 -1 -11 -7
-17z m133 12 c3 -5 -1 -10 -9 -10 -9 0 -16 -4 -16 -10 0 -5 5 -10 10 -10 6 0
10 -7 10 -15 0 -8 -4 -15 -10 -15 -5 0 -10 5 -10 11 0 7 -8 18 -17 25 -17 13
-17 13 0 14 9 0 17 5 17 10 0 6 4 10 9 10 6 0 13 -4 16 -10z m-266 -17 c-12
-14 -12 -16 2 -11 9 3 22 2 30 -3 12 -7 -6 -7 -53 0 -5 0 -8 6 -8 12 0 5 5 7
10 4 6 -3 10 -1 10 4 0 6 5 11 11 11 8 0 7 -6 -2 -17z m306 -3 c-4 -12 -2 -20
5 -20 6 0 8 -5 5 -11 -5 -7 -14 -4 -26 7 -18 16 -18 18 -1 30 23 18 24 17 17
-6z m57 -2 c3 -24 -12 -68 -24 -68 -15 0 -17 19 -3 33 13 13 13 16 -1 21 -12
5 -13 8 -2 20 18 21 26 19 30 -6z m472 -25 c-16 -12 -33 -23 -39 -23 -5 1 -2
7 8 14 21 16 22 26 1 26 -8 0 -12 5 -9 10 5 8 12 7 22 -2 13 -11 18 -10 27 5
7 11 12 13 15 5 2 -6 -9 -22 -25 -35z m166 37 c0 -5 -10 -14 -21 -21 -12 -6
-18 -14 -13 -18 5 -3 10 -15 12 -25 3 -16 2 -17 -10 -5 -40 42 -42 49 -22 64
22 16 54 20 54 5z m51 0 c5 0 9 -7 9 -15 0 -18 26 -20 33 -2 4 7 6 8 6 1 1 -6
-5 -17 -13 -23 -12 -10 -20 -9 -39 4 -20 13 -26 13 -30 3 -2 -7 -8 -10 -12 -6
-4 4 -3 14 3 21 7 8 8 18 4 22 -4 5 1 5 11 2 10 -4 23 -7 28 -7z m-1536 -30
c-4 -6 -12 -7 -18 -2 -8 5 -20 0 -34 -15 -24 -25 -6 -34 19 -10 7 6 22 14 33
15 11 2 23 9 27 15 4 6 11 8 15 3 4 -5 4 -10 -2 -13 -23 -8 -39 -22 -33 -28 3
-4 19 1 35 10 27 17 28 17 8 -1 -11 -11 -28 -31 -38 -46 -9 -16 -23 -28 -30
-27 -9 0 -9 2 1 6 14 5 17 53 3 53 -5 0 -24 -6 -43 -14 -39 -17 -69 -7 -43 14
17 14 21 50 5 50 -5 0 -10 -11 -10 -25 0 -28 -3 -29 -29 -15 -24 12 -38 45
-16 37 8 -4 17 -2 20 3 10 16 43 11 54 -7 7 -12 13 -14 18 -7 22 31 77 35 58
4z m342 0 c2 -11 -1 -20 -6 -20 -10 0 -21 36 -13 44 8 8 15 -1 19 -24z m1988
12 c-3 -3 -11 0 -18 7 -9 10 -8 11 6 5 10 -3 15 -9 12 -12z m-2150 -2 c3 -5 0
-7 -8 -4 -8 3 -17 -2 -20 -10 -4 -11 -1 -16 11 -17 12 0 11 -3 -6 -10 -13 -5
-20 -13 -17 -19 3 -5 -3 -10 -15 -10 -14 0 -21 -6 -19 -17 3 -35 -1 -45 -16
-39 -8 3 -15 2 -15 -3 0 -4 -9 -18 -19 -30 -16 -18 -24 -20 -38 -12 -14 8 -15
10 -3 11 8 0 31 16 50 36 l35 37 -35 -7 -35 -6 35 16 c47 22 96 73 54 57 -12
-4 -15 -2 -12 8 3 8 12 13 22 11 9 -2 16 2 16 8 0 13 27 13 35 0z m890 0 c-3
-5 -10 -10 -16 -10 -5 0 -9 5 -9 10 0 6 7 10 16 10 8 0 12 -4 9 -10z m955 0
c0 -5 -2 -10 -4 -10 -3 0 -8 5 -11 10 -3 6 -1 10 4 10 6 0 11 -4 11 -10z
m-1790 -9 c0 -5 -7 -12 -16 -15 -8 -3 -12 -10 -9 -16 3 -5 1 -10 -4 -10 -15 0
-14 23 1 38 14 14 28 16 28 3z m75 -9 c-3 -3 -11 0 -18 7 -9 10 -8 11 6 5 10
-3 15 -9 12 -12z m160 -3 c17 -12 22 -18 12 -15 -13 4 -17 1 -15 -11 2 -9 -3
-18 -10 -20 -7 -3 -10 1 -6 11 3 9 2 16 -3 16 -4 0 -14 9 -21 20 -17 27 3 27
43 -1z m115 11 c0 -5 -5 -10 -11 -10 -5 0 -7 5 -4 10 3 6 8 10 11 10 2 0 4 -4
4 -10z m503 -12 c-13 -12 -25 -19 -28 -16 -8 7 23 38 38 38 6 0 2 -10 -10 -22z
m567 12 c0 -6 12 -8 28 -5 15 3 21 2 15 -1 -21 -10 -14 -26 8 -19 20 7 20 6
-1 -18 -21 -24 -50 -27 -50 -6 0 5 -7 9 -15 9 -16 0 -38 34 -28 44 10 10 43 7
43 -4z m-1114 -37 c-11 -11 -17 4 -9 23 7 18 8 18 11 1 2 -10 1 -21 -2 -24z
m88 22 c-4 -8 -8 -15 -10 -15 -2 0 -4 7 -4 15 0 8 4 15 10 15 5 0 7 -7 4 -15z
m55 -27 c1 -5 -5 -7 -11 -5 -7 1 -12 -4 -10 -10 1 -7 -5 -13 -13 -13 -12 0
-13 5 -4 26 16 44 22 49 30 28 4 -10 8 -22 8 -26z m331 22 c0 -5 -5 -12 -10
-15 -6 -4 -8 -10 -6 -13 2 -4 -9 -15 -25 -24 -16 -10 -29 -13 -29 -8 0 5 10
12 21 15 17 6 19 9 8 16 -8 5 -9 9 -4 10 6 0 1 4 -10 9 -19 8 -19 9 3 9 12 1
22 5 22 11 0 5 7 7 15 4 8 -4 15 -10 15 -14z m384 4 c11 -28 6 -39 -9 -20 -8
11 -15 23 -15 28 0 14 18 9 24 -8z m-1114 -4 c0 -5 -11 -17 -25 -26 -14 -9
-23 -20 -20 -24 9 -15 -15 -22 -30 -10 -18 15 -11 30 13 30 10 0 24 9 32 20
15 21 30 26 30 10z m129 -3 c6 -8 8 -17 4 -20 -11 -11 -23 -8 -20 6 1 6 -4 11
-10 10 -7 -2 -13 2 -13 7 0 15 26 12 39 -3z m1181 -2 c0 -8 -4 -15 -10 -15 -5
0 -7 7 -4 15 4 8 8 15 10 15 2 0 4 -7 4 -15z m540 11 c0 -3 -4 -8 -10 -11 -5
-3 -10 -1 -10 4 0 6 5 11 10 11 6 0 10 -2 10 -4z m-1213 -40 c-2 -5 -12 -14
-22 -20 -10 -6 -34 -26 -52 -45 -19 -18 -36 -31 -39 -28 -6 6 41 55 76 79 l25
17 -22 7 c-13 3 -23 10 -23 14 0 5 14 3 30 -3 17 -6 29 -16 27 -21z m190 16
c-24 -5 -17 -24 14 -39 19 -10 20 -13 6 -13 -27 0 -49 27 -42 49 4 14 11 18
23 13 16 -6 16 -7 -1 -10z m244 1 c12 -15 12 -16 -4 -10 -15 6 -17 3 -12 -16
6 -21 6 -21 -9 -3 -12 14 -13 23 -5 33 14 16 14 16 30 -4z m399 13 c0 -3 -4
-8 -10 -11 -5 -3 -10 -1 -10 4 0 6 5 11 10 11 6 0 10 -2 10 -4z m-2885 -16
c-3 -5 -14 -10 -23 -9 -14 0 -13 2 3 9 27 11 27 11 20 0z m529 -10 c-22 -9
-29 -6 -20 9 4 6 14 7 23 4 15 -6 14 -7 -3 -13z m906 -22 c-22 -21 -30 -23
-30 -6 0 19 34 47 42 34 4 -6 -2 -18 -12 -28z m63 23 c3 -13 -1 -21 -13 -24
-13 -3 -16 1 -12 19 5 29 18 31 25 5z m231 4 c17 -13 17 -14 -3 -36 -16 -18
-24 -20 -33 -11 -9 9 -8 12 4 12 26 0 32 20 12 35 -11 8 -14 14 -9 14 6 0 18
-6 29 -14z m923 -8 c-6 -20 -27 -19 -27 2 0 14 5 19 15 14 9 -3 14 -10 12 -16z
m276 7 c-3 -8 -17 -20 -30 -25 -15 -5 -21 -14 -17 -21 4 -6 3 -8 -4 -4 -16 10
16 66 38 66 14 0 18 -5 13 -16z m-2516 -11 c16 -14 17 -23 2 -23 -11 0 -39 24
-39 34 0 9 23 2 37 -11z m38 7 c3 -5 2 -10 -4 -10 -5 0 -13 5 -16 10 -3 6 -2
10 4 10 5 0 13 -4 16 -10z m858 -7 c-4 -10 -11 -21 -17 -25 -7 -5 -7 -8 2 -8
6 0 12 -4 12 -10 0 -5 -6 -10 -14 -10 -8 0 -17 -6 -19 -12 -3 -7 -5 1 -4 17 2
29 23 65 39 65 4 0 4 -8 1 -17z m547 2 c-7 -9 -15 -13 -19 -10 -3 3 1 10 9 15
21 14 24 12 10 -5z m330 -2 c0 -10 -35 -32 -50 -32 -8 0 -4 5 9 10 14 6 21 15
18 24 -4 9 -1 12 9 8 7 -3 14 -8 14 -10z m499 -14 c-11 -6 -9 -12 6 -28 10
-12 15 -24 12 -27 -4 -4 -9 1 -13 10 -3 9 -12 16 -20 16 -18 0 -18 5 3 37 11
16 19 21 21 13 3 -7 -2 -16 -9 -21z m323 8 c3 -6 19 -10 35 -9 38 1 66 -36 34
-45 -12 -3 -21 -9 -21 -14 0 -5 -9 -9 -20 -9 -11 0 -20 5 -20 10 0 6 5 10 10
10 6 0 10 5 10 10 0 19 -28 10 -44 -15 -9 -14 -22 -25 -29 -25 -7 1 -5 6 5 14
21 16 13 26 -19 26 -14 0 -32 7 -41 16 -15 15 -14 16 6 10 15 -5 22 -3 22 6 0
34 52 45 72 15z m-3042 -8 c0 -5 -9 -9 -20 -9 -11 0 -20 -4 -20 -10 0 -5 -5
-10 -11 -10 -7 0 -18 -8 -25 -17 -7 -10 -15 -15 -19 -12 -3 4 1 13 9 22 8 8
12 18 8 21 -3 4 1 4 11 0 13 -5 16 -2 11 9 -4 12 -1 14 15 10 13 -3 21 -1 21
6 0 7 5 9 10 6 6 -3 10 -10 10 -16z m70 11 c0 -5 -4 -10 -10 -10 -5 0 -10 5
-10 10 0 6 5 10 10 10 6 0 10 -4 10 -10z m1074 -5 c-7 -16 -24 -21 -24 -6 0 8
7 13 27 20 1 1 0 -6 -3 -14z m576 5 c0 -5 -2 -10 -4 -10 -3 0 -8 5 -11 10 -3
6 -1 10 4 10 6 0 11 -4 11 -10z m905 -8 c-3 -3 -11 0 -18 7 -9 10 -8 11 6 5
10 -3 15 -9 12 -12z m202 -19 c-2 -2 -16 3 -30 10 -15 8 -24 17 -21 20 4 3 17
-1 30 -10 14 -9 23 -17 21 -20z m71 25 c-6 -18 -28 -21 -28 -4 0 9 7 16 16 16
9 0 14 -5 12 -12z m1082 2 c0 -5 -5 -10 -11 -10 -5 0 -7 5 -4 10 3 6 8 10 11
10 2 0 4 -4 4 -10z m-3402 -20 c7 -11 8 -20 3 -20 -5 0 -11 6 -14 13 -3 9 -10
7 -23 -6 -16 -15 -17 -19 -4 -27 8 -5 11 -13 6 -17 -5 -4 -11 -2 -13 5 -3 6
-15 12 -29 12 -18 0 -22 4 -17 18 6 14 4 15 -9 4 -10 -8 -19 -9 -22 -4 -8 13
23 25 56 23 14 -1 29 2 33 8 9 16 19 13 33 -9z m1096 11 c11 -4 15 -10 10 -13
-5 -4 -18 0 -29 8 -20 15 -12 17 19 5z m240 -10 c-10 -10 -21 -17 -23 -15 -6
6 20 34 32 34 6 0 2 -8 -9 -19z m61 4 c-16 -8 -24 -14 -18 -15 15 0 -4 -50
-20 -50 -5 0 -4 6 2 14 6 7 9 21 5 30 -4 11 1 19 17 25 37 15 48 11 14 -4z
m1952 9 c-7 -7 -87 -8 -93 -1 -3 3 18 5 46 5 29 1 50 -1 47 -4z m-4969 -18
c-10 -7 -18 -18 -18 -24 0 -6 -4 -13 -9 -16 -4 -3 -8 8 -7 24 1 25 5 30 26 30
23 -1 24 -2 8 -14z m1075 -6 c-3 -11 -9 -20 -14 -20 -14 0 -11 28 4 33 6 3 13
6 14 6 0 1 -1 -8 -4 -19z m216 -5 c2 -13 -1 -16 -14 -11 -9 3 -19 6 -21 6 -2
0 -4 6 -4 14 0 21 34 12 39 -9z m2516 15 c3 -5 2 -10 -4 -10 -5 0 -13 5 -16
10 -3 6 -2 10 4 10 5 0 13 -4 16 -10z m935 -7 c0 -7 -9 -13 -20 -13 -13 0 -20
-7 -20 -18 0 -26 -11 -34 -27 -21 -16 14 -17 41 -2 56 16 16 69 13 69 -4z m45
7 c-3 -5 -10 -10 -16 -10 -5 0 -9 5 -9 10 0 6 7 10 16 10 8 0 12 -4 9 -10z
m-2179 -9 c-3 -5 -16 -11 -28 -14 -22 -6 -22 -5 -4 8 22 17 40 20 32 6z m254
-13 c0 -6 -6 -5 -15 2 -8 7 -15 14 -15 16 0 2 7 1 15 -2 8 -4 15 -11 15 -16z
m56 -5 c17 -27 17 -28 -2 -13 -40 31 -47 40 -31 40 8 0 23 -12 33 -27z m364
17 c0 -11 -50 -34 -57 -26 -3 3 30 24 55 35 1 1 2 -4 2 -9z m934 -21 c-21 -23
-16 -24 27 -2 37 19 207 34 249 22 14 -4 18 -8 9 -8 -9 -1 -19 -8 -23 -16 -3
-8 -10 -15 -16 -15 -6 0 -8 5 -5 10 3 6 -1 10 -9 10 -8 0 -17 -4 -20 -9 -10
-16 -56 -20 -56 -5 0 18 -14 18 -30 -1 -9 -11 -9 -15 -1 -15 8 0 9 -5 1 -19
-9 -19 -32 -22 -46 -8 -4 4 -24 7 -45 7 -21 0 -41 5 -44 10 -4 6 -15 8 -26 5
-25 -8 -25 11 1 25 11 6 17 17 14 24 -4 11 0 13 16 9 20 -5 20 -7 4 -24z m366
21 c0 -5 -11 -10 -25 -10 -18 0 -26 -7 -31 -25 -3 -14 -10 -25 -14 -25 -5 0
-3 16 3 35 9 29 15 35 39 35 15 0 28 -4 28 -10z m-3106 -13 c-3 -8 12 -18 38
-27 36 -13 42 -19 40 -39 -3 -20 0 -23 19 -18 12 3 18 2 13 -3 -5 -5 -21 -12
-37 -15 -22 -6 -26 -4 -21 9 3 9 2 16 -4 16 -6 0 -12 -6 -15 -12 -2 -7 -8 -9
-13 -5 -5 4 -2 12 6 17 13 8 12 10 -2 10 -19 0 -23 -16 -12 -44 5 -13 14 -15
40 -10 21 4 34 2 34 -4 0 -17 -18 -24 -24 -10 -4 9 -10 6 -22 -9 -18 -26 -39
-31 -31 -8 9 22 -10 28 -35 11 -31 -22 -45 -20 -23 4 10 11 27 20 39 20 14 0
17 3 9 11 -6 6 -8 20 -5 31 4 16 10 19 36 14 30 -5 30 -5 11 10 -11 8 -28 13
-37 10 -11 -2 -18 1 -18 9 0 7 -6 16 -12 18 -10 4 -9 8 2 16 20 14 30 14 24
-2z m1000 -24 c-21 -16 -34 -17 -34 -3 0 6 5 10 10 10 6 0 10 7 10 16 0 14 2
14 16 3 14 -12 14 -14 -2 -26z m669 25 c3 -10 7 -10 19 0 11 9 18 10 23 2 3
-5 -1 -10 -9 -10 -9 0 -16 -7 -16 -15 0 -23 -14 -18 -27 10 -6 14 -7 25 -3 25
5 0 10 -6 13 -12z m306 -17 c-15 -5 -22 6 -14 19 6 9 10 9 16 -1 5 -8 4 -15
-2 -18z m-1319 9 c23 15 36 12 16 -3 -15 -11 -16 -17 -7 -35 7 -14 8 -23 1
-27 -14 -8 -3 -24 24 -35 17 -7 17 -9 4 -9 -22 -1 -24 -19 -3 -27 22 -9 18
-24 -5 -24 -10 0 -24 -8 -29 -18 -5 -10 -22 -18 -38 -19 -26 -2 -26 -2 -8 9
11 6 29 20 40 31 20 18 20 18 0 34 -16 12 -16 14 -3 10 28 -10 30 9 3 21 -26
12 -36 35 -11 26 8 -3 17 -1 21 5 3 6 0 11 -7 11 -14 0 -39 45 -30 55 3 3 8 1
12 -4 3 -6 11 -6 20 -1z m110 0 c0 -5 -5 -10 -11 -10 -5 0 -7 5 -4 10 3 6 8
10 11 10 2 0 4 -4 4 -10z m190 0 c0 -5 -4 -10 -10 -10 -5 0 -10 5 -10 10 0 6
5 10 10 10 6 0 10 -4 10 -10z m230 0 c0 -5 -2 -10 -4 -10 -3 0 -8 5 -11 10 -3
6 -1 10 4 10 6 0 11 -4 11 -10z m650 0 c0 -5 -8 -10 -17 -10 -15 0 -16 2 -3
10 19 12 20 12 20 0z m530 -5 c0 -8 -7 -15 -15 -15 -9 0 -12 6 -9 15 4 8 10
15 15 15 5 0 9 -7 9 -15z m-2860 -37 c-12 -10 -19 -18 -14 -18 13 0 -30 -29
-44 -30 -9 0 -8 7 4 25 9 14 23 25 30 25 8 0 14 5 14 11 0 5 5 7 10 4 6 -3 10
2 11 12 0 13 2 14 6 4 3 -8 -4 -23 -17 -33z m286 22 c0 -11 -6 -20 -13 -20
-14 0 -18 22 -6 33 12 12 19 7 19 -13z m379 10 c16 -7 14 -8 -12 -7 -18 1 -33
5 -33 10 0 9 19 8 45 -3z m886 1 c-11 -7 -8 -14 15 -35 26 -23 27 -27 12 -36
-21 -13 -13 -40 12 -40 11 0 21 -4 25 -9 3 -6 -8 -5 -27 0 -18 6 -50 12 -71
14 -21 1 -41 6 -45 10 -4 4 5 5 20 1 20 -5 33 -1 47 13 19 19 19 20 1 44 -19
24 -12 47 15 47 5 0 4 -4 -4 -9z m578 -33 c1 -5 -3 -8 -8 -8 -12 0 -22 30 -14
43 6 10 20 -13 22 -35z m555 26 c8 -22 8 -39 -1 -30 -5 4 -8 13 -8 19 0 7 -13
12 -28 12 -15 -1 -27 3 -27 7 0 15 58 8 64 -8z m-1468 -9 c-27 -21 -53 -20
-36 0 7 8 22 15 34 15 21 -1 21 -1 2 -15z m204 5 c0 -5 -5 -10 -11 -10 -5 0
-7 5 -4 10 3 6 8 10 11 10 2 0 4 -4 4 -10z m210 0 c0 -5 -12 -10 -27 -9 -25 0
-26 1 -8 9 27 12 35 12 35 0z m790 -47 c0 -2 -4 -2 -9 2 -5 3 -12 1 -16 -5 -3
-5 -14 -10 -23 -10 -15 0 -15 2 -2 10 13 9 12 12 -4 25 -20 15 -41 11 -31 -6
6 -9 -22 -25 -31 -17 -2 3 5 17 16 31 l21 27 40 -27 c21 -14 39 -28 39 -30z
m330 47 c0 -5 -2 -10 -4 -10 -3 0 -8 5 -11 10 -3 6 -1 10 4 10 6 0 11 -4 11
-10z m185 0 c3 -5 1 -10 -4 -10 -6 0 -11 5 -11 10 0 6 2 10 4 10 3 0 8 -4 11
-10z m-4485 -4 c0 -11 -19 -15 -25 -6 -3 5 1 10 9 10 9 0 16 -2 16 -4z m50 0
c0 -11 -19 -15 -25 -6 -3 5 1 10 9 10 9 0 16 -2 16 -4z m155 -6 c-3 -5 -12
-10 -18 -10 -7 0 -6 4 3 10 19 12 23 12 15 0z m110 0 c3 -5 1 -10 -4 -10 -6 0
-11 5 -11 10 0 6 2 10 4 10 3 0 8 -4 11 -10z m185 -5 c0 -8 -2 -15 -4 -15 -2
0 -6 7 -10 15 -3 8 -1 15 4 15 6 0 10 -7 10 -15z m80 5 c0 -5 -4 -10 -10 -10
-5 0 -10 5 -10 10 0 6 5 10 10 10 6 0 10 -4 10 -10z m2859 -12 c-13 -13 -26
-19 -28 -14 -4 10 27 36 42 36 6 0 -1 -10 -14 -22z m325 7 c-4 -8 -16 -14 -28
-14 -16 1 -17 2 -3 6 9 2 17 9 17 14 0 5 4 9 10 9 5 0 7 -7 4 -15z m793 9 c-3
-3 -12 -4 -19 -1 -8 3 -5 6 6 6 11 1 17 -2 13 -5z m-5490 -10 c-3 -3 -12 -4
-19 -1 -8 3 -5 6 6 6 11 1 17 -2 13 -5z m85 -5 c15 -8 19 -8 14 0 -5 7 4 11
26 11 29 -1 31 -2 16 -14 -10 -7 -16 -15 -14 -17 2 -2 -11 -4 -29 -5 -23 0
-32 3 -28 13 8 20 -21 15 -46 -8 -12 -12 -25 -18 -29 -14 -9 9 35 45 55 45 8
0 24 -5 35 -11z m952 -4 c-7 -17 -14 -18 -41 -8 -15 6 -13 9 12 14 17 4 31 7
32 8 1 0 0 -6 -3 -14z m163 9 c-3 -3 -12 -4 -19 -1 -8 3 -5 6 6 6 11 1 17 -2
13 -5z m1938 -3 c-12 -10 -65 -24 -65 -16 0 7 40 24 60 24 8 1 10 -2 5 -8z
m218 -3 c-4 -7 -6 -21 -4 -32 1 -10 -2 -17 -9 -14 -6 2 -11 7 -11 11 1 4 1 16
1 27 0 11 7 20 16 20 10 0 12 -4 7 -12z m1107 2 c0 -5 -7 -7 -15 -4 -8 4 -15
8 -15 10 0 2 7 4 15 4 8 0 15 -4 15 -10z m275 1 c3 -5 1 -12 -4 -15 -5 -3 -11
1 -15 9 -6 16 9 21 19 6z m342 3 c-3 -3 -12 -4 -19 -1 -8 3 -5 6 6 6 11 1 17
-2 13 -5z m143 -25 c0 -5 -6 -9 -13 -9 -7 0 -13 9 -13 19 0 15 3 17 13 9 7 -6
13 -14 13 -19z m50 21 c0 -5 -5 -10 -11 -10 -5 0 -7 5 -4 10 3 6 8 10 11 10 2
0 4 -4 4 -10z m95 -1 c11 -16 1 -19 -13 -3 -7 8 -8 14 -3 14 5 0 13 -5 16 -11z
m-5512 -6 c-7 -2 -19 -2 -25 0 -7 3 -2 5 12 5 14 0 19 -2 13 -5z m1441 -9 c9
-24 2 -26 -12 -4 -7 11 -8 20 -3 20 5 0 12 -7 15 -16z m41 6 c3 -5 1 -10 -4
-10 -6 0 -11 5 -11 10 0 6 2 10 4 10 3 0 8 -4 11 -10z m1395 0 c0 -5 -3 -10
-7 -10 -5 0 -19 -3 -33 -6 l-25 -6 25 15 c31 18 40 20 40 7z m430 -10 c-23
-20 -40 -26 -40 -14 0 11 34 33 49 34 9 0 6 -7 -9 -20z m250 10 c-8 -5 -22 -9
-30 -9 -10 0 -8 3 5 9 27 12 43 12 25 0z m451 1 c-9 -6 -10 -11 -2 -15 7 -5 8
-13 1 -25 -5 -10 -6 -22 -2 -26 4 -5 2 -5 -4 -2 -7 4 -14 0 -18 -8 -6 -18 15
-20 32 -3 17 17 28 2 12 -17 -18 -21 -33 -19 -58 10 -21 24 -21 25 -2 25 11 0
20 5 20 10 0 7 -15 9 -37 5 -28 -4 -33 -3 -18 4 11 5 30 10 43 10 19 1 22 5
17 21 -5 15 -2 20 12 20 14 0 15 -2 4 -9z m123 -6 c-4 -10 0 -15 12 -16 18 0
18 -1 -1 -8 -22 -9 -50 12 -40 29 10 16 35 12 29 -5z m132 0 c13 -13 13 -15 1
-15 -8 0 -20 7 -27 15 -9 11 -10 15 -1 15 7 0 19 -7 27 -15z m304 11 c0 -3 -4
-8 -10 -11 -5 -3 -10 -1 -10 4 0 6 5 11 10 11 6 0 10 -2 10 -4z m80 -11 c0 -8
-2 -15 -4 -15 -2 0 -6 7 -10 15 -3 8 -1 15 4 15 6 0 10 -7 10 -15z m617 9 c-3
-3 -12 -4 -19 -1 -8 3 -5 6 6 6 11 1 17 -2 13 -5z m810 -16 c-3 -8 -6 -5 -6 6
-1 11 2 17 5 13 3 -3 4 -12 1 -19z m-6147 3 c0 -5 -9 -7 -20 -4 -11 3 -20 7
-20 9 0 2 9 4 20 4 11 0 20 -4 20 -9z m1460 -7 c0 -2 -7 -4 -15 -4 -8 0 -15 4
-15 10 0 5 7 7 15 4 8 -4 15 -8 15 -10z m2217 9 c-10 -9 25 -32 50 -33 12 0
25 -5 29 -11 5 -9 -1 -10 -20 -5 -15 4 -26 2 -26 -4 0 -5 -7 -10 -15 -10 -8 0
-15 -4 -15 -10 0 -5 -7 -10 -15 -10 -8 0 -15 -9 -15 -20 0 -11 7 -20 15 -20 8
0 15 -4 15 -10 0 -5 -11 -10 -24 -10 -19 0 -22 4 -18 25 3 17 0 25 -9 25 -11
0 -11 2 1 10 13 8 11 12 -8 26 -30 20 -24 35 19 50 42 15 44 16 36 7z m129
-40 c-8 -8 -46 22 -46 36 0 10 8 7 25 -9 14 -13 23 -25 21 -27z m970 32 c17
-16 14 -18 -10 -9 -9 3 -16 10 -16 15 0 13 9 11 26 -6z m403 -15 c-22 -14 -34
2 -13 17 13 10 20 10 23 2 2 -6 -3 -15 -10 -19z m64 23 c4 -3 -1 -12 -11 -20
-16 -12 -16 -14 1 -24 9 -5 15 -14 12 -19 -3 -5 -14 -2 -23 8 -14 13 -15 22
-7 39 10 24 17 28 28 16z m-3646 -9 c-3 -3 -12 -4 -19 -1 -8 3 -5 6 6 6 11 1
17 -2 13 -5z m1383 -9 c11 -13 8 -15 -15 -15 -23 0 -26 2 -15 15 7 8 14 15 15
15 1 0 8 -7 15 -15z m760 5 c18 -12 2 -12 -25 0 -13 6 -15 9 -5 9 8 0 22 -4
30 -9z m1130 0 c0 -5 -4 -10 -10 -10 -5 0 -10 5 -10 10 0 6 5 10 10 10 6 0 10
-4 10 -10z m40 -10 c-8 -5 -17 -7 -19 -4 -3 3 1 9 9 14 8 5 17 7 19 4 3 -3 -1
-9 -9 -14z m436 -21 c18 -1 18 -2 1 -6 -19 -5 -57 22 -57 40 0 6 8 0 19 -11
10 -12 27 -23 37 -23z m599 31 c3 -6 -1 -7 -9 -4 -18 7 -21 14 -7 14 6 0 13
-4 16 -10z m45 0 c0 -5 -8 -10 -17 -10 -15 0 -16 2 -3 10 19 12 20 12 20 0z
m-4576 -16 c9 -8 16 -21 16 -27 0 -8 -3 -9 -8 -1 -4 5 -18 18 -32 27 -18 12
-20 17 -8 17 9 0 24 -7 32 -16z m1376 8 c0 -10 -69 -47 -75 -40 -3 2 6 11 20
18 14 7 25 17 25 22 0 4 7 8 15 8 8 0 15 -3 15 -8z m33 -19 c-11 -10 -18 -24
-15 -32 4 -11 6 -11 13 0 6 10 9 8 9 -8 0 -14 -11 -28 -29 -39 -29 -17 -32
-44 -5 -44 8 0 14 -4 14 -9 0 -12 -56 -34 -72 -28 -7 3 -3 6 9 6 20 1 45 21
26 21 -17 1 -82 66 -75 76 11 17 51 36 62 29 17 -10 11 -25 -7 -18 -11 5 -14
3 -8 -6 4 -8 2 -17 -6 -22 -26 -16 0 -20 30 -5 25 13 29 20 22 38 -6 17 -2 27
18 44 14 12 28 20 30 18 2 -2 -5 -12 -16 -21z m282 -1 c-8 -8 -25 10 -19 20 4
6 9 5 15 -3 4 -7 6 -15 4 -17z m865 18 c13 -9 13 -10 0 -10 -8 0 -22 5 -30 10
-13 9 -13 10 0 10 8 0 22 -5 30 -10z m843 -12 c-13 -12 -26 -19 -29 -15 -4 4
1 14 12 22 29 22 41 18 17 -7z m163 7 c-8 -8 -22 -15 -32 -15 -13 0 -14 3 -4
15 7 8 21 15 32 15 17 0 18 -2 4 -15z m-4866 -5 c-8 -5 -19 -10 -25 -10 -5 0
-3 5 5 10 8 5 20 10 25 10 6 0 3 -5 -5 -10z m230 0 c0 -5 -4 -10 -10 -10 -5 0
-10 5 -10 10 0 6 5 10 10 10 6 0 10 -4 10 -10z m1227 -18 c-17 -16 -39 -8 -31
12 3 8 14 12 25 9 18 -5 19 -7 6 -21z m1896 11 c-4 -10 -15 -27 -25 -38 -12
-12 -17 -28 -13 -42 3 -15 -1 -25 -12 -32 -16 -9 -14 -10 8 -11 15 0 29 7 33
15 9 24 66 -7 66 -36 0 -8 -4 -9 -13 0 -10 8 -17 7 -25 -1 -9 -9 -12 -9 -12 0
0 8 -11 10 -37 5 -21 -3 -56 -7 -78 -7 -32 -1 -39 -4 -37 -18 2 -10 -2 -18 -8
-18 -5 0 -10 9 -10 20 0 21 -26 28 -32 9 -2 -7 -9 -5 -17 5 -12 14 -8 16 45
16 48 1 65 6 89 25 22 18 25 25 13 25 -9 0 -20 -4 -23 -10 -3 -5 -14 -10 -23
-10 -12 0 -13 3 -4 12 8 8 9 15 1 25 -9 10 -8 13 4 13 8 0 17 -6 20 -12 6 -16
47 24 47 46 0 8 8 20 18 25 25 15 32 13 25 -6z m67 8 c0 -5 13 -11 29 -14 45
-9 47 -34 3 -42 -20 -4 -43 -12 -50 -17 -7 -6 -16 -8 -19 -4 -4 4 -1 11 7 16
8 5 11 12 7 16 -9 9 -39 -17 -34 -30 3 -6 -6 -12 -18 -12 -17 -1 -21 3 -18 16
3 11 11 16 19 13 8 -3 20 8 31 31 15 32 43 50 43 27z m395 -9 c-3 -3 -11 0
-18 7 -9 10 -8 11 6 5 10 -3 15 -9 12 -12z m227 -1 c-2 -8 3 -18 10 -22 7 -4
9 -11 5 -15 -4 -5 -17 2 -29 14 -22 21 -22 22 -3 23 16 1 16 3 -5 10 l-25 8
25 -2 c15 -2 24 -8 22 -16z m602 4 c3 -8 1 -15 -4 -15 -6 0 -10 7 -10 15 0 8
2 15 4 15 2 0 6 -7 10 -15z m305 6 c7 -5 9 -11 4 -14 -4 -3 -17 1 -28 9 -21
16 0 20 24 5z m338 3 c-3 -3 -12 -4 -19 -1 -8 3 -5 6 6 6 11 1 17 -2 13 -5z
m241 -3 c20 -1 32 -6 32 -15 0 -10 -14 -13 -55 -12 -30 0 -55 2 -55 3 0 15 15
30 28 28 9 -2 32 -4 50 -4z m-5483 -11 c-3 -5 -12 -10 -18 -10 -7 0 -6 4 3 10
19 12 23 12 15 0z m80 -5 c-28 -9 -33 -13 -17 -14 28 -1 29 -25 0 -45 -12 -9
-20 -17 -17 -19 2 -1 17 -9 32 -17 28 -14 28 -14 6 -22 -12 -5 -24 -6 -27 -3
-3 3 0 5 7 5 7 0 9 5 6 10 -4 6 -10 8 -15 5 -4 -3 -13 1 -19 9 -9 11 -6 18 15
33 l27 20 -31 14 -32 14 32 12 c18 6 42 11 53 11 11 0 2 -5 -20 -13z m135 5
c0 -5 -2 -10 -4 -10 -3 0 -8 5 -11 10 -3 6 -1 10 4 10 6 0 11 -4 11 -10z
m2094 1 c4 -5 -7 -12 -23 -16 -20 -4 -28 -11 -24 -21 3 -8 -1 -14 -11 -14 -22
0 -20 16 6 40 23 21 43 26 52 11z m216 -5 c0 -8 6 -17 13 -20 6 -3 1 -3 -13 0
-31 8 -34 10 -25 23 9 16 25 13 25 -3z m240 7 c-29 -12 -39 -36 -24 -57 17
-25 89 -47 124 -39 14 3 21 2 17 -3 -5 -5 -12 -9 -15 -10 -4 0 -20 -6 -35 -12
-16 -7 -36 -11 -45 -11 -15 1 -15 2 1 6 10 3 16 10 14 16 -3 7 -11 10 -18 7
-8 -2 -28 -4 -46 -4 -27 0 -30 -2 -23 -17 11 -19 78 -34 109 -24 20 6 23 -8 8
-32 -10 -17 -28 -17 -24 -1 1 7 -9 14 -21 16 -20 3 -23 0 -17 -17 5 -17 2 -21
-14 -21 -25 0 -27 13 -5 34 14 15 14 16 -4 16 -31 0 -52 11 -52 26 0 8 -5 14
-11 14 -5 0 -7 6 -3 13 5 8 2 8 -9 -2 -18 -14 -22 -5 -8 17 7 11 15 11 46 -2
52 -22 66 -20 28 5 -37 23 -42 43 -15 58 10 6 12 11 4 11 -7 0 -10 5 -7 10 3
6 18 10 33 9 16 0 21 -3 12 -6z m140 -3 c0 -5 -2 -10 -4 -10 -3 0 -8 5 -11 10
-3 6 -1 10 4 10 6 0 11 -4 11 -10z m273 0 c-13 -6 -23 -18 -23 -30 0 -11 -4
-20 -9 -20 -4 0 -8 10 -7 23 1 22 18 36 46 36 8 0 5 -4 -7 -9z m1032 -6 c-9
-7 -25 -10 -36 -7 -35 9 -29 19 12 19 32 -1 36 -3 24 -12z m490 -5 c-4 -5 -13
-9 -22 -9 -13 0 -13 3 -3 15 13 15 35 11 25 -6z m682 15 c-3 -3 -12 -4 -19 -1
-8 3 -5 6 6 6 11 1 17 -2 13 -5z m-4037 -14 c0 -5 -2 -10 -4 -10 -3 0 -8 5
-11 10 -3 6 -1 10 4 10 6 0 11 -4 11 -10z m1137 4 c-3 -3 -12 -4 -19 -1 -8 3
-5 6 6 6 11 1 17 -2 13 -5z m1351 -13 c17 -7 32 -19 32 -26 0 -8 9 -17 20 -20
11 -3 20 -10 20 -13 0 -15 -40 -41 -55 -36 -8 4 -15 1 -15 -5 0 -9 -5 -9 -20
-1 -12 6 -30 8 -40 5 -14 -4 -20 -2 -20 9 0 9 5 16 10 16 6 0 10 10 10 21 0
18 3 19 15 9 8 -7 21 -10 29 -7 11 4 13 1 9 -10 -5 -12 -3 -14 6 -8 8 4 17 2
21 -5 4 -7 13 -10 19 -6 15 10 -53 76 -79 76 -12 0 -18 4 -15 11 4 5 10 8 13
6 4 -2 22 -9 40 -16z m507 7 c-11 -6 -23 -16 -27 -22 -5 -7 -8 -6 -8 3 0 11
-3 11 -15 1 -10 -8 -15 -9 -15 -2 0 7 15 16 33 21 44 13 56 12 32 -1z m717
-21 c-5 -18 -7 -19 -10 -4 -2 9 -8 17 -13 17 -5 0 -9 4 -9 9 0 5 8 7 19 4 14
-3 17 -11 13 -26z m106 7 c1 -1 -11 -1 -27 0 -22 1 -27 4 -19 14 8 10 14 10
27 0 9 -7 17 -13 19 -14z m-2703 6 c11 -5 14 -9 8 -9 -7 -1 -13 -8 -13 -17 0
-8 -4 -13 -10 -9 -5 3 -7 12 -3 20 3 8 0 15 -6 15 -7 0 -14 -7 -17 -15 -4 -8
-10 -13 -15 -10 -13 9 2 35 20 34 9 0 25 -4 36 -9z m342 4 c-3 -3 -12 -4 -19
-1 -8 3 -5 6 6 6 11 1 17 -2 13 -5z m1450 0 c-3 -3 -12 -4 -19 -1 -8 3 -5 6 6
6 11 1 17 -2 13 -5z m153 -9 c-15 -17 -40 -20 -40 -4 0 6 7 9 15 5 8 -3 15 -1
15 4 0 6 5 10 11 10 8 0 8 -5 -1 -15z m599 11 c-2 -2 -17 -6 -34 -10 -22 -5
-26 -4 -15 4 14 9 59 15 49 6z m371 -6 c8 -5 11 -10 5 -10 -5 0 -17 5 -25 10
-8 5 -10 10 -5 10 6 0 17 -5 25 -10z m-3027 -26 c16 -21 27 -25 53 -22 19 2
34 0 34 -4 0 -4 -7 -8 -15 -8 -8 0 -15 -5 -15 -11 0 -8 -5 -8 -15 1 -8 7 -21
10 -30 6 -8 -3 -14 -2 -14 2 3 20 -2 32 -14 32 -7 0 -22 7 -33 15 -18 14 -18
14 5 15 13 0 32 -11 44 -26z m1236 12 c9 -11 7 -15 -10 -19 -13 -3 -18 -10
-14 -17 4 -7 17 -9 29 -6 20 5 20 5 2 -9 -17 -13 -22 -13 -36 0 -9 8 -23 15
-30 15 -8 0 -4 9 11 24 29 29 33 30 48 12z m-2174 -6 c-3 -5 -11 -10 -16 -10
-6 0 -7 5 -4 10 3 6 11 10 16 10 6 0 7 -4 4 -10z m1425 0 c0 -5 -4 -10 -10
-10 -5 0 -10 5 -10 10 0 6 5 10 10 10 6 0 10 -4 10 -10z m844 -4 c-7 -17 -52
-38 -59 -27 -5 9 11 25 35 34 25 9 30 8 24 -7z m1069 -5 c-38 -20 -73 -23 -89
-6 -17 17 -8 20 62 21 54 0 55 0 27 -15z m-3393 -1 c0 -5 -7 -10 -15 -10 -8 0
-15 5 -15 10 0 6 7 10 15 10 8 0 15 -4 15 -10z m95 0 c3 -6 -4 -10 -17 -10
-18 0 -20 2 -8 10 19 12 18 12 25 0z m1354 -6 c13 -12 -8 -10 -29 2 l-25 15
25 -7 c14 -3 27 -8 29 -10z m101 2 c0 -8 6 -16 13 -19 10 -4 10 -7 0 -18 -11
-11 -13 -10 -13 4 0 9 -5 17 -11 17 -5 0 -8 4 -4 9 3 5 -3 12 -12 14 -14 4
-13 5 5 6 13 1 22 -5 22 -13z m1360 10 c0 -2 -7 -6 -15 -10 -8 -3 -15 -1 -15
4 0 6 7 10 15 10 8 0 15 -2 15 -4z m-4350 -16 c0 -5 -4 -10 -10 -10 -5 0 -10
5 -10 10 0 6 5 10 10 10 6 0 10 -4 10 -10z m4110 0 c0 -5 -7 -10 -15 -10 -8 0
-15 -5 -15 -12 0 -6 -3 -9 -6 -5 -11 10 4 37 21 37 8 0 15 -4 15 -10z m127 4
c-3 -3 -12 -4 -19 -1 -8 3 -5 6 6 6 11 1 17 -2 13 -5z m63 -16 c0 -6 -7 -7
-16 -4 -9 3 -20 6 -25 6 -6 0 -8 4 -5 9 8 12 46 2 46 -11z m110 12 c-8 -5 -22
-9 -30 -9 -10 0 -8 3 5 9 27 12 43 12 25 0z m310 0 c0 -5 -2 -10 -4 -10 -3 0
-8 5 -11 10 -3 6 -1 10 4 10 6 0 11 -4 11 -10z m-3246 -6 c20 -8 11 -24 -15
-24 -19 0 -25 11 -12 23 8 8 8 8 27 1z m841 -4 c-3 -5 -12 -10 -18 -10 -7 0
-6 4 3 10 19 12 23 12 15 0z m287 -14 c20 -9 40 -20 43 -25 8 -14 -38 0 -58
17 -9 8 -20 12 -25 8 -4 -4 2 -15 13 -23 20 -15 20 -15 -1 -11 -17 4 -20 1
-16 -25 3 -21 1 -28 -7 -22 -7 4 -10 13 -7 20 2 7 -2 22 -10 34 -13 18 -13 20
1 15 11 -4 15 0 15 16 0 11 3 19 8 17 4 -2 24 -11 44 -21z m921 -4 c-2 -15 2
-21 15 -20 48 4 113 -3 107 -11 -3 -6 -33 -8 -67 -6 -34 2 -69 0 -78 -5 -11
-6 -19 -3 -28 10 -9 14 -8 20 1 23 7 3 1 6 -12 6 -28 1 -19 16 14 24 35 9 50
2 48 -21z m-405 0 c2 -7 -2 -10 -12 -6 -9 3 -16 11 -16 16 0 13 23 5 28 -10z
m138 0 c0 -10 -8 -18 -22 -18 -21 -2 -21 -1 -6 17 20 24 28 24 28 1z m568 2
c4 -9 2 -13 -5 -8 -6 4 -15 0 -20 -7 -4 -7 -11 -10 -14 -7 -7 7 15 37 26 38 4
0 10 -7 13 -16z m203 -1 c-9 -9 -20 -13 -24 -9 -4 4 -1 11 7 16 25 16 35 11
17 -7z m127 1 c9 -24 7 -27 -9 -10 -17 17 -19 26 -6 26 5 0 12 -7 15 -16z
m-963 -3 c-7 -5 -17 -15 -22 -22 -6 -10 -8 -7 -6 9 1 15 8 22 22 22 15 0 17
-2 6 -9z m-735 -26 c-23 -17 -36 -19 -36 -6 0 5 8 12 18 14 32 9 37 6 18 -8z
m594 5 c8 -5 11 -13 6 -17 -5 -4 -11 -2 -13 5 -6 15 -20 16 -36 2 -7 -6 -23
-19 -36 -30 -13 -11 -19 -20 -13 -20 6 0 14 5 18 11 3 6 15 9 25 6 11 -3 19
-2 19 2 0 4 16 7 36 8 20 1 40 5 46 11 10 10 58 4 58 -7 0 -15 -14 -20 -26
-10 -15 12 -57 2 -49 -12 8 -12 -12 -11 -36 2 -17 9 -20 7 -17 -8 3 -15 -5
-18 -48 -19 -48 -2 -51 0 -46 19 10 38 41 61 87 66 6 0 17 -3 25 -9z m640 6
c0 -11 -19 -15 -25 -6 -3 5 1 10 9 10 9 0 16 -2 16 -4z m-1180 -26 c0 -13 -5
-17 -14 -14 -9 3 -17 -3 -21 -15 -6 -20 -14 -24 -32 -19 -5 1 -11 -11 -14 -28
l-7 -29 -1 34 c-1 26 2 32 14 27 8 -3 15 -1 15 4 0 6 -4 10 -10 10 -5 0 -10 5
-10 11 0 6 9 9 20 6 14 -4 25 1 33 14 15 25 27 24 27 -1z m-2410 0 c12 -7 10
-9 -8 -7 -12 0 -22 5 -22 9 0 11 12 10 30 -2z m3700 0 c0 -5 -4 -10 -10 -10
-5 0 -10 5 -10 10 0 6 5 10 10 10 6 0 10 -4 10 -10z m-3433 -6 c-3 -3 -12 -4
-19 -1 -8 3 -5 6 6 6 11 1 17 -2 13 -5z m2306 -1 c-7 -2 -19 -2 -25 0 -7 3 -2
5 12 5 14 0 19 -2 13 -5z m-2809 -33 c-6 -6 -10 -2 -11 12 -2 16 1 18 10 9 7
-7 8 -14 1 -21z m141 11 c3 -5 2 -12 -3 -15 -5 -3 -9 1 -9 9 0 17 3 19 12 6z
m2628 2 c-7 -2 -19 -2 -25 0 -7 3 -2 5 12 5 14 0 19 -2 13 -5z m-2454 -19 c10
-9 -45 -3 -59 6 -11 7 -5 8 20 4 19 -4 37 -8 39 -10z m266 5 c10 -15 -1 -23
-20 -15 -9 3 -13 10 -10 16 8 13 22 13 30 -1z m2240 -10 c-63 -14 -125 -18
-125 -9 0 13 13 15 93 16 63 2 67 1 32 -7z m-451 -14 c-4 -8 -8 -15 -10 -15
-2 0 -4 7 -4 15 0 8 4 15 10 15 5 0 7 -7 4 -15z m86 11 c0 -2 -7 -9 -15 -16
-12 -10 -15 -10 -15 4 0 9 7 16 15 16 8 0 15 -2 15 -4z m205 -9 c-29 -20 -55
-28 -55 -17 0 12 31 29 55 30 19 0 19 0 0 -13z m-2395 -12 c-14 -17 -30 -20
-30 -6 0 5 8 12 18 14 9 3 19 5 21 6 2 0 -2 -6 -9 -14z m2259 1 c10 -12 8 -13
-8 -9 -12 3 -21 9 -21 14 0 14 16 11 29 -5z m-2154 -17 c11 -17 -1 -21 -15 -4
-8 9 -8 15 -2 15 6 0 14 -5 17 -11z m1001 -16 c-10 -10 -19 5 -10 18 6 11 8
11 12 0 2 -7 1 -15 -2 -18z m594 -3 c0 -11 -4 -20 -10 -20 -5 0 -10 9 -10 20
0 11 5 20 10 20 6 0 10 -9 10 -20z m-1619 -13 c-13 -13 -26 -3 -16 12 3 6 11
8 17 5 6 -4 6 -10 -1 -17z m93 7 c18 -17 21 -28 6 -19 -5 3 -10 0 -11 -7 0
-10 -2 -10 -6 0 -2 6 -13 12 -24 12 -19 0 -25 11 -12 23 11 12 31 8 47 -9z
m1366 2 c0 -8 -4 -18 -10 -21 -5 -3 -10 3 -10 14 0 12 5 21 10 21 6 0 10 -6
10 -14z m-1503 -28 c2 -16 0 -19 -6 -9 -9 14 -71 11 -130 -5 -17 -5 -22 -4
-17 4 4 7 3 12 -3 12 -5 0 -12 -6 -14 -12 -4 -10 -8 -10 -15 1 -13 18 -24 -1
-15 -26 4 -11 -2 -8 -15 9 -12 14 -22 28 -22 30 0 2 17 5 37 6 21 2 39 4 40 6
2 1 38 3 81 4 74 2 78 1 79 -20z m508 -18 c3 -32 2 -33 -11 -15 -13 18 -14 18
-14 -7 0 -15 -4 -29 -9 -32 -8 -5 -5 53 5 82 8 25 27 7 29 -28z m958 20 c-4
-16 -43 -23 -43 -8 0 4 -9 8 -21 8 -11 0 -18 4 -15 8 2 4 22 8 44 8 31 0 38
-3 35 -16z m-1733 0 c0 -5 -15 -10 -32 -10 -18 -1 -57 -2 -85 -4 -29 -2 -53 0
-53 5 0 4 28 10 63 12 34 2 72 4 85 5 12 1 22 -2 22 -8z m1004 -16 c9 -36 -1
-43 -14 -10 -12 33 -12 36 -1 36 5 0 12 -12 15 -26z m-1245 2 c-11 -9 -90 -16
-84 -6 3 5 25 10 47 10 23 0 39 -2 37 -4z m54 -3 c-7 -2 -19 -2 -25 0 -7 3 -2
5 12 5 14 0 19 -2 13 -5z m608 -17 c-7 -8 -10 -20 -6 -26 3 -5 2 -10 -4 -10
-5 0 -11 6 -14 13 -3 8 -10 6 -21 -8 -16 -20 -17 -20 -14 5 2 17 8 24 19 22 9
-1 22 5 29 13 7 9 15 13 18 10 3 -2 -1 -11 -7 -19z m539 9 c0 -8 -4 -15 -10
-15 -5 0 -10 7 -10 15 0 8 5 15 10 15 6 0 10 -7 10 -15z m660 5 c0 -5 -5 -10
-11 -10 -5 0 -7 5 -4 10 3 6 8 10 11 10 2 0 4 -4 4 -10z m-2053 -6 c-3 -3 -12
-4 -19 -1 -8 3 -5 6 6 6 11 1 17 -2 13 -5z m90 0 c-3 -3 -12 -4 -19 -1 -8 3
-5 6 6 6 11 1 17 -2 13 -5z m326 -1 c-7 -2 -21 -2 -30 0 -10 3 -4 5 12 5 17 0
24 -2 18 -5z m1257 -3 c0 -5 -4 -10 -10 -10 -5 0 -10 5 -10 10 0 6 5 10 10 10
6 0 10 -4 10 -10z m-1766 -23 c21 -20 15 -33 -9 -23 -9 3 -13 10 -10 16 3 5
-1 10 -9 10 -9 0 -16 -6 -16 -12 0 -10 -2 -10 -9 0 -4 7 -12 12 -17 11 -20 -3
-45 1 -41 9 10 15 93 7 111 -11z m449 16 c-7 -2 -21 -2 -30 0 -10 3 -4 5 12 5
17 0 24 -2 18 -5z m-623 -12 c0 -5 -9 -7 -20 -4 -11 3 -20 7 -20 9 0 2 9 4 20
4 11 0 20 -4 20 -9z m745 -11 c3 -5 1 -10 -4 -10 -6 0 -11 5 -11 10 0 6 2 10
4 10 3 0 8 -4 11 -10z m-1028 -6 c-3 -3 -12 -4 -19 -1 -8 3 -5 6 6 6 11 1 17
-2 13 -5z m1210 0 c-3 -3 -12 -4 -19 -1 -8 3 -5 6 6 6 11 1 17 -2 13 -5z m488
-4 c-3 -5 -11 -10 -16 -10 -6 0 -7 5 -4 10 3 6 11 10 16 10 6 0 7 -4 4 -10z
m-295 -14 c0 -2 -7 -9 -15 -16 -13 -11 -14 -10 -9 4 5 14 24 23 24 12z m107
-2 c-3 -3 -12 -4 -19 -1 -8 3 -5 6 6 6 11 1 17 -2 13 -5z m-1077 -8 c0 -2 -7
-9 -15 -16 -13 -11 -14 -10 -9 4 5 14 24 23 24 12z"/>
<path d="M5060 4120 c0 -5 5 -10 10 -10 6 0 10 5 10 10 0 6 -4 10 -10 10 -5 0
-10 -4 -10 -10z"/>
<path d="M5110 4119 c0 -5 5 -7 10 -4 6 3 10 8 10 11 0 2 -4 4 -10 4 -5 0 -10
-5 -10 -11z"/>
<path d="M5460 4079 c0 -5 5 -7 10 -4 6 3 10 8 10 11 0 2 -4 4 -10 4 -5 0 -10
-5 -10 -11z"/>
<path d="M2488 4053 c7 -3 16 -2 19 1 4 3 -2 6 -13 5 -11 0 -14 -3 -6 -6z"/>
<path d="M1974 3705 c24 -37 19 -49 -10 -26 -15 12 -31 21 -35 21 -10 0 -7
-29 5 -49 6 -10 5 -12 -2 -7 -7 4 -12 2 -12 -4 0 -8 -6 -8 -21 0 -11 6 -25 10
-31 8 -6 -2 5 -12 25 -21 20 -10 42 -27 48 -38 10 -20 9 -20 -20 -5 -16 9 -37
16 -46 16 -18 0 -20 -36 -2 -43 9 -4 8 -8 -3 -16 -12 -9 -10 -11 13 -11 35 0
97 -26 97 -40 0 -7 -6 -8 -19 0 -28 14 -51 2 -51 -27 0 -14 -4 -22 -11 -18 -6
4 -13 -2 -16 -14 -3 -12 -10 -21 -16 -21 -6 0 -2 -7 9 -15 18 -14 18 -14 -6
-15 -24 -1 -24 -1 -6 -15 17 -13 17 -15 3 -15 -11 0 -14 -5 -10 -17 4 -11 3
-14 -5 -9 -7 4 -12 2 -12 -3 0 -14 12 -14 47 1 18 7 81 10 181 9 106 -2 152 0
152 8 0 6 -8 11 -17 12 -10 0 -13 3 -6 5 7 3 27 -1 45 -10 21 -9 94 -19 198
-25 202 -13 200 -13 200 -1 0 6 -31 10 -72 11 -147 1 -288 16 -307 33 -10 9
-24 16 -31 16 -9 0 -7 5 6 15 19 14 19 14 -1 15 -20 1 -20 1 -1 15 15 12 17
17 7 29 -9 10 -10 20 -3 32 8 14 3 22 -22 39 -47 32 -64 36 -74 18 -7 -12 -11
-12 -17 -3 -4 7 5 23 25 42 25 22 30 32 21 41 -9 9 -20 3 -47 -26 -19 -20 -38
-37 -42 -37 -3 0 6 13 21 28 15 16 29 39 32 51 2 13 9 29 15 36 8 9 6 14 -4
18 -16 6 -34 -8 -61 -45 -22 -33 -28 -15 -8 26 15 32 15 39 3 46 -19 12 -50
-6 -50 -30 0 -11 -4 -20 -10 -20 -5 0 -10 8 -10 18 0 22 -19 42 -38 42 -12 0
-11 -4 2 -25z m-74 -140 c7 -8 9 -15 6 -15 -4 0 -14 7 -22 15 -9 8 -11 15 -6
15 5 0 15 -7 22 -15z m310 -55 c0 -5 -10 -15 -22 -21 -23 -12 -23 -12 -4 10
21 23 26 26 26 11z m-259 -43 c-1 -12 -15 -9 -19 4 -3 6 1 10 8 8 6 -3 11 -8
11 -12z"/>
<path d="M5506 3573 c-6 -14 -5 -15 5 -6 7 7 10 15 7 18 -3 3 -9 -2 -12 -12z"/>
<path d="M2277 3573 c-14 -13 -7 -23 16 -22 17 1 18 2 4 6 -9 2 -15 9 -12 14
7 10 1 12 -8 2z"/>
<path d="M2368 3563 c12 -2 30 -2 40 0 9 3 -1 5 -23 4 -22 0 -30 -2 -17 -4z"/>
<path d="M2368 3543 c12 -2 32 -2 45 0 12 2 2 4 -23 4 -25 0 -35 -2 -22 -4z"/>
<path d="M2636 3541 c-5 -7 -1 -9 8 -5 9 3 16 1 16 -5 0 -8 24 -10 83 -5 59 4
78 3 67 -5 -13 -9 -13 -11 3 -11 9 0 17 5 17 10 0 6 5 10 11 10 6 0 9 -42 8
-122 l-1 -123 68 -3 69 -3 0 73 c0 40 3 96 7 124 l7 51 -72 7 c-191 16 -284
19 -291 7z m77 -8 c-7 -2 -19 -2 -25 0 -7 3 -2 5 12 5 14 0 19 -2 13 -5z m250
-20 c-7 -2 -21 -2 -30 0 -10 3 -4 5 12 5 17 0 24 -2 18 -5z"/>
<path d="M2280 3533 c0 -8 264 -34 335 -32 25 0 27 2 10 8 -11 5 -78 11 -150
15 -71 4 -145 9 -162 13 -18 3 -33 1 -33 -4z"/>
<path d="M2528 3533 c6 -2 18 -2 25 0 6 3 1 5 -13 5 -14 0 -19 -2 -12 -5z"/>
<path d="M2275 3501 c-5 -8 63 -15 260 -27 61 -4 108 -4 105 -1 -3 3 -70 10
-150 16 -80 6 -160 13 -177 15 -18 3 -35 1 -38 -3z"/>
<path d="M2660 3502 c0 -9 156 -23 169 -15 11 7 -11 12 -86 18 -56 5 -83 4
-83 -3z"/>
<path d="M2660 3472 c0 -9 159 -23 169 -15 10 7 -9 11 -86 18 -54 5 -83 4 -83
-3z"/>
<path d="M2272 3464 c8 -7 368 -30 368 -23 0 3 -69 11 -152 17 -168 13 -224
15 -216 6z"/>
<path d="M5513 3395 c0 -38 2 -53 4 -32 2 20 2 52 0 70 -2 17 -4 1 -4 -38z"/>
<path d="M2660 3440 c0 -4 37 -10 82 -13 76 -5 98 -3 87 7 -9 7 -169 14 -169
6z"/>
<path d="M2274 3433 c9 -9 366 -31 366 -22 0 5 -293 29 -349 29 -13 0 -21 -3
-17 -7z"/>
<path d="M2660 3409 c0 -8 161 -22 168 -14 3 3 3 7 1 9 -7 7 -169 12 -169 5z"/>
<path d="M2275 3400 c4 -6 46 -9 98 -9 90 2 91 2 32 9 -90 12 -137 11 -130 0z"/>
<path d="M2474 3389 c-2 -4 33 -9 79 -11 77 -5 96 -4 86 6 -7 7 -161 12 -165
5z"/>
<path d="M2263 3373 c4 -6 67 -13 144 -17 76 -4 159 -9 186 -12 27 -3 47 -2
47 4 0 5 -55 12 -122 15 -68 4 -154 10 -192 13 -47 5 -67 4 -63 -3z"/>
<path d="M2651 3376 c2 -2 45 -7 94 -10 63 -5 86 -4 75 3 -13 10 -179 16 -169
7z"/>
<path d="M2705 3340 c71 -12 136 -11 110 0 -11 5 -51 8 -90 8 l-70 -1 50 -7z"/>
<path d="M1930 3300 c0 -20 5 -21 135 -19 74 0 135 5 135 10 0 5 -12 9 -27 10
-16 0 -44 2 -63 4 -168 16 -180 16 -180 -5z"/>
<path d="M2655 3310 c3 -6 45 -10 93 -9 58 0 80 3 67 9 -29 12 -168 12 -160 0z"/>
<path d="M1881 3301 c-10 -7 -10 -10 -1 -16 6 -4 16 -3 22 3 13 13 -4 23 -21
13z"/>
<path d="M2320 3270 c76 -11 173 -11 140 0 -14 4 -63 8 -110 8 -81 -1 -82 -1
-30 -8z"/>
<path d="M2525 3260 c20 -8 122 -14 114 -6 -2 3 -33 7 -69 10 -43 4 -58 2 -45
-4z"/>
<path d="M2685 3249 c47 -17 308 -22 302 -6 -5 15 -147 23 -147 8 0 -6 -6 -9
-12 -6 -7 2 -49 6 -93 9 -63 4 -73 3 -50 -5z"/>
<path d="M3060 3235 c0 -8 6 -15 13 -15 6 0 102 -7 212 -15 255 -18 265 -18
265 -1 0 16 -33 20 -290 36 -208 13 -200 13 -200 -5z"/>
<path d="M5506 3234 c-9 -24 -7 -94 3 -94 13 0 21 27 21 71 0 40 -13 52 -24
23z"/>
<path d="M5456 3205 c6 -40 11 -52 18 -44 2 2 -3 22 -10 44 l-13 40 5 -40z"/>
<path d="M5450 3066 c0 -22 3 -27 11 -19 8 8 8 16 0 30 -9 16 -10 14 -11 -11z"/>
<path d="M5508 3045 c-2 -25 0 -45 4 -45 5 0 8 20 8 45 0 25 -2 45 -4 45 -2 0
-6 -20 -8 -45z"/>
<path d="M5242 2990 c0 -14 2 -19 5 -12 2 6 2 18 0 25 -3 6 -5 1 -5 -13z"/>
<path d="M5512 2973 c-5 -10 -6 -27 -2 -38 6 -17 8 -15 15 13 8 38 1 52 -13
25z"/>
<path d="M5450 2965 c-8 -9 -8 -15 -2 -15 12 0 26 19 19 26 -2 2 -10 -2 -17
-11z"/>
<path d="M5584 2875 c0 -60 1 -84 3 -52 2 32 2 81 0 110 -2 29 -3 3 -3 -58z"/>
<path d="M5512 2843 c2 -27 8 -47 13 -45 6 2 9 11 7 20 -1 9 -3 29 -3 45 0 15
-5 27 -10 27 -6 0 -9 -21 -7 -47z"/>
<path d="M5386 2834 c-10 -25 1 -29 14 -5 6 12 7 21 1 21 -5 0 -12 -7 -15 -16z"/>
<path d="M5458 2796 c-3 -24 0 -32 9 -29 14 6 18 63 4 63 -5 0 -11 -15 -13
-34z"/>
<path d="M5396 2794 c-15 -14 -22 -34 -12 -34 2 0 11 11 20 25 19 28 15 33 -8
9z"/>
<path d="M5579 2202 c-2 -310 -1 -569 2 -574 4 -6 13 -9 20 -6 11 4 13 41 8
199 -4 107 -8 322 -9 479 -1 157 -5 326 -9 375 -5 55 -9 -129 -12 -473z"/>
<path d="M6219 2198 c-3 -20 -5 -51 -7 -76 -2 -28 -22 -19 -22 9 0 19 -1 19
-16 4 -15 -15 -15 -28 1 -67 5 -13 2 -18 -9 -18 -12 0 -16 10 -16 42 0 23 -3
38 -6 35 -9 -9 -5 -667 4 -681 4 -6 29 -11 56 -11 l49 0 -6 270 c-4 149 -7
323 -7 388 0 71 -4 117 -10 117 -5 0 -11 -6 -11 -12z m-22 -675 c-3 -10 -5 -2
-5 17 0 19 2 27 5 18 2 -10 2 -26 0 -35z m43 -39 c0 -2 -19 -4 -42 -3 -31 0
-37 3 -24 8 18 7 66 3 66 -5z m0 -24 c0 -11 -14 -11 -50 0 -22 7 -21 8 13 9
20 1 37 -3 37 -9z"/>
<path d="M1710 2056 c-35 -13 -35 -13 -44 -94 -10 -97 -6 -111 28 -108 33 4
33 0 -1 -18 l-28 -15 30 5 c23 4 37 0 55 -16 14 -12 18 -20 10 -17 -8 2 -25 7
-36 11 -14 4 -23 2 -27 -7 -6 -17 1 -28 30 -44 18 -10 26 -9 48 9 14 11 24 27
21 34 -3 8 0 14 7 14 7 1 1 7 -13 15 l-25 15 25 -3 c14 -1 30 -5 35 -8 6 -3
34 -7 63 -8 53 -3 71 12 31 24 -43 14 4 23 160 31 267 13 408 9 451 -13 14 -7
33 -13 42 -13 9 0 18 -5 20 -11 2 -6 15 -9 28 -6 l25 4 -22 8 c-33 11 -28 23
10 27 25 2 33 8 35 27 5 32 -21 51 -70 51 -32 0 -38 -3 -38 -22 0 -19 -4 -16
-29 18 -43 58 -105 104 -140 104 l-31 0 17 -35 c9 -19 14 -37 11 -40 -3 -3
-36 2 -74 11 -48 11 -76 24 -93 43 l-24 26 -186 1 c-102 1 -204 4 -226 7 -24
4 -54 1 -75 -7z m705 -46 c3 -5 1 -10 -4 -10 -6 0 -11 5 -11 10 0 6 2 10 4 10
3 0 8 -4 11 -10z m-663 -49 c-8 -4 -13 -11 -13 -15 3 -23 -1 -28 -10 -13 -12
21 -4 37 19 37 13 0 14 -2 4 -9z m394 -13 c-3 -21 -9 -23 -62 -26 -92 -4 -184
7 -184 23 0 14 37 19 182 23 65 2 68 1 64 -20z m198 6 c9 -24 7 -34 -8 -34
-13 0 -26 20 -26 41 0 15 27 10 34 -7z"/>
<path d="M2755 2039 c-22 -11 -30 -16 -18 -13 l23 5 -26 -50 c-14 -27 -23 -55
-19 -61 4 -7 17 10 32 42 13 29 32 61 40 71 23 25 13 27 -32 6z"/>
<path d="M2853 2023 c-8 -21 -16 -42 -17 -48 -1 -5 -5 -15 -9 -21 -6 -11 0
-24 13 -24 7 0 50 108 50 124 0 20 -23 0 -37 -31z"/>
<path d="M1263 2010 c0 -25 2 -35 4 -22 2 12 2 32 0 45 -2 12 -4 2 -4 -23z"/>
<path d="M2927 1973 c-4 -6 -4 -18 -1 -26 3 -8 1 -18 -5 -21 -6 -4 -8 -13 -4
-21 3 -9 0 -22 -7 -30 -15 -18 -13 -21 23 -30 23 -6 27 -4 27 14 0 12 -5 21
-11 21 -5 0 -8 3 -6 8 8 13 -8 98 -16 85z"/>
<path d="M2875 1950 c-3 -5 -4 -10 -1 -10 2 0 11 -3 20 -6 11 -4 16 -1 16 10
0 18 -25 22 -35 6z"/>
<path d="M5159 1883 c-7 -42 -5 -233 3 -233 5 0 8 52 7 120 0 66 -3 120 -5
120 -2 0 -5 -3 -5 -7z"/>
<path d="M2795 1869 c4 -5 22 -9 42 -9 45 0 40 5 -10 13 -22 3 -35 2 -32 -4z"/>
<path d="M3720 1832 c0 -12 19 -26 26 -19 2 2 -2 10 -11 17 -9 8 -15 8 -15 2z"/>
<path d="M2700 1787 c0 -9 6 -17 13 -20 6 -2 -6 -8 -28 -13 -60 -13 -792 -11
-837 3 -60 18 -60 -8 -1 -53 49 -37 195 -55 492 -61 191 -3 237 -1 250 10 23
21 142 32 152 15 10 -15 4 53 -9 96 -9 32 -32 48 -32 23z m-703 -89 c-3 -8 -6
-5 -6 6 -1 11 2 17 5 13 3 -3 4 -12 1 -19z"/>
<path d="M1700 1740 c0 -5 7 -10 15 -10 8 0 15 5 15 10 0 6 -7 10 -15 10 -8 0
-15 -4 -15 -10z"/>
<path d="M3077 1744 c-9 -9 13 -64 26 -65 74 -7 138 -4 165 7 36 15 35 34 -1
34 -12 0 -40 7 -62 15 -40 14 -117 20 -128 9z m98 -34 c3 -5 -1 -10 -9 -10 -9
0 -16 5 -16 10 0 6 4 10 9 10 6 0 13 -4 16 -10z"/>
<path d="M5515 1742 c-3 -4 -34 -7 -68 -7 l-62 0 -6 -45 -6 -45 -1 43 c-2 42
-2 42 -41 42 l-38 0 1 -45 c1 -50 -2 -48 109 -47 30 1 47 -3 47 -11 0 -7 4 -6
10 3 9 13 11 13 20 0 8 -12 10 -12 10 5 1 19 1 19 15 1 8 -11 21 -16 30 -13
20 8 22 112 1 120 -8 3 -17 3 -21 -1z m-78 -69 c-3 -10 -5 -2 -5 17 0 19 2 27
5 18 2 -10 2 -26 0 -35z"/>
<path d="M4872 1683 c4 -66 28 -70 28 -4 0 39 -4 51 -16 51 -12 0 -14 -10 -12
-47z"/>
<path d="M4930 1679 c0 -43 3 -50 16 -45 9 3 19 6 23 6 4 0 5 17 2 38 l-5 37
-7 -35 -6 -35 -2 43 c-2 60 -21 52 -21 -9z"/>
<path d="M5010 1679 c0 -32 4 -49 11 -47 6 2 10 7 10 11 -1 4 -1 25 -1 47 0
22 -4 40 -10 40 -5 0 -10 -23 -10 -51z"/>
<path d="M5189 1688 c-3 -30 0 -48 6 -48 7 0 9 15 7 38 -6 58 -9 61 -13 10z"/>
<path d="M5220 1686 c0 -81 52 -79 58 2 4 41 3 42 -27 42 -30 0 -31 -2 -31
-44z"/>
<path d="M3340 1688 c0 -3 12 -11 28 -17 25 -10 24 -11 -15 -8 -30 2 -43 -1
-43 -10 0 -8 13 -13 34 -13 18 0 49 -3 67 -7 31 -7 29 -8 -26 -13 -65 -6 -56
-12 40 -27 l50 -8 -47 -3 c-27 -2 -48 -7 -48 -13 0 -5 77 -9 189 -9 155 0 191
3 201 15 11 13 8 15 -21 15 -29 1 -31 2 -16 11 11 6 29 9 42 6 14 -2 26 1 29
9 4 10 -15 12 -87 9 -84 -3 -87 -3 -32 5 110 16 135 22 135 31 0 5 -19 7 -42
4 l-43 -6 28 16 c15 9 27 17 27 18 0 1 -101 2 -225 2 -124 0 -225 -3 -225 -7z
m234 -27 c3 -5 -1 -11 -9 -14 -9 -4 -12 -1 -8 9 6 16 10 17 17 5z m41 -1 c-3
-5 -11 -10 -16 -10 -6 0 -7 5 -4 10 3 6 11 10 16 10 6 0 7 -4 4 -10z m-12 -37
c-7 -2 -21 -2 -30 0 -10 3 -4 5 12 5 17 0 24 -2 18 -5z m0 -40 c-13 -2 -33 -2
-45 0 -13 2 -3 4 22 4 25 0 35 -2 23 -4z"/>
<path d="M2713 1629 c-28 -8 -33 -14 -33 -40 0 -28 3 -31 23 -25 12 3 25 6 28
6 4 0 9 16 11 35 2 19 4 35 3 34 0 0 -15 -5 -32 -10z"/>
<path d="M5150 1630 c0 -5 5 -10 10 -10 6 0 10 5 10 10 0 6 -4 10 -10 10 -5 0
-10 -4 -10 -10z"/>
<path d="M1885 1593 c8 -35 6 -33 47 -40 33 -5 36 -3 40 25 4 28 2 30 -31 36
-61 10 -64 9 -56 -21z"/>
<path d="M2130 1610 c0 -6 80 -10 220 -10 140 0 220 4 220 10 0 6 -80 10 -220
10 -140 0 -220 -4 -220 -10z"/>
<path d="M2865 1598 c-4 -10 -4 -26 0 -35 8 -17 8 -17 12 0 3 9 3 25 0 35 -4
16 -4 16 -12 0z"/>
<path d="M5918 1541 c-3 -21 -1 -28 9 -24 14 6 18 53 4 53 -5 0 -11 -13 -13
-29z"/>
<path d="M5877 1535 c-3 -16 0 -24 7 -22 14 4 21 47 8 47 -5 0 -12 -11 -15
-25z"/>
<path d="M2680 1517 c0 -39 65 -66 65 -27 0 8 4 21 8 28 6 9 -2 12 -32 12 -27
0 -41 -4 -41 -13z"/>
<path d="M1880 1506 c0 -44 89 -37 90 7 0 4 -20 7 -45 7 -32 0 -45 -4 -45 -14z"/>
<path d="M3603 1513 c15 -2 39 -2 55 0 15 2 2 4 -28 4 -30 0 -43 -2 -27 -4z"/>
<path d="M5880 1479 c0 -5 5 -7 10 -4 6 3 10 8 10 11 0 2 -4 4 -10 4 -5 0 -10
-5 -10 -11z"/>
<path d="M5720 1410 c0 -5 5 -10 11 -10 5 0 7 5 4 10 -3 6 -8 10 -11 10 -2 0
-4 -4 -4 -10z"/>
<path d="M7170 1416 c0 -2 7 -7 16 -10 8 -3 12 -2 9 4 -6 10 -25 14 -25 6z"/>
<path d="M4572 1130 c0 -14 2 -19 5 -12 2 6 2 18 0 25 -3 6 -5 1 -5 -13z"/>
<path d="M5346 1071 c-4 -7 -5 -15 -2 -18 9 -9 19 4 14 18 -4 11 -6 11 -12 0z"/>
<path d="M5298 1013 c6 -2 18 -2 25 0 6 3 1 5 -13 5 -14 0 -19 -2 -12 -5z"/>
<path d="M3680 940 c0 -5 21 -10 46 -10 27 0 43 4 39 10 -3 6 -24 10 -46 10
-21 0 -39 -4 -39 -10z"/>
<path d="M4733 938 c2 -13 22 -38 30 -38 3 0 4 11 3 25 -1 17 -7 25 -18 25
-10 0 -17 -6 -15 -12z"/>
<path d="M3520 932 c0 -4 18 -6 40 -4 22 2 40 6 40 8 0 2 -18 4 -40 4 -22 0
-40 -3 -40 -8z"/>
<path d="M4405 930 c-3 -5 1 -10 10 -10 9 0 13 5 10 10 -3 6 -8 10 -10 10 -2
0 -7 -4 -10 -10z"/>
<path d="M4471 931 c-11 -7 -10 -13 8 -32 20 -22 26 -17 22 19 -2 15 25 16 35
0 5 -7 3 -8 -5 -4 -8 5 -12 3 -10 -5 3 -28 -1 -39 -16 -39 -9 0 -12 -6 -9 -15
7 -18 24 -20 24 -3 0 6 10 22 21 35 18 18 20 25 9 38 -14 16 -57 20 -79 6z"/>
<path d="M4105 920 c-4 -6 -11 -8 -16 -5 -5 4 -9 -3 -9 -14 0 -10 -6 -21 -12
-23 -7 -3 6 -5 29 -6 33 -1 41 1 37 12 -3 8 -12 12 -20 9 -8 -3 -14 0 -14 5 0
6 8 12 18 14 12 2 13 6 5 11 -6 4 -14 3 -18 -3z"/>
<path d="M4185 920 c-3 -5 -15 -10 -26 -10 -23 0 -26 -25 -3 -34 25 -10 41 -7
24 4 -13 8 -11 11 8 16 12 4 22 13 22 20 0 16 -16 19 -25 4z"/>
<path d="M3951 913 c-24 -5 -61 -33 -43 -33 14 0 82 29 82 35 0 3 -3 4 -7 4
-5 -1 -19 -4 -32 -6z"/>
<path d="M4014 905 c-3 -8 -10 -12 -15 -9 -5 3 -9 1 -9 -4 0 -8 31 -21 51 -22
18 0 16 31 -2 40 -15 9 -21 7 -25 -5z"/>
<path d="M3193 903 c9 -2 23 -2 30 0 6 3 -1 5 -18 5 -16 0 -22 -2 -12 -5z"/>
<path d="M3601 884 c-26 -11 -36 -11 -42 -3 -5 8 -25 9 -65 4 -51 -6 -56 -9
-35 -16 17 -7 27 -6 31 2 10 15 53 1 46 -16 -3 -10 9 -8 47 5 51 18 76 18 47
0 -8 -5 -11 -12 -7 -16 4 -4 13 -2 19 4 16 16 25 15 31 -2 4 -10 0 -12 -14 -9
-13 4 -19 0 -19 -11 0 -9 -4 -16 -10 -16 -5 0 -10 -5 -10 -11 0 -15 41 -1 65
22 15 15 17 21 7 31 -7 7 -12 20 -12 30 0 22 -31 23 -79 2z"/>
<path d="M4610 893 c1 -22 62 -68 74 -56 3 3 -9 19 -25 34 -30 28 -49 37 -49
22z"/>
<path d="M3353 882 c-7 -4 6 -8 30 -9 29 -2 37 1 27 7 -18 12 -41 12 -57 2z"/>
<path d="M3180 845 c-14 -18 -35 -39 -48 -44 -13 -6 -20 -16 -17 -22 4 -6 -3
-13 -14 -16 -20 -5 -28 -39 -8 -35 4 1 6 4 5 5 -7 9 25 36 35 30 6 -4 8 0 4
10 -7 20 4 22 21 5 6 -6 15 -9 19 -5 4 4 1 13 -5 19 -8 8 -9 15 -1 25 17 20
31 16 27 -9 -1 -13 1 -24 6 -25 5 -1 12 -7 17 -15 6 -10 11 -10 21 0 9 9 9 12
0 12 -7 0 -12 11 -12 24 0 25 31 41 48 24 6 -6 21 -2 40 9 l30 19 -29 13 c-31
13 -54 7 -30 -8 9 -6 10 -11 2 -15 -6 -4 -11 -2 -11 3 0 16 -19 13 -36 -4 -9
-8 -20 -15 -25 -15 -5 0 -9 7 -9 15 0 8 7 15 15 15 8 0 15 5 15 10 0 22 -37 7
-60 -25z"/>
<path d="M3000 860 c0 -3 10 -11 21 -19 20 -12 21 -11 15 5 -6 15 -2 14 18 -5
22 -21 28 -22 42 -10 15 12 16 11 10 -11 -4 -14 -4 -20 1 -15 4 6 17 15 27 21
11 5 20 18 22 27 2 14 -9 16 -77 14 -43 -1 -79 -4 -79 -7z m140 -9 c0 -18 -18
-21 -30 -6 -10 13 -9 15 9 15 11 0 21 -4 21 -9z"/>
<path d="M4137 863 c-14 -13 -6 -25 14 -20 16 4 18 3 9 -8 -7 -8 -9 -19 -5
-25 13 -20 -14 -9 -29 12 -11 16 -16 18 -16 7 0 -18 19 -39 36 -39 7 0 19 14
28 30 13 27 11 32 -10 29 -4 0 -10 4 -14 10 -3 6 -9 8 -13 4z"/>
<path d="M4800 860 c0 -5 5 -10 10 -10 6 0 10 5 10 10 0 6 -4 10 -10 10 -5 0
-10 -4 -10 -10z"/>
<path d="M2860 840 c0 -5 5 -10 10 -10 6 0 10 -4 10 -10 0 -5 -6 -10 -14 -10
-16 0 -31 -18 -23 -27 3 -2 20 6 37 18 29 22 30 25 14 36 -21 16 -34 17 -34 3z"/>
<path d="M2940 836 c0 -8 -19 -29 -42 -46 -33 -25 -37 -30 -18 -25 14 4 30 13
36 20 5 8 23 17 39 21 24 6 27 5 22 -11 -6 -14 -3 -17 18 -13 14 3 28 1 31 -3
5 -9 52 -5 61 5 7 7 -23 36 -38 36 -9 0 -8 -4 1 -15 8 -9 8 -15 2 -15 -6 0
-14 9 -17 21 -6 16 -12 19 -36 14 -21 -5 -31 -2 -35 9 -8 20 -24 21 -24 2z"/>
<path d="M3365 840 c-3 -5 -2 -10 4 -10 5 0 13 5 16 10 3 6 2 10 -4 10 -5 0
-13 -4 -16 -10z"/>
<path d="M4813 843 c-20 -7 -15 -19 7 -20 11 -1 20 4 20 13 0 14 -6 16 -27 7z"/>
<path d="M3596 823 c-9 -22 -3 -25 19 -10 15 12 16 15 2 20 -9 3 -18 -1 -21
-10z"/>
<path d="M3257 799 c3 -11 11 -18 17 -16 17 6 13 30 -5 32 -12 2 -15 -3 -12
-16z"/>
<path d="M3370 809 c0 -5 5 -7 10 -4 6 3 10 8 10 11 0 2 -4 4 -10 4 -5 0 -10
-5 -10 -11z"/>
<path d="M3400 810 c0 -5 5 -10 10 -10 6 0 10 5 10 10 0 6 -4 10 -10 10 -5 0
-10 -4 -10 -10z"/>
<path d="M1484 763 c1 -13 -5 -17 -22 -16 -20 3 -21 0 -12 -17 14 -26 22 -25
47 4 15 17 18 27 10 35 -16 16 -25 14 -23 -6z"/>
<path d="M1572 764 c10 -10 20 -15 24 -12 3 4 -5 12 -18 18 -22 12 -22 12 -6
-6z"/>
<path d="M1630 765 c-7 -8 -9 -15 -4 -15 4 0 0 -6 -11 -13 -10 -8 -15 -19 -12
-24 4 -6 -4 -18 -18 -27 -19 -13 -30 -14 -45 -6 -23 12 -16 38 14 50 18 7 19
9 5 15 -17 7 -97 -60 -86 -72 4 -3 14 0 22 7 12 10 19 10 28 1 9 -9 7 -13 -11
-17 -12 -4 -22 -13 -22 -20 0 -19 19 -18 26 1 4 8 13 15 22 15 10 0 7 -7 -12
-25 -31 -29 -32 -34 -7 -32 10 0 27 12 37 25 36 46 63 72 75 72 8 0 8 -4 -1
-15 -6 -8 -8 -20 -4 -26 5 -9 2 -10 -9 -6 -11 4 -14 2 -10 -9 3 -7 11 -14 19
-14 20 0 17 -17 -3 -29 -21 -11 -11 -26 12 -17 20 7 31 36 17 45 -13 8 -4 51
10 51 6 0 7 7 4 16 -5 12 -1 14 17 9 15 -4 18 -4 8 3 -8 6 -10 15 -5 23 5 9
-1 8 -19 -3 -14 -10 -34 -18 -44 -18 -16 0 -16 2 2 18 12 9 27 25 34 35 11 14
11 17 -2 17 -8 0 -20 -7 -27 -15z"/>
<path d="M2925 770 c-3 -6 0 -12 7 -15 31 -10 51 -9 56 4 3 10 0 12 -12 8 -9
-4 -16 -2 -16 3 0 13 -27 13 -35 0z"/>
<path d="M1787 763 c-4 -3 -7 -15 -7 -25 0 -15 -5 -17 -25 -12 -26 6 -36 -12
-12 -22 22 -8 70 15 64 30 -3 7 0 19 6 25 8 8 7 11 -4 11 -9 0 -19 -3 -22 -7z"/>
<path d="M2824 757 c-8 -21 2 -35 16 -21 5 5 6 15 0 24 -8 12 -10 12 -16 -3z"/>
<path d="M3013 741 c-1 -14 9 -22 42 -32 36 -11 42 -16 33 -27 -9 -10 -24 -12
-53 -8 -27 4 -35 3 -25 -3 12 -8 6 -14 -25 -27 -34 -14 -37 -18 -20 -24 19 -7
19 -7 0 -18 -40 -22 -4 -23 41 -1 27 12 42 25 36 27 -7 2 -19 -1 -26 -8 -9 -6
-17 -7 -20 -2 -6 11 18 24 46 27 10 1 24 8 32 14 11 10 20 10 36 1 12 -6 24
-9 28 -6 3 3 0 6 -6 6 -7 0 -12 9 -12 19 0 13 -13 24 -41 35 -22 9 -38 20 -35
25 3 5 -1 12 -10 15 -21 8 -20 9 -21 -13z"/>
<path d="M3146 744 c-4 -10 -1 -14 6 -12 15 5 23 28 10 28 -5 0 -13 -7 -16
-16z"/>
<path d="M4186 751 c-4 -7 -5 -15 -2 -18 9 -9 19 4 14 18 -4 11 -6 11 -12 0z"/>
<path d="M2880 746 c0 -2 9 -6 20 -9 11 -3 18 -1 14 4 -5 9 -34 13 -34 5z"/>
<path d="M1916 719 c-24 -28 -11 -38 14 -11 11 11 16 23 12 26 -5 3 -16 -4
-26 -15z"/>
<path d="M2160 730 c-9 -6 -10 -10 -3 -10 6 0 15 5 18 10 8 12 4 12 -15 0z"/>
<path d="M2955 719 c4 -5 -1 -12 -10 -15 -13 -6 -14 -8 -3 -15 10 -7 10 -9 -2
-9 -26 0 -60 12 -56 19 3 4 -11 7 -29 7 -25 0 -32 -3 -24 -12 5 -7 18 -10 28
-7 25 6 35 -12 16 -30 -8 -9 -15 -22 -15 -30 0 -8 -12 -18 -26 -21 -37 -10
-24 -18 15 -10 21 5 30 11 27 20 -3 8 5 23 17 35 17 16 30 19 57 15 22 -3 30
-2 21 3 -11 7 -10 10 5 14 16 4 17 5 2 6 -10 0 -18 6 -18 11 0 14 11 13 55 -6
32 -13 58 -13 44 0 -10 10 -109 34 -104 25z"/>
<path d="M1985 710 c-4 -7 -1 -16 6 -21 23 -14 32 -10 18 9 -7 9 -14 18 -15
20 -1 2 -5 -2 -9 -8z"/>
<path d="M2782 709 c-13 -5 -21 -13 -18 -18 3 -5 -5 -11 -19 -13 -14 -3 -25
-1 -25 3 0 5 -7 9 -15 9 -8 0 -15 5 -15 10 0 6 -4 10 -10 10 -5 0 -10 -6 -10
-13 0 -17 51 -38 77 -31 12 3 36 -1 53 -10 21 -10 30 -11 27 -3 -2 7 -13 13
-25 15 -26 4 -27 10 -5 34 18 20 17 21 -15 7z"/>
<path d="M1547 699 c8 -8 16 -8 30 0 16 9 14 10 -11 11 -22 0 -27 -3 -19 -11z"/>
<path d="M2040 688 c0 -19 2 -20 10 -8 13 19 13 30 0 30 -5 0 -10 -10 -10 -22z"/>
<path d="M2155 700 c-3 -5 -2 -10 4 -10 5 0 13 5 16 10 3 6 2 10 -4 10 -5 0
-13 -4 -16 -10z"/>
<path d="M2106 684 c-4 -9 -4 -19 -1 -22 2 -3 7 3 11 12 4 9 4 19 1 22 -2 3
-7 -3 -11 -12z"/>
<path d="M2190 690 c-12 -8 -11 -10 8 -10 12 0 22 5 22 10 0 13 -11 13 -30 0z"/>
<path d="M1696 674 c-9 -24 -8 -26 14 -14 11 6 20 15 20 20 0 16 -27 11 -34
-6z"/>
<path d="M1872 677 c18 -19 38 -22 38 -7 0 6 -4 10 -9 10 -5 0 -18 3 -28 7
-17 6 -17 6 -1 -10z"/>
<path d="M1935 680 c3 -5 8 -10 11 -10 2 0 4 5 4 10 0 6 -5 10 -11 10 -5 0 -7
-4 -4 -10z"/>
<path d="M2249 681 c12 -8 8 -13 -17 -28 -18 -10 -32 -21 -32 -25 0 -14 13 -9
53 19 34 23 36 28 20 34 -26 11 -41 10 -24 0z"/>
<path d="M1740 655 c-49 -48 -59 -65 -40 -65 6 0 18 13 29 30 10 16 21 27 24
24 4 -4 9 1 13 10 10 27 0 27 -26 1z"/>
<path d="M1806 650 c-10 -11 -23 -17 -27 -14 -5 3 -9 0 -9 -5 0 -6 5 -11 12
-11 6 0 8 -3 4 -7 -8 -8 -13 -9 -41 -12 -17 -1 -21 -31 -5 -31 17 0 100 77
100 93 0 12 -14 7 -34 -13z"/>
<path d="M2327 652 c3 -14 -5 -23 -31 -36 -42 -20 -47 -31 -11 -22 18 5 25 2
25 -9 0 -8 -4 -15 -10 -15 -5 0 -10 -7 -10 -15 0 -20 12 -19 30 3 20 23 24 52
8 52 -8 0 -6 5 5 11 20 12 23 49 3 49 -9 0 -12 -7 -9 -18z"/>
<path d="M1915 643 c-5 -12 -9 -14 -12 -5 -3 6 -12 12 -21 12 -15 -1 -14 -3 2
-15 22 -17 50 -20 41 -5 -3 6 -1 10 4 10 6 0 11 5 11 10 0 16 -17 11 -25 -7z"/>
<path d="M2050 656 c0 -2 9 -6 20 -9 11 -3 18 -1 14 4 -5 9 -34 13 -34 5z"/>
<path d="M2140 652 c0 -5 -23 -19 -50 -32 -28 -13 -49 -28 -47 -34 4 -11 77
-38 91 -33 6 2 -6 10 -26 17 -44 16 -51 35 -10 26 18 -4 22 -4 13 3 -11 7 -10
10 6 15 11 4 28 15 38 26 16 18 17 20 2 20 -10 0 -17 -4 -17 -8z"/>
<path d="M2376 625 c-15 -19 -22 -35 -17 -35 6 0 18 11 27 25 9 14 22 25 30
25 7 0 16 5 19 10 3 6 -3 10 -13 10 -11 0 -32 -16 -46 -35z"/>
<path d="M2447 639 c-4 -16 -11 -20 -26 -16 -12 3 -21 1 -21 -4 0 -5 11 -9 25
-9 14 0 25 -4 25 -10 0 -5 7 -10 16 -10 11 0 15 -6 11 -19 -3 -13 0 -18 12
-15 9 1 33 6 54 9 32 5 36 9 27 21 -7 8 -19 14 -27 14 -8 0 -11 5 -7 11 4 8 1
8 -13 1 -32 -17 -61 -5 -55 24 5 30 -14 32 -21 3z"/>
<path d="M2750 650 c0 -5 5 -10 10 -10 6 0 10 5 10 10 0 6 -4 10 -10 10 -5 0
-10 -4 -10 -10z"/>
<path d="M2915 649 c-4 -6 -5 -13 -2 -16 7 -7 27 6 27 18 0 12 -17 12 -25 -2z"/>
<path d="M2251 629 c-24 -11 -42 -22 -39 -25 7 -7 88 28 88 38 0 10 4 11 -49
-13z"/>
<path d="M3070 636 c0 -8 -8 -19 -17 -25 -15 -8 -16 -12 -5 -22 9 -10 12 -10
12 -1 0 7 12 17 26 22 28 11 28 33 1 38 -10 2 -17 -3 -17 -12z"/>
<path d="M1970 629 c36 -17 78 -23 64 -9 -6 6 -28 13 -50 16 -36 4 -37 4 -14
-7z"/>
<path d="M2730 635 c0 -3 10 -9 21 -13 19 -8 20 -10 5 -24 -14 -15 -13 -17 10
-22 15 -4 29 -5 32 -1 3 3 -1 5 -9 5 -10 0 -11 3 -2 8 9 5 8 11 0 23 -12 16
-57 35 -57 24z"/>
<path d="M1835 620 c-3 -5 2 -10 12 -10 15 0 15 -2 3 -9 -8 -6 -17 -8 -21 -5
-4 2 -10 0 -14 -6 -9 -14 13 -50 30 -50 8 0 12 -6 9 -14 -8 -21 12 -28 29 -11
10 9 34 15 62 15 41 0 45 2 31 15 -8 8 -21 15 -30 15 -8 0 -18 5 -21 10 -3 6
-1 10 5 10 6 0 9 4 5 10 -3 6 -15 5 -31 -2 -23 -11 -24 -13 -7 -19 10 -4 14
-8 8 -9 -5 -1 1 -6 15 -10 22 -7 21 -8 -12 -9 -20 -1 -43 6 -52 14 -8 8 -21
15 -28 16 -7 0 4 8 24 18 34 16 35 18 17 29 -23 15 -26 15 -34 2z"/>
<path d="M2680 623 c8 -4 20 -13 27 -22 9 -13 14 -13 24 -4 10 10 6 14 -15 23
-15 5 -33 10 -39 9 -7 0 -5 -3 3 -6z"/>
<path d="M2894 616 c23 -19 32 -20 41 -6 3 6 0 10 -9 10 -8 0 -23 3 -33 6 -16
5 -16 4 1 -10z"/>
<path d="M1942 608 c6 -18 25 -21 25 -3 0 8 -7 15 -14 15 -8 0 -13 -5 -11 -12z"/>
<path d="M2150 610 c-12 -8 -12 -10 5 -11 11 0 14 -3 8 -6 -14 -5 -18 -33 -5
-33 4 0 16 10 26 21 15 18 15 23 5 30 -18 11 -21 11 -39 -1z"/>
<path d="M2387 582 c-27 -17 -36 -32 -18 -32 6 0 13 5 16 11 4 6 16 14 28 18
11 4 16 10 11 14 -5 3 -22 -2 -37 -11z"/>
<path d="M2871 591 c-8 -5 -9 -11 -3 -15 5 -3 15 1 22 9 14 16 3 20 -19 6z"/>
<path d="M1658 579 c-10 -6 -14 -17 -11 -30 5 -18 11 -20 42 -16 27 5 32 4 19
-4 -25 -14 -22 -31 5 -27 16 2 22 10 22 28 0 33 -15 43 -36 24 -13 -11 -19
-12 -24 -4 -4 7 -2 16 5 20 18 11 -3 20 -22 9z"/>
<path d="M2220 569 c0 -16 -4 -19 -20 -14 -11 3 -20 2 -20 -4 0 -17 20 -23 35
-11 8 7 15 9 15 4 0 -14 20 19 20 34 0 6 -7 12 -15 12 -8 0 -15 -9 -15 -21z"/>
<path d="M1965 570 c3 -5 18 -10 33 -9 24 0 25 1 7 9 -28 12 -47 12 -40 0z"/>
<path d="M2690 576 c0 -2 7 -6 15 -10 8 -3 15 -1 15 4 0 6 -7 10 -15 10 -8 0
-15 -2 -15 -4z"/>
<path d="M3410 570 c0 -5 5 -10 10 -10 6 0 10 5 10 10 0 6 -4 10 -10 10 -5 0
-10 -4 -10 -10z"/>
<path d="M3448 573 c7 -3 16 -2 19 1 4 3 -2 6 -13 5 -11 0 -14 -3 -6 -6z"/>
<path d="M2410 560 c0 -13 11 -13 30 0 12 8 11 10 -7 10 -13 0 -23 -4 -23 -10z"/>
<path d="M1760 541 c0 -11 -2 -25 -3 -33 -2 -7 -2 -10 0 -7 2 4 13 5 24 2 15
-4 18 -2 13 11 -4 11 -1 16 12 16 14 0 11 4 -10 15 -36 19 -36 19 -36 -4z"/>
<path d="M2265 540 c3 -5 8 -10 11 -10 2 0 4 5 4 10 0 6 -5 10 -11 10 -5 0 -7
-4 -4 -10z"/>
<path d="M2825 540 c3 -5 10 -10 16 -10 5 0 9 5 9 10 0 6 -7 10 -16 10 -8 0
-12 -4 -9 -10z"/>
<path d="M3065 541 c-3 -5 -1 -12 5 -16 5 -3 10 1 10 9 0 18 -6 21 -15 7z"/>
<path d="M2000 530 c0 -5 5 -10 10 -10 6 0 10 5 10 10 0 6 -4 10 -10 10 -5 0
-10 -4 -10 -10z"/>
<path d="M2670 530 c0 -5 5 -10 11 -10 5 0 7 5 4 10 -3 6 -8 10 -11 10 -2 0
-4 -4 -4 -10z"/>
<path d="M2440 500 c0 -5 5 -10 10 -10 6 0 10 5 10 10 0 6 -4 10 -10 10 -5 0
-10 -4 -10 -10z"/>
<path d="M3090 500 c0 -5 5 -10 10 -10 6 0 10 5 10 10 0 6 -4 10 -10 10 -5 0
-10 -4 -10 -10z"/>
<path d="M1705 483 c-10 -3 -28 -11 -40 -19 -17 -11 -25 -11 -50 2 -29 15 -29
15 -10 -6 10 -11 26 -20 35 -20 20 0 77 27 85 41 4 5 5 8 3 8 -2 -1 -12 -4
-23 -6z"/>
<path d="M2134 478 c-11 -17 10 -27 29 -14 16 13 16 14 -3 19 -11 3 -23 1 -26
-5z"/>
<path d="M2462 478 c-14 -14 -16 -28 -3 -28 9 0 24 30 18 36 -2 2 -9 -2 -15
-8z"/>
<path d="M2195 457 c-4 -10 -5 -21 -1 -24 10 -10 18 4 13 24 -4 17 -4 17 -12
0z"/>
<path d="M2556 435 c4 -8 11 -15 16 -15 6 0 5 6 -2 15 -7 8 -14 15 -16 15 -2
0 -1 -7 2 -15z"/>
<path d="M7180 1940 c0 -5 5 -10 10 -10 6 0 10 5 10 10 0 6 -4 10 -10 10 -5 0
-10 -4 -10 -10z"/>
<path d="M2808 1263 c7 -3 16 -2 19 1 4 3 -2 6 -13 5 -11 0 -14 -3 -6 -6z"/>
<path d="M6800 855 c-8 -9 -8 -15 -2 -15 12 0 26 19 19 26 -2 2 -10 -2 -17
-11z"/>
<path d="M6826 834 c-9 -24 -7 -28 9 -14 17 14 20 30 6 30 -5 0 -12 -7 -15
-16z"/>
<path d="M7078 763 c7 -3 16 -2 19 1 4 3 -2 6 -13 5 -11 0 -14 -3 -6 -6z"/>
<path d="M4678 733 c-10 -2 -18 -7 -18 -10 0 -10 35 -32 51 -33 9 0 22 7 29
15 8 9 8 15 2 15 -6 0 -12 -4 -14 -9 -1 -4 -12 -5 -23 0 -17 6 -17 8 -2 8 9 1
17 6 17 11 0 10 -12 11 -42 3z"/>
<path d="M3760 649 c0 -5 5 -7 10 -4 6 3 10 8 10 11 0 2 -4 4 -10 4 -5 0 -10
-5 -10 -11z"/>
<path d="M4555 700 c-3 -5 1 -10 9 -10 9 0 16 -4 16 -10 0 -5 7 -10 15 -10 8
0 15 5 15 10 0 6 -7 10 -15 10 -8 0 -15 5 -15 10 0 6 -4 10 -9 10 -6 0 -13 -4
-16 -10z"/>
<path d="M4995 620 c-3 -5 -1 -10 4 -10 6 0 11 5 11 10 0 6 -2 10 -4 10 -3 0
-8 -4 -11 -10z"/>
<path d="M4607 618 c-8 -30 0 -36 18 -12 18 24 19 34 1 34 -7 0 -16 -10 -19
-22z"/>
</g>
</svg>
